<svg width="50mm" height="25mm" viewBox="0 0 46 24" version="1.1" id="svg20707" xml:space="preserve" xmlns="http://www.w3.org/2000/svg"><defs id="defs20704"><clipPath id="clip0_2484_23295"><path fill="#fff" id="rect29472" d="M0 0h228v95H0z"/></clipPath></defs><path style="fill:#fff;stroke-width:.05018" d="M20.532 19.348c.003-4.453-.002-8.906.002-13.359.673.002 1.346 0 2.019.001v13.36c-.674 0-1.347.001-2.021-.002z" id="path3117"/><path id="path3113" style="fill:#fff;stroke-width:.05018" d="M5.445 19.35c2.073-4.455 4.143-8.91 6.22-13.361.26.002.52.001.78 0 2.003 4.452 4 8.907 6 13.361-.743-.005-1.488.01-2.232-.007-.453-1.08-.928-2.152-1.39-3.23H9.122c-.495 1.076-.993 2.15-1.48 3.23-.732.017-1.464.002-2.196.007m6.571-9.64c-.678 1.501-1.373 2.995-2.05 4.498 1.208-.003 2.414 0 3.62-.001.138-.003.276.009.412-.012-.656-1.47-1.288-2.953-1.94-4.426a6.049 6.049 0 0 1-.042-.06z"/><path style="fill:#fff;stroke-width:.05018" d="M31.5 5.801c1.248-.173 2.55-.045 3.718.443 1.12.465 2.033 1.303 2.835 2.193-.478.47-.968.926-1.448 1.394-.561-.747-1.267-1.409-2.127-1.796-.897-.415-1.925-.487-2.89-.307-1.724.31-3.2 1.653-3.73 3.314a5.699 5.699 0 0 0-.147 2.684 4.603 4.603 0 0 0 1.227 2.36c.68.698 1.53 1.257 2.484 1.49.851.204 1.772.159 2.582-.185a4.446 4.446 0 0 0 1.707-1.302c.41-.512.664-1.141.732-1.793-1.11-.006-2.22.003-3.329-.004.002-.635 0-1.27.001-1.904l5.532-.001c.007.952-.035 1.915-.28 2.84-.234.93-.752 1.77-1.408 2.462a6.056 6.056 0 0 1-2.135 1.47c-.989.4-2.077.507-3.134.413a6.353 6.353 0 0 1-3.034-1.086c-1.402-.967-2.496-2.426-2.885-4.097a7.502 7.502 0 0 1 .067-3.66c.444-1.607 1.543-2.989 2.92-3.905A6.542 6.542 0 0 1 31.5 5.8Z" id="path22645"/><style id="style30964">.st1{fill:#02549f}.st0{fill:#fff}</style></svg>