<svg width="50mm" height="25mm" viewBox="0 0 50 25" version="1.1" id="svg20707" xml:space="preserve" xmlns="http://www.w3.org/2000/svg"><defs id="defs20704"><clipPath id="clip0_2484_23295"><path fill="#fff" id="rect29472" d="M0 0h228v95H0z"/></clipPath></defs><g id="layer1"><g id="g23405" transform="translate(-.177 .53) scale(.0472)" style="fill:#fff"><path d="M0 0a.607.607 0 0 1-.239-.119c-.353-.247-.769-.37-1.247-.37-.314 0-.721.21-1.223.629l-.519.44-.129.11-.795.686c-.229.18-.63.461-1.205.843.393.101.76.23 1.102.387l-8.876-.001c.131-.151.281-.227.453-.227.091 0 .222.008.392.023.153.015.401.023.742.023.312 0 .531-.006.661-.019l-.024-.049a4.282 4.282 0 0 1-.435-1.693c-.001-.029-.002-.058 0-.083h.199-.199c.008-.182.078-.272.211-.272.086 0 .149.089.188.272h.001l.021.129c.063.52.239.963.529 1.327.29.364.61.547.956.547.399 0 1.026-.293 1.879-.879l1.435-.99A147.351 147.351 0 0 0-4.653-.388c.927-.705 1.733-1.057 2.417-1.057.507 0 1.034.146 1.584.44.548.293.818.574.806.842C.148-.047.098.008 0 0" style="fill:#fff;fill-opacity:1;fill-rule:nonzero;stroke:none" transform="matrix(25.42704 0 0 -25.42704 808.01 473.258)" id="path23387"/><path d="M0 0c-.541.126-.899.298-1.076.517-.176.218-.399.776-.665 1.672l-.189.601-1.214 4.027-2.47 8.201c-.063.214-.138.322-.229.322-.09 0-.172-.111-.245-.334l-2.84-8.189h.713c.009.075.045.201.11.377l1.667 4.794c.051.148.097.218.137.21.08-.007.155-.129.223-.364l.068-.233 1.343-4.384.043-.199c.02-.083.033-.151.039-.201h.655l-.655-.001a.359.359 0 0 0 .004-.053c0-.185-.143-.277-.428-.277h-2.584l-.23.011c-.263 0-.394.097-.394.288 0 .01 0 .021.002.032h-.713l-1.555-4.485-.248-.733a5.588 5.588 0 0 0-.479-.984c-.194-.314-.348-.494-.462-.538l-.316-.123c-.092-.036-.141-.112-.145-.226l-.001-.019c0-.14.077-.21.231-.21.028 0 .187.024.476.073.091.012.219.018.384.018.357 0 .673-.007.945-.023l.819-.056c.131-.008.226-.012.289-.012.165 0 .244.063.239.189a.546.546 0 0 1-.005.04h-.422.422c-.019.111-.107.187-.262.226-.394.111-.659.244-.794.4-.134.155-.201.406-.201.752 0 .363.127.916.383 1.663l.567 1.628c.17.502.307.798.41.886.103.089.365.134.787.134h3.096c.32 0 .513-.032.582-.095.069-.063.163-.298.283-.705l.429-1.465c.35-1.17.525-1.95.525-2.342 0-.429-.143-.681-.43-.755l-.266-.077c-.143-.039-.215-.119-.215-.24v-.01c.004-.153.078-.229.222-.229.057 0 .145.016.265.046.199.045.695.068 1.486.068.758 0 1.285-.016 1.581-.049.165-.012.274-.019.325-.019.153 0 .232.06.239.182v.002C.262-.134.177-.044 0 0" style="fill:#fff;fill-opacity:1;fill-rule:nonzero;stroke:none" transform="matrix(25.42704 0 0 -25.42704 1047.034 400.056)" id="path23389"/><path d="M0 0c-1.225 0-2.331.581-3.321 1.744-1.109 1.312-1.753 3.033-1.931 5.164-.034.407-.051.83-.051 1.268 0 1.882.389 3.409 1.166 4.583.779 1.174 1.791 1.761 3.038 1.761 1.476 0 2.73-.805 3.763-2.416.93-1.452 1.441-3.183 1.533-5.196.01-.222.016-.447.016-.676 0-1.859-.388-3.362-1.163-4.51C2.274.574 1.258 0 0 0m4.661 3.21c.472 1.125.729 2.357.772 3.697.005.134.006.269.006.404 0 2.327-.56 4.22-1.68 5.679-1.12 1.46-2.57 2.19-4.349 2.19-2.007 0-3.562-.874-4.669-2.623-.929-1.476-1.393-3.266-1.393-5.37 0-.094.001-.187.003-.279.057-2.513.901-4.589 2.53-6.225C-4.351.56-4.564.354-4.76.067l-.292.079C-5.61.294-6.126.691-6.6 1.337l-4.097 5.571h-3.21V2.626c0-.932-.071-1.595-.211-1.989a1.393 1.393 0 0 0-.108-.233.994.994 0 0 0-.238.203c-.177.219-.398.777-.666 1.673l-.188.601-1.213 4.027-2.471 8.2c-.062.215-.139.323-.228.323-.09 0-.172-.112-.246-.334l-2.839-8.189h.712c.009.074.045.2.11.377l1.668 4.794c.051.148.096.218.137.21.079-.007.153-.129.221-.364l.07-.234 1.342-4.383.043-.2c.02-.083.033-.15.039-.2h.656l-.656-.001c.002-.02.004-.038.004-.053 0-.185-.142-.277-.428-.277h-2.583l-.231.011c-.263 0-.394.097-.394.288l.002.032h-.712l-1.556-4.485-.248-.734a5.48 5.48 0 0 0-.48-.983c-.193-.314-.347-.494-.461-.538l-.316-.123c-.092-.036-.141-.112-.145-.227V-.2c0-.14.076-.21.23-.21.028 0 .187.024.477.073.09.012.218.018.383.018.358 0 .673-.007.946-.023l.817-.056c.131-.008.228-.012.29-.012.165 0 .244.063.238.189a.245.245 0 0 1-.004.039h-.421.421c-.02.112-.107.188-.261.227-.396.111-.659.244-.794.399-.135.156-.202.407-.202.753 0 .363.128.916.383 1.662l.567 1.629c.171.502.307.798.41.886.103.089.365.134.787.134h3.097c.319 0 .512-.032.581-.095.068-.063.163-.298.282-.705l.431-1.465c.349-1.17.524-1.95.524-2.343 0-.428-.143-.68-.43-.754l-.266-.078c-.144-.038-.215-.118-.215-.239v-.011c.004-.152.077-.228.222-.228.057 0 .145.015.265.046.2.045.695.068 1.487.068.41 0 .783.005 1.087.004.223-.01 2.482-.103 2.662-.129l.464-.058c.142-.006.211.065.206.217a.253.253 0 0 1-.018.08c-.034.078-.113.13-.239.159-.632.133-1.037.337-1.214.611-.176.274-.265.837-.265 1.689v4.068c0 .17.053.256.158.256.07 0 .14-.041.21-.123l.171-.245L-7.463.088l.146-.208a.608.608 0 0 1 .049-.062h8.876c.332.153.64.33.924.536.901.667 1.611 1.619 2.129 2.856" style="fill:#fff;fill-opacity:1;fill-rule:nonzero;stroke:none" transform="matrix(25.42704 0 0 -25.42704 658.923 402.365)" id="path23391"/><path d="M0 0c.006.09.071.208.196.357l2.923 3.446C4.575 5.505 5.56 6.441 6.073 6.612c.28.087.417.189.411.306-.011.145-.094.218-.249.218-.046 0-.133-.016-.265-.046-.115-.023-.352-.034-.712-.034l-.643-.011-.789.03c-.297 0-.565.013-.805.04-.103.014-.18.021-.232.021-.177 0-.266-.075-.266-.224 0-.135.13-.227.389-.277.411-.097.616-.316.616-.656 0-.394-.282-.916-.846-1.57L-.99.125l-.128-.134-.137-.122c-.052 0-.077.078-.077.235v4.362c0 .761.048 1.269.143 1.526.094.258.323.487.684.689.138.07.207.155.207.254 0 .141-.068.209-.206.201-.046 0-.184-.02-.413-.057a5.702 5.702 0 0 0-.446-.015l-.644-.028-.318-.015c-.624 0-1.082.026-1.375.077-.12.025-.223.038-.309.038-.154 0-.232-.076-.232-.228 0-.108.074-.184.223-.227l.42-.113c.371-.103.623-.314.754-.63.132-.318.198-.875.198-1.672v-5.22H.563l-.358.486C.063-.267-.006-.111 0 0" style="fill:#fff;fill-opacity:1;fill-rule:nonzero;stroke:none" transform="matrix(25.42704 0 0 -25.42704 372.597 202.45)" id="path23393"/></g></g><style id="style30964">.st1{fill:#02549f}.st0{fill:#fff}</style></svg>