<svg width="50mm" height="25mm" viewBox="0 0 50 25" version="1.1" id="svg20707" xml:space="preserve" xmlns="http://www.w3.org/2000/svg"><defs id="defs20704"><clipPath id="clip0_2484_23295"><path fill="#fff" id="rect29472" d="M0 0h228v95H0z"/></clipPath></defs><g id="layer1"><path fill="#090" d="M24.63 14.985a12.729 12.729 0 0 0-2.5-2.083 13.07 13.07 0 0 0 2.488-2.093 13.008 13.008 0 0 0-3.061-1.103c.63-.833 1.182-1.79 1.632-2.814a13.094 13.094 0 0 0-3.253.01c.315-1.001.506-2.082.563-3.207-1.092.259-2.128.63-3.05 1.114a13.631 13.631 0 0 0-.564-3.208 13.76 13.76 0 0 0-2.487 2.094A13.23 13.23 0 0 0 12.766.88c-.676.9-1.216 1.857-1.621 2.825a12.903 12.903 0 0 0-2.488-2.094 13.443 13.443 0 0 0-.563 3.197 13.286 13.286 0 0 0-3.05-1.114c.067 1.125.259 2.206.574 3.208a13.194 13.194 0 0 0-3.264 0c.439 1.035.99 1.98 1.632 2.814-1.025.236-2.06.608-3.062 1.114.765.822 1.61 1.52 2.499 2.083a13.07 13.07 0 0 0-2.488 2.093c1.002.507 2.038.878 3.062 1.103-.63.833-1.182 1.79-1.632 2.814 1.114.136 2.206.124 3.242 0a12.843 12.843 0 0 0-.563 3.197 13.096 13.096 0 0 0 3.05-1.114c.045 1.047.237 2.127.563 3.208.934-.62 1.779-1.317 2.488-2.094.405.968.956 1.925 1.632 2.826.675-.901 1.216-1.858 1.62-2.826.71.777 1.554 1.486 2.5 2.094.326-1.07.506-2.15.562-3.208.935.484 1.97.855 3.062 1.114a13.284 13.284 0 0 0-.574-3.197c1.036.136 2.139.136 3.253 0a12.787 12.787 0 0 0-1.632-2.814c1.024-.247 2.06-.619 3.062-1.125z" id="path24876" style="stroke-width:.112562;fill:#fff"/><path fill="#9c0" d="M21.568 16.1a10.662 10.662 0 0 0-1.97-1.993c.867-.27 1.711-.687 2.533-1.205a10.785 10.785 0 0 0-2.533-1.193c.72-.551 1.373-1.227 1.97-2.003a10.333 10.333 0 0 0-2.792-.26c.484-.765.878-1.62 1.16-2.554-.957.123-1.869.36-2.713.709.191-.89.27-1.824.214-2.803-.856.45-1.632.98-2.296 1.598-.124-.9-.372-1.812-.755-2.701a10.402 10.402 0 0 0-1.62 2.296c-.417-.8-.968-1.576-1.633-2.285-.371.89-.619 1.801-.731 2.69A10.415 10.415 0 0 0 8.083 4.81c-.045.968.034 1.914.225 2.803-.833-.349-1.745-.574-2.713-.698.293.923.687 1.779 1.171 2.544-.9-.034-1.846.056-2.803.27.586.766 1.25 1.44 1.97 1.992-.867.27-1.71.687-2.533 1.205.822.518 1.666.923 2.533 1.193-.72.552-1.373 1.227-1.97 2.004.946.214 1.88.304 2.78.259-.484.765-.877 1.62-1.159 2.555.957-.124 1.88-.36 2.713-.71-.191.879-.27 1.824-.225 2.792.866-.45 1.643-.98 2.307-1.587.124.9.372 1.812.743 2.701a11.015 11.015 0 0 0 1.621-2.285c.417.8.968 1.576 1.632 2.285.372-.889.62-1.8.743-2.701a10.415 10.415 0 0 0 2.319 1.587 10.807 10.807 0 0 0-.225-2.791c.833.349 1.756.574 2.713.697a10.946 10.946 0 0 0-1.171-2.543c.923.022 1.868-.068 2.814-.282z" id="path24878" style="stroke-width:.112562;fill:#ccc"/><path fill="#ff0" d="M17.448 12.914a8.378 8.378 0 0 0 2.161-1.205 8.377 8.377 0 0 0-2.431-.394 7.84 7.84 0 0 0 1.61-1.868 7.834 7.834 0 0 0-2.42.472 7.909 7.909 0 0 0 .878-2.307 8.141 8.141 0 0 0-2.117 1.272c.135-.8.147-1.632.034-2.476A8.16 8.16 0 0 0 13.6 8.332a8.272 8.272 0 0 0-.81-2.34c-.384.753-.665 1.53-.8 2.318a8.106 8.106 0 0 0-1.565-1.914 8.282 8.282 0 0 0 .034 2.477 7.876 7.876 0 0 0-2.127-1.261c.18.833.472 1.61.878 2.307a8.169 8.169 0 0 0-2.42-.461 8.642 8.642 0 0 0 1.61 1.869 8.03 8.03 0 0 0-2.443.393 7.851 7.851 0 0 0 2.16 1.194 8.378 8.378 0 0 0-2.16 1.204c.81.248 1.632.383 2.43.394a8.145 8.145 0 0 0-1.62 1.869 8.169 8.169 0 0 0 2.42-.462 8.032 8.032 0 0 0-.878 2.308 8.141 8.141 0 0 0 2.116-1.272c-.135.799-.146 1.62-.033 2.465a8.106 8.106 0 0 0 1.564-1.914c.146.8.417 1.576.81 2.33.395-.754.665-1.53.811-2.33.405.698.934 1.34 1.565 1.914a8.201 8.201 0 0 0-.034-2.465c.619.517 1.34.945 2.127 1.272a7.909 7.909 0 0 0-.878-2.308c.766.27 1.576.428 2.432.462a8.389 8.389 0 0 0-1.621-1.869 8.03 8.03 0 0 0 2.442-.394 7.923 7.923 0 0 0-2.16-1.204z" id="path24880" style="stroke-width:.112562;fill:#e6e6e6"/><path fill="#fff" d="M15.14 13.319c.789 0 1.565-.146 2.297-.417a6.68 6.68 0 0 0-2.296-.416 6.596 6.596 0 0 0 2.014-1.182 6.72 6.72 0 0 0-2.307.394 6.591 6.591 0 0 0 1.497-1.801 6.723 6.723 0 0 0-2.026 1.16c.394-.687.653-1.43.788-2.196a6.83 6.83 0 0 0-1.52 1.79 6.815 6.815 0 0 0-.011-2.341 6.568 6.568 0 0 0-.8 2.172 6.617 6.617 0 0 0-.81-2.195 6.815 6.815 0 0 0-.01 2.342 6.79 6.79 0 0 0-1.51-1.79c.136.777.395 1.52.789 2.195a6.862 6.862 0 0 0-2.026-1.16c.394.687.889 1.284 1.497 1.801a6.704 6.704 0 0 0-2.297-.394c.597.507 1.272.901 2.015 1.182-.788 0-1.564.147-2.307.417a6.68 6.68 0 0 0 2.296.416 6.788 6.788 0 0 0-2.026 1.182 6.72 6.72 0 0 0 2.307-.394 6.591 6.591 0 0 0-1.497 1.801 6.59 6.59 0 0 0 2.026-1.16 6.726 6.726 0 0 0-.787 2.207 6.708 6.708 0 0 0 1.508-1.778 6.748 6.748 0 0 0 .011 2.33 6.65 6.65 0 0 0 .81-2.184 6.71 6.71 0 0 0 .811 2.195 6.75 6.75 0 0 0 .011-2.33 6.566 6.566 0 0 0 1.509 1.778 6.666 6.666 0 0 0-.788-2.195c.608.507 1.294.89 2.037 1.16a6.763 6.763 0 0 0-1.497-1.801 6.72 6.72 0 0 0 2.308.394 6.831 6.831 0 0 0-2.015-1.182z" id="path24882" style="stroke-width:.112562;fill:#fff"/><g fill="#090" id="g24886" transform="matrix(.21497 0 0 .21497 1.552 9.968)" style="fill:#fff"><path d="M163.6 33.5c0 6.1-2.2 14.5-10.8 14.5-10.4 0-10.4-11.7-10.4-14.1 0-2.4 0-14.8 10.7-14.8 9.7-.1 10.5 10.7 10.5 14.4zM142.6 1h-7v44.8l-.2 6.7h6.7l.2-5.6c.7 1.1 1.6 2.4 3.6 3.8 3.2 2.2 6.5 2.4 8.3 2.4 5.1 0 10.1-2.2 13.1-6.4 1.9-2.4 3.6-6.4 3.6-13.6 0-8.2-2.5-11.9-4.4-14-3.4-3.9-8.1-4.8-11.8-4.8-8.5 0-11.2 4.7-12.2 6.4V1Zm40.3 34c0-3.3 0-15.1 11.1-15.1 8.2 0 10.2 7 10.2 13.7 0 2.7-.4 8-3 11.7-2.4 3.3-6.1 3.6-7.9 3.6-9.7-.1-10.4-9.4-10.4-13.9zm-6.6 31.8h6.9V48.4c2 3.3 6 5.6 11.4 5.6 8.9 0 17-6.1 17-20 0-13.8-7.6-19.3-15.6-19.3-3 0-9.2.9-12.7 6.8l-.1-6.2h-7c.1 3.6.2 4.5.2 6.1z" id="path24884" style="fill:#fff"/></g></g><style id="style30964">.st1{fill:#02549f}.st0{fill:#fff}</style></svg>