<svg width="50mm" height="25mm" viewBox="0 5 50 25" version="1.1" id="svg20707" xml:space="preserve" xmlns="http://www.w3.org/2000/svg"><defs id="defs20704"><clipPath id="clip0_2484_23295"><path fill="#fff" id="rect29472" d="M0 0h228v95H0z"/></clipPath></defs><g id="layer1"><g id="g32481" transform="matrix(.17394 0 0 .17394 -.738 14.373)" style="fill:#fff"><path d="M226.8 9.5H239v42.6h-12.2zm40.4 42.6h20.7V39h-8.3V9.5h-12.4zm-23.8 0h20.8V39h-8.4V9.5h-12.4ZM210.1 9.5v15h-6v-15h-12.2v42.6h12.2V35.2h6v16.9h12.2V9.5Z" id="path32464" style="fill:#fff"/><path d="M114.5 52.1c2.3 0 4.8-1.3 8.6-5.4-1 3.3.2 5.4 2.9 5.4 3.1 0 5.7-3.2 8.4-6.6L146 31.4c2.5-3.1 4.4-4.9 6.3-4.9 1.9 0 1.5 2.2-1 5.4-2.2 2.8-15.8 19.8-15.8 19.8h5.7l14-18.2c4.2-5.5 7.1-7.1 8.6-7.1.8 0 1 .6 1 1.2 0 1.7-1.3 3.2-5.2 8.1l-12.8 16h5.6l14-18.1c5.3-6.8 7-7.2 8.2-7.2.8 0 1 .6 1 1.2 0 4.1-11.7 12.6-11.7 20.3 0 2.3 1.7 4.2 4.9 4.2 9 0 18.3-19.5 18.3-30C187.1 13.3 182 9 176 9c-8.5 0-11.6 4.7-11.6 8.1 0 3 1.6 4.6 4.4 4.6 4 0 6.9-4.6 6.9-6 0-.2-.1-.3-.2-.3-1.5 3.7-4.1 4.9-6 4.9-2.2 0-3.4-1.2-3.4-3.4 0-2.4 2.6-6.8 9.4-6.8 6.3 0 10 4 10 12 0 13.8-9.2 28.3-16 28.3-1.6 0-2-.8-2-1.7 0-2.3 3.6-5.7 6.6-10.3 2.4-3.6 4.8-7.1 4.8-10.2 0-2.7-1.2-3.8-3.1-3.8-2 0-4.4 1.5-8.3 5.7.7-2.6.9-5.7-2.4-5.7-1.7 0-4.7 1.2-9.1 6.2 1.3-4 .1-6.2-2.6-6.2s-4.5 2-6.6 4.5l-10.2 12.5c-3.8 4.6-7.2 9.5-9.4 9.5-1.4 0-2.1-2.2.3-5.3L144 24.8h-6.1l-1.3 1.8c-.3-1.4-1.4-2.1-2.7-2.1-4.4 0-9.8 3.1-13.9 7.2-3.4 3.4-6.4 8.3-7.8 12.1-2.1 2.8-5.8 7-8.4 7-1.8 0-2.2-2.2.2-5.3l16.5-20.8h-6.1s-6.9 9.5-11.5 15.7c-1.2 1.6-5 6.4-6.2 7.6-1.9 1.9-3.6 2.8-4.7 2.8-1.8 0-2.2-2.2.2-5.3 2.1-2.7 25.9-32.7 25.9-32.7h-6S96.8 33 91.2 40.3c-1.2 1.6-5 6.4-6.2 7.6-1.9 1.9-3.6 2.8-4.7 2.8-1.8 0-2.2-2.2.2-5.3 2.1-2.7 25.9-32.7 25.9-32.7h-6S83.2 35.3 78.6 41.4l-.1.1-.2.2c-1.5 2.1-6.4 8.8-9.7 8.8-1.8 0-2.2-2.2.2-5.3l16.5-20.8h-6.1s-7.9 10.8-12.4 16.9c-4.5 6.1-2.6 10.5 1.4 10.5 3.5 0 5.8-2.7 7.7-4.9-.4 3 1.3 4.9 3.9 4.9 3.5 0 5.9-2.7 7.8-4.9-.4 3 1.3 4.9 3.9 4.9 3.6 0 6-2.8 7.9-5-.5 3.1 1.3 5 3.9 5 3 0 5.9-2.8 7.8-5 .2 2.6.7 5.3 3.4 5.3zm11.7-21.4c3.8-3.8 6-4.3 6.8-4.3.8 0 1.2.5 1.2 1.5 0 3.1-10.3 16.1-12.9 18.7-1.3 1.3-3.8 3.5-5.9 3.5-4.1 0 3.4-12 10.8-19.4zM92.8 15.8c.6-1.8-.2-3.2-1.9-3.2-1.6 0-3.5 1.4-4.1 3.2-.6 1.8.2 3.2 1.9 3.2 1.6 0 3.4-1.4 4.1-3.2zm30.9 3.2c1.6 0 3.5-1.4 4.1-3.2.6-1.8-.2-3.2-1.9-3.2-1.6 0-3.5 1.4-4.1 3.2-.6 1.8.3 3.2 1.9 3.2zM33.6 58.7c-10.9 0-17.3-6.6-18.8-15.5.6.2 1.1.2 1.7.2 1.4 0 3.3-.3 5.5-1.3.9.7 2.1 1.2 3.6 1.2 11.3 0 19.6-21.2 12.5-27.1 6-2.7 12.3-3.7 16.7-1.1-1.2.8-2.2 1.8-3.2 2.7-8.6 8.6-12.6 26-19 33-.7-.2-1.5-.4-2.4-.4-1.3 0-2.5.6-2.6 1.4-.2.7.8 1.4 2 1.4 1 0 2-.2 3.2-1 .7.1 1.4.1 2.1.1 2.6 0 5.1-1.1 8-4 7.5-7.5 14-23.3 18.4-26.3-4.1 7-8.5 22.6-14.6 29-.7-.3-1.4-.5-2.3-.5-1.3 0-2.5.6-2.6 1.4-.2.8.8 1.4 2 1.4 1 0 2-.2 3.4-1.1.7.2 1.6.4 2.4.4 2.2 0 4.8-1.2 7-3.4 7.9-7.9 18-24.3 26.5-32.8 3.1-3.1 8.6-7.4 16-7.4 6.6 0 11.1 4.1 11.1 4.1.2-.2.1-.4-.3-.8-3.6-3.6-7.9-5.1-11.9-5.1-3.9 0-10.5 1.4-18.5 9.4-8.5 8.5-18.2 25.6-24.6 32-2.7 2.7-4.4 3.3-5.8 3.3-.3 0-.7-.1-1-.1 1.1-.8 2.3-1.9 3.8-3.4C62.3 38 64.7 18.8 70.5 13c-.4-.4-3.2.3-8.2 5.2-8.1 8-12.6 22.1-20.5 30-2.5 2.5-5.1 3.5-6.7 3.5-.3 0-.7 0-1-.1 1-.8 2.2-1.8 3.7-3.3 5.8-5.8 12.1-23.5 18.9-32.1 7.6-.4 7.5-4 5.1-4-1.4 0-3.4.9-5.3 2.2-1.9-1.7-5.2-2.9-9.7-2.9-4.8 0-9.3 1.3-13.3 3.5-8.7 0-20.8 9.2-20.8 24.8v1.3c-2.1-1.4-4-3.9-4-8.3C8.6 20 27.6 4.7 50.1 4.7c9 0 18.1 3 23.8 7.1l.3-.4c-3.5-3.5-12-8.9-26.8-8.9-19.3 0-40.7 11.4-40.7 29.9 0 5 3 8.4 6 9.9C14 53.5 23.2 60.2 32.6 60.2h255v-1.5zm3-41.9c7.7 4.9-.9 25.2-10.5 25.2-1.1 0-1.9-.3-2.6-.7 3.2-2.1 6.5-6 8.6-13.4l-.4-.2c-1.6 4.9-5 10.1-9.1 12.7-1.2-1.4-1.5-3.5-1.5-5.5-.2-6.1 7.2-13.8 15.5-18.1ZM14.5 38.9c0-9.8 8.5-21.5 16.6-22.9-7.1 4.7-11.9 12-11.9 18.4 0 2.7.6 5.1 2 6.8-1.3.6-2.7 1-4.1 1-.6 0-1.5-.1-2.3-.4-.3-1-.3-2-.3-2.9z" style="fill:#fff" id="path32471"/></g></g><style id="style30964">.st1{fill:#02549f}</style></svg>