<svg width="200mm" height="200mm" viewBox="0 0 200 200" xml:space="preserve" xmlns="http://www.w3.org/2000/svg"><path style="fill:#fff;stroke:#989cf5;stroke-width:2.7;stroke-linecap:round;stroke-linejoin:round;stroke-dasharray:none" d="M98.16 6.52a17.472 17.136 0 0 0-17.47 17.135A17.472 17.136 0 0 0 98.16 40.79a17.472 17.136 0 0 0 17.472-17.135A17.472 17.136 0 0 0 98.16 6.519ZM62.875 26.722a17.136 17.472 30 0 0-14.985 8.82 17.136 17.472 30 0 0 6.104 23.699 17.136 17.472 30 0 0 23.575-6.563 17.136 17.472 30 0 0-6.104-23.7 17.136 17.472 30 0 0-8.59-2.256Zm70.571 0a17.472 17.136 60 0 0-8.59 2.257 17.472 17.136 60 0 0-6.104 23.699 17.472 17.136 60 0 0 23.575 6.563 17.472 17.136 60 0 0 6.105-23.699 17.472 17.136 60 0 0-14.986-8.82zM62.584 67.636a17.472 17.136 60 0 0-8.59 2.256 17.472 17.136 60 0 0-6.104 23.699 17.472 17.136 60 0 0 23.575 6.563 17.472 17.136 60 0 0 6.104-23.699 17.472 17.136 60 0 0-14.985-8.82zm71.153 0a17.136 17.472 30 0 0-14.985 8.82 17.136 17.472 30 0 0 6.104 23.698 17.136 17.472 30 0 0 23.576-6.563 17.136 17.472 30 0 0-6.105-23.699 17.136 17.472 30 0 0-8.59-2.256zM98.16 88.344a17.472 17.136 0 0 0-17.47 17.135 17.472 17.136 0 0 0 17.47 17.136 17.472 17.136 0 0 0 17.472-17.136A17.472 17.136 0 0 0 98.16 88.344z"/><circle style="fill:#fff;stroke:#989cf5;stroke-width:2.7;stroke-linecap:round;stroke-linejoin:round;stroke-dasharray:none" cx="98.161" cy="65.911" r="28.895"/><path style="fill:#fff;stroke:#989cf5;stroke-width:2.7;stroke-linecap:round;stroke-linejoin:round;stroke-dasharray:none" d="m33.354 149.301 27.024.04c7.328.124 11.644.183 14.926-1.99 8.539-9.968 14.814-23.625 21.997-36.002"/><path style="fill:#fff;stroke:#989cf5;stroke-width:2.7;stroke-linecap:round;stroke-linejoin:round;stroke-dasharray:none" d="m97.604 110.744-62.946-.908-15.893 24.608c-7.633 13.937 5.026 15.542 14.9 14.819l-.069 34.414c.907 3.262-.184 7.19 7.566 8.17l56.27.236z"/><path style="fill:#fff;stroke:#989cf5;stroke-width:2.7;stroke-linecap:round;stroke-linejoin:round;stroke-dasharray:none" d="m33.354 149.301 27.024.04c7.328.124 11.644.183 14.926-1.99 8.539-9.968 14.814-23.625 21.997-36.002M162.5 149.301l-27.025.04c-7.329.124-11.645.183-14.927-1.99-8.538-9.968-14.814-23.625-21.996-36.002"/><path style="fill:#fff;stroke:#989cf5;stroke-width:2.7;stroke-linecap:round;stroke-linejoin:round;stroke-dasharray:none" d="m98.25 110.744 62.945-.908 15.892 24.608c7.634 13.937-5.025 15.542-14.899 14.819l.069 34.414c-.907 3.262.184 7.19-7.566 8.17l-56.672.236z"/><path style="fill:#fff;stroke:#989cf5;stroke-width:2.7;stroke-linecap:round;stroke-linejoin:round;stroke-dasharray:none" d="m162.5 149.301-27.025.04c-7.329.124-11.645.183-14.927-1.99-8.538-9.968-14.814-23.625-21.996-36.002"/></svg>