<svg width="200mm" height="200mm" viewBox="0 0 200 200" xml:space="preserve" xmlns="http://www.w3.org/2000/svg"><circle style="fill:none;stroke:#989cf5;stroke-width:2.7;stroke-linecap:round;stroke-linejoin:round;stroke-dasharray:none" cx="99.92" cy="99.108" r="89.711"/><path style="fill:none;stroke:#989cf5;stroke-width:2.7;stroke-linecap:round;stroke-linejoin:round;stroke-dasharray:none" d="M54.193 125.708C38.507 77.363 83.23 47.41 111.505 57.495"/><circle style="fill:#989cf5;stroke:none;stroke-width:2.7;stroke-linecap:round;stroke-linejoin:round;stroke-dasharray:none" cx="134.637" cy="80.962" r="4.498"/><circle style="fill:#989cf5;stroke:none;stroke-width:2.7;stroke-linecap:round;stroke-linejoin:round;stroke-dasharray:none" cx="140.934" cy="97.754" r="4.498"/><circle style="fill:#989cf5;stroke:none;stroke-width:2.7;stroke-linecap:round;stroke-linejoin:round;stroke-dasharray:none" cx="139.734" cy="117.245" r="4.498"/><path style="fill:none;stroke:#989cf5;stroke-width:2.7;stroke-linecap:round;stroke-linejoin:round;stroke-dasharray:none" d="m119.644 64.47-18.115 26.348a12.894 12.894 0 0 0-2.575-.26 12.894 12.894 0 0 0-12.895 12.894 12.894 12.894 0 0 0 12.895 12.893 12.894 12.894 0 0 0 12.893-12.893 12.894 12.894 0 0 0-3.168-8.466l14.863-28.717Zm-20.69 32.984a5.997 5.997 0 0 1 5.997 5.998 5.997 5.997 0 0 1-5.997 5.997 5.997 5.997 0 0 1-5.998-5.997 5.997 5.997 0 0 1 5.998-5.998z"/></svg>