<svg width="200mm" height="200mm" viewBox="0 0 200 200" xml:space="preserve" xmlns="http://www.w3.org/2000/svg"><path style="fill:#fff;stroke:#000;stroke-width:2.7;stroke-linecap:round;stroke-linejoin:round;stroke-dasharray:none" d="M-62.831 75.125v15.053a46.27 46.27 0 0 0-14.326 5.726l-10.485-10.54-14.525 14.45 10.307 10.36a46.27 46.27 0 0 0-6.276 14.65l-14.441-.018-.026 20.488 14.323.02a46.27 46.27 0 0 0 6.15 14.87l-10.13 10.128 14.488 14.488 10.185-10.185a46.27 46.27 0 0 0 14.756 5.997v14.518h20.488v-14.734a46.27 46.27 0 0 0 14.279-6.092l10.532 10.588 14.525-14.45-10.71-10.766a46.27 46.27 0 0 0 5.783-14.247l15.337.02.026-20.489-15.461-.02a46.27 46.27 0 0 0-5.847-14.033l10.964-10.964-14.488-14.488-10.908 10.909a46.27 46.27 0 0 0-14.032-5.955V75.125Zm9.731 42.684a17.586 17.586 0 0 1 17.586 17.586A17.586 17.586 0 0 1-53.1 152.98a17.586 17.586 0 0 1-17.586-17.586A17.586 17.586 0 0 1-53.1 117.809z" transform="translate(185.838 -8.371)"/><g style="stroke-width:2.7;stroke-dasharray:none" transform="translate(185.838 -8.371)"><ellipse style="fill:#fff;stroke:#000;stroke-width:2.7;stroke-linecap:round;stroke-linejoin:round;stroke-dasharray:none" cx="-122.187" cy="49.486" rx="52.788" ry="17.547"/><path style="fill:#fff;stroke:#000;stroke-width:2.7;stroke-linecap:round;stroke-linejoin:round;stroke-dasharray:none" d="m-174.68 63.09.393 16.561c17.953 13.345 42.012 16.156 66.245 13.801l16.886-13.101c5.37-4.716 5.51-5.084 10.476-.472l6.55 6.081 3.154-1.577-.395-20.899c-34.262 15.586-68.633 14.278-103.31-.394ZM-174.68 89.903l.393 17.35c12.456 10.726 30.937 14.755 52.838 14.984 5.337-8.172 9.788-6.586 18.927-6.309v-2.366l-9.463-11.435c-20.337 1.49-37.595.596-62.696-12.224zM-174.682 120.562l.395 14.688c15.866 13.02 33.883 12.849 53.627 14.983-2.61-4.01-2.892-11.127-2.366-19.32z"/></g></svg>