<?xml version="1.0" encoding="UTF-8" standalone="no"?>
<!-- Created with Inkscape (http://www.inkscape.org/) -->

<svg
   width="200mm"
   height="200mm"
   viewBox="0 0 200 200"
   version="1.1"
   id="svg5"
   inkscape:version="1.2.1 (9c6d41e4, 2022-07-14)"
   sodipodi:docname="design.svg"
   xml:space="preserve"
   xmlns:inkscape="http://www.inkscape.org/namespaces/inkscape"
   xmlns:sodipodi="http://sodipodi.sourceforge.net/DTD/sodipodi-0.dtd"
   xmlns="http://www.w3.org/2000/svg"
   xmlns:svg="http://www.w3.org/2000/svg"><sodipodi:namedview
     id="namedview7"
     pagecolor="#ffffff"
     bordercolor="#000000"
     borderopacity="0.25"
     inkscape:showpageshadow="2"
     inkscape:pageopacity="0.0"
     inkscape:pagecheckerboard="0"
     inkscape:deskcolor="#d1d1d1"
     inkscape:document-units="mm"
     showgrid="false"
     inkscape:zoom="0.391382"
     inkscape:cx="371.75956"
     inkscape:cy="430.52568"
     inkscape:window-width="1444"
     inkscape:window-height="653"
     inkscape:window-x="120"
     inkscape:window-y="85"
     inkscape:window-maximized="0"
     inkscape:current-layer="layer1"
     showguides="true" /><defs
     id="defs2" /><g
     inkscape:label="Layer 1"
     inkscape:groupmode="layer"
     id="layer1"><g
       id="g15551"><path
         id="path14442"
         style="fill:#ffffff;stroke:#000000;stroke-width:2.7;stroke-linecap:round;stroke-linejoin:round;stroke-dasharray:none"
         d="M 98.160458,6.5192153 A 17.471534,17.135543 0 0 0 80.689299,23.654536 17.471534,17.135543 0 0 0 98.160458,40.790434 17.471534,17.135543 0 0 0 115.63219,23.654536 17.471534,17.135543 0 0 0 98.160458,6.5192153 Z M 62.875353,26.72341 A 17.135543,17.471534 30 0 0 47.889982,35.543238 17.135543,17.471534 30 0 0 53.994147,59.241896 17.135543,17.471534 30 0 0 77.56947,52.678559 17.135543,17.471534 30 0 0 71.465306,28.9799 17.135543,17.471534 30 0 0 62.875353,26.72341 Z m 70.570777,0 a 17.471534,17.135543 60 0 0 -8.59052,2.25649 17.471534,17.135543 60 0 0 -6.10358,23.698659 17.471534,17.135543 60 0 0 23.57532,6.563337 17.471534,17.135543 60 0 0 6.10415,-23.698658 17.471534,17.135543 60 0 0 -14.98537,-8.819828 z M 62.584099,67.635557 a 17.471534,17.135543 60 0 0 -8.589952,2.25649 17.471534,17.135543 60 0 0 -6.104165,23.698658 17.471534,17.135543 60 0 0 23.575324,6.563335 17.471534,17.135543 60 0 0 6.104164,-23.698655 17.471534,17.135543 60 0 0 -14.985371,-8.819828 z m 71.153301,0 a 17.135543,17.471534 30 0 0 -14.98537,8.819828 17.135543,17.471534 30 0 0 6.10358,23.698655 17.135543,17.471534 30 0 0 23.57589,-6.563335 17.135543,17.471534 30 0 0 -6.10415,-23.698658 17.135543,17.471534 30 0 0 -8.58995,-2.25649 z M 98.160458,88.343509 a 17.471534,17.135543 0 0 0 -17.471159,17.135321 17.471534,17.135543 0 0 0 17.471159,17.1359 17.471534,17.135543 0 0 0 17.471732,-17.1359 17.471534,17.135543 0 0 0 -17.471732,-17.135321 z" /><circle
         style="fill:#ffffff;stroke:#000000;stroke-width:2.7;stroke-linecap:round;stroke-linejoin:round;stroke-dasharray:none"
         id="path14543"
         cx="98.160751"
         cy="65.910934"
         r="28.895229" /><path
         style="fill:#ffffff;stroke:#000000;stroke-width:2.7;stroke-linecap:round;stroke-linejoin:round;stroke-dasharray:none"
         d="m 33.353511,149.30126 27.024473,0.0403 c 7.328467,0.12354 11.644367,0.18283 14.9262,-1.99095 8.53876,-9.96768 14.814192,-23.62504 21.996797,-36.00122"
         id="path14763"
         sodipodi:nodetypes="cccc" /><path
         style="fill:#ffffff;stroke:#000000;stroke-width:2.7;stroke-linecap:round;stroke-linejoin:round;stroke-dasharray:none"
         d="m 97.603604,110.74422 -62.945939,-0.90788 -15.892296,24.60743 c -7.633813,13.93692 5.025735,15.54246 14.899154,14.81905 l -0.0685,34.41395 c 0.906835,3.26197 -0.183912,7.18979 7.565616,8.17087 l 56.270561,0.23567 z"
         id="path14774"
         sodipodi:nodetypes="cccccccc" /><path
         style="fill:#ffffff;stroke:#000000;stroke-width:2.7;stroke-linecap:round;stroke-linejoin:round;stroke-dasharray:none"
         d="m 33.353511,149.30126 27.024473,0.0403 c 7.328467,0.12354 11.644367,0.18283 14.9262,-1.99095 8.53876,-9.96768 14.814192,-23.62504 21.996797,-36.00122"
         id="path14776"
         sodipodi:nodetypes="cccc" /><path
         style="fill:#ffffff;stroke:#000000;stroke-width:2.7;stroke-linecap:round;stroke-linejoin:round;stroke-dasharray:none"
         d="m 162.49918,149.30126 -27.02449,0.0403 c -7.32847,0.12354 -11.64438,0.18283 -14.92622,-1.99095 -8.53875,-9.96768 -14.81419,-23.62504 -21.996787,-36.00122"
         id="path14778"
         sodipodi:nodetypes="cccc" /><path
         style="fill:#ffffff;stroke:#000000;stroke-width:2.7;stroke-linecap:round;stroke-linejoin:round;stroke-dasharray:none"
         d="m 98.249059,110.74422 62.945961,-0.90788 15.89231,24.60743 c 7.63381,13.93692 -5.02574,15.54246 -14.89916,14.81905 l 0.0685,34.41395 c -0.90684,3.26197 0.18391,7.18979 -7.56563,8.17087 l -56.672286,0.23567 z"
         id="path14780"
         sodipodi:nodetypes="cccccccc" /><path
         style="fill:#ffffff;stroke:#000000;stroke-width:2.7;stroke-linecap:round;stroke-linejoin:round;stroke-dasharray:none"
         d="m 162.49918,149.30126 -27.02449,0.0403 c -7.32847,0.12354 -11.64438,0.18283 -14.92622,-1.99095 -8.53875,-9.96768 -14.81419,-23.62504 -21.996787,-36.00122"
         id="path14782"
         sodipodi:nodetypes="cccc" /></g></g></svg>
