<svg xmlns="http://www.w3.org/2000/svg" xml:space="preserve" width="94mm" height="82mm" viewBox="0 0 94 82"><g style="stroke:none"><g style="fill:#505275;stroke:none;stroke-width:.529167;stroke-dasharray:none" transform="translate(-3.704 -9.525)"><path d="m11.455 52.333-5.091-3.16-4.796 3.592L3 46.946l-4.898-3.45 5.976-.436 1.769-5.726 2.26 5.55 5.993-.088-4.58 3.866z" style="fill:#505275;stroke:none;stroke-width:.529167;stroke-linecap:round;stroke-linejoin:round;stroke-dasharray:none" transform="rotate(1.31 -379.844 351.327)"/><path d="m11.455 52.333-5.091-3.16-4.796 3.592L3 46.946l-4.898-3.45 5.976-.436 1.769-5.726 2.26 5.55 5.993-.088-4.58 3.866z" style="fill:#505275;stroke:none;stroke-width:.440526;stroke-linecap:round;stroke-linejoin:round;stroke-dasharray:none" transform="matrix(1.21633 .02712 -.02783 1.18566 19.207 -20.306)"/><path d="m11.455 52.333-5.091-3.16-4.796 3.592L3 46.946l-4.898-3.45 5.976-.436 1.769-5.726 2.26 5.55 5.993-.088-4.58 3.866z" style="fill:#505275;stroke:none;stroke-width:.341732;stroke-linecap:round;stroke-linejoin:round;stroke-dasharray:none" transform="matrix(1.55873 .03517 -.03566 1.5375 42.802 -46.946)"/><path d="m11.455 52.333-5.091-3.16-4.796 3.592L3 46.946l-4.898-3.45 5.976-.436 1.769-5.726 2.26 5.55 5.993-.088-4.58 3.866z" style="fill:#505275;stroke:none;stroke-width:.440526;stroke-linecap:round;stroke-linejoin:round;stroke-dasharray:none" transform="matrix(1.21633 .02712 -.02783 1.18566 69.478 -20.306)"/><path d="m11.455 52.333-5.091-3.16-4.796 3.592L3 46.946l-4.898-3.45 5.976-.436 1.769-5.726 2.26 5.55 5.993-.088-4.58 3.866z" style="fill:#505275;stroke:none;stroke-width:.529167;stroke-linecap:round;stroke-linejoin:round;stroke-dasharray:none" transform="rotate(1.31 -342.009 3659.522)"/><ellipse cx="50.947" cy="61.369" rx="10.279" ry="10.207" style="fill:#505275;stroke:none;stroke-width:.529167;stroke-linecap:round;stroke-linejoin:round;stroke-dasharray:none"/><path d="M42.3 73.528c6.306 3.733 11.946 3.1 17.22.055 4.226 1.09 8.384 2.305 10.298 7.586-8.861 9.234-23.896 14.626-37.705.055 1.392-5.175 6.326-6.814 10.188-7.696z" style="opacity:1;fill:#505275;stroke:none;stroke-width:.529167;stroke-linecap:round;stroke-linejoin:round;stroke-dasharray:none"/><path d="M50.883 39.522a26.31 26.255 0 0 0-26.31 26.254 26.31 26.255 0 0 0 3.691 13.393l2.283-4.406a22.244 22.197 0 0 1-1.908-8.987A22.244 22.197 0 0 1 50.883 43.58a22.244 22.197 0 0 1 22.243 22.197 22.244 22.197 0 0 1-1.9 8.974l2.655 3.752a26.31 26.255 0 0 0 3.312-12.726 26.31 26.255 0 0 0-26.31-26.254Z" style="opacity:1;fill:#505275;stroke:none;stroke-width:.529167;stroke-linecap:round;stroke-linejoin:round;stroke-dasharray:none"/></g></g></svg>