<svg width="194mm" height="210mm" viewBox="0 0 194 210" xml:space="preserve" xmlns="http://www.w3.org/2000/svg"><path style="fill:#025;stroke:none;stroke-width:3.00625;stroke-linecap:round;stroke-linejoin:round;stroke-dasharray:none" d="M-238.014 53.399h194.853v209.218h-194.853z"/><path style="fill:none;stroke:#80e5ff;stroke-width:2.5;stroke-linecap:round;stroke-linejoin:round;stroke-dasharray:none" d="M-151.873 124.513c-5.423-11.701-18-13.389-27.943-18.748-18.136-9.86-29.559-23.391-33.028-45.401-9.962 17.595 2.497 35.17 16.226 44.857 5.181 3.611 11.077 6.553 17.328 9.353 9.13 4.948 25.74 8.12 26.82 19.472-6.143-5.11-14.735-7.528-28.373-11.601-6.005-1.959-11.462-4.123-16.484-6.742-15.601-7.696-23.246-18.681-23.192-34.286-2.485 5.011-3.453 8.686-3.578 11.918 1.77 21.288 17.658 27.822 36.872 33.362l13.505 2.78-16.88.795c-14.168-.862-22.075-7.51-32.572-16.285 3.31 14.522 12.818 20.64 23.52 22.257 8.477 1.236 18.238-.411 25.207-2.823 7.05-2.058 9.67-2.304 15.82.625-8.613 2.476-16.848 7.625-25.087 8.915-9.941 1.556-18.9.696-29.132-7.922 9.758 13.176 25.277 19.604 39.086 17.048 10.626-1.766 15.462-7.483 21.267-17.855-6.28 5.776-20.203 13.623-30.413 14.155M-120.502 128.284c7.014-3.281 15.473-5.282 23.092-9.495 18.133-10.113 29.318-26.112 32.787-48.687 7.355 41.764-23.583 56.202-52.326 64.484m.902 5.741c5.071-2.204 11.369-4.08 19.429-6.55 22.658-8.428 39.745-19.111 39.669-42.082 7.117 12.99.222 29.226-9.705 36.418-6.414 4.513-14.639 7.38-23.584 10.026l-13.503 2.852c13.21 1.097 24.518 1.482 35.297-4.944 4.763-2.888 9.163-6.67 14.147-10.945-14.113 33.719-39.744 22.351-60.365 18.537m-.489 3.226c6.314 3.4 12.945 7.327 21.4 7.955 10.294.765 19.477 1.606 29.128-8.125-9.756 13.514-25.272 20.107-39.08 17.486-6.704-1.143-11.033-3.247-14.774-7.317m1.507-5.967c2.995 4.192 12.738 9.641 21.044 8.638"/><path style="fill:none;stroke:#80e5ff;stroke-width:2.5;stroke-linecap:round;stroke-linejoin:round;stroke-dasharray:none" d="M-138.641 96.448c-15.051.488-23.344-.712-21.811-16.842 7.044 8.683 12.006 11.834 22.19 11.046 2.047-.29 3.618-.823 5.332-1.455 7.332-2.684 13.439-.3 17.48 6.975 7.068 1.239 9.654 1.89 11.32 9.11-3.63-2.742-6.208-3.062-9.473-2.595-6.709.622-10.884 4.135-12.409 9.152-2.697 7.124.174 14.458.779 18.285.462 4.418.69 8.91-.063 12.656-3.566 20.583-18.78 31.813-37.641 38.152-33.871 11.341-49.214 36.214-30.922 62.948"/><path style="fill:none;stroke:#80e5ff;stroke-width:2.5;stroke-linecap:round;stroke-linejoin:round;stroke-dasharray:none" d="M-141.497 90.73c-2.619-.032-4.904-.808-6.176-1.485-6.621-3.53-6.577-10.894-5.47-18.202 1.885 11.506 15.023 16.087 26.738 17.1M-230.6 199.102c3.086-27.776 23.156-35.26 48.516-39.83 15.611-1.966 24.001-6.8 29.3-12.699 11.162-12.424-1.191-35.464 12.591-48.473.457-.431 1.068-1.226 1.584-1.635 3.862-2.138 15.825-3.89 17.04 3.518-6.454-2.34-14.089 11.311-14.81 19.874.007 9.836.473 18.421-2.418 27.341-5.445 12.45-17.252 18.094-29.48 22.11-14.192 2.958-25.743 7.311-34.377 15.115-28.532 23.734-15.85 59.286 9.526 70.524"/><path style="fill:none;stroke:#80e5ff;stroke-width:2.5;stroke-linecap:round;stroke-linejoin:round;stroke-dasharray:none" d="M-129.779 99.012c-13.678 4.42-12.088 21.71-11.834 32.84.245 10.273-4.033 18.593-13.312 25.446-12.901 8.164-30.419 8.4-44.631 13.989-18.65 8.13-26.944 21.23-27.145 42.799"/><path style="fill:none;stroke:#80e5ff;stroke-width:2.5;stroke-linecap:round;stroke-linejoin:round;stroke-dasharray:none" d="M-131.955 122.003c7.18 33.344-11.942 46.941-42.863 56.288-35.962 12.004-48.81 50.4-16.721 71.83"/><path style="fill:none;stroke:#80e5ff;stroke-width:2.5;stroke-linecap:round;stroke-linejoin:round;stroke-dasharray:none" d="M-119.943 134.72c1.817 30.204-18.385 42.725-44.983 53.933-22.566 10.707-32.022 22.428-26.378 48.28"/><path style="fill:#f60;stroke:none;stroke-width:2.78739;stroke-linecap:round;stroke-linejoin:round;stroke-dasharray:none" d="M230.63-38.331h173.145v202.416H230.63z"/><g style="stroke-width:3.42902;stroke-dasharray:none;stroke:#ffe680"><g style="stroke-width:1.42012;stroke-dasharray:none;stroke:#ffe680"><path style="fill:none;stroke:#ffe680;stroke-width:1.42012;stroke-linecap:round;stroke-linejoin:round;stroke-dasharray:none" d="M143.936 61.876c-9.021 1.416-22.321-.554-21.812-16.841 7.045 8.683 12.007 11.834 22.19 11.046 2.047-.29 3.618-.823 5.333-1.455 7.332-2.684 13.438-.301 17.48 6.974 7.068 1.24 9.654 1.89 11.32 9.111-3.63-2.742-6.208-3.062-9.474-2.595-6.708.622-10.883 4.135-12.408 9.152-2.698 7.124.174 14.457.779 18.284" transform="matrix(2.66425 0 0 2.13545 -83.29 -106.802)"/><path style="fill:none;stroke:#ffe680;stroke-width:1.42012;stroke-linecap:round;stroke-linejoin:round;stroke-dasharray:none" d="M123.024 95.347c6.506-7.543 14.295-18.713 20.43-32.822.251-.576-.003-.223.514-.631 3.861-2.138 15.824-3.89 17.04 3.517-13.123 3.391-13.188 17.706-12.026 29.87M140.696 56.159c-2.619-.032-4.904-.808-6.176-1.486-6.621-3.529-6.577-10.893-5.47-18.202 1.882 11.507 12.656 16.088 26.738 17.102" transform="matrix(2.66425 0 0 2.13545 -83.29 -106.802)"/></g><path style="fill:none;stroke:#ffe680;stroke-width:3.42902;stroke-linecap:round;stroke-linejoin:round;stroke-dasharray:none" d="M143.383 58.358c-20.907 9.257-34.64 50.312-39.285 74.9" transform="matrix(1.10339 0 0 .88439 163.412 -20.658)"/></g><text xml:space="preserve" style="font-weight:700;font-size:81.3673px;font-family:'Arial Narrow';-inkscape-font-specification:'Arial Narrow Bold';fill:#ffe680;fill-opacity:1;stroke:#f60;stroke-width:4;stroke-linecap:round;stroke-linejoin:round;stroke-dasharray:none;stroke-opacity:1" x="199.62" y="184.502" transform="scale(1.16535 .85811)"><tspan style="fill:#ffe680;fill-opacity:1;stroke:#f60;stroke-width:4;stroke-dasharray:none;stroke-opacity:1" x="199.62" y="184.502">GDS</tspan></text></svg>