<?xml version="1.0" encoding="UTF-8" standalone="no"?>
<!-- Created with Inkscape (http://www.inkscape.org/) -->

<svg
   width="194mm"
   height="210mm"
   viewBox="0 0 194 210"
   version="1.1"
   id="svg13300"
   inkscape:version="1.2.1 (9c6d41e4, 2022-07-14)"
   sodipodi:docname="gds_consulting.svg"
   xml:space="preserve"
   xmlns:inkscape="http://www.inkscape.org/namespaces/inkscape"
   xmlns:sodipodi="http://sodipodi.sourceforge.net/DTD/sodipodi-0.dtd"
   xmlns="http://www.w3.org/2000/svg"
   xmlns:svg="http://www.w3.org/2000/svg"><sodipodi:namedview
     id="namedview13302"
     pagecolor="#ffffff"
     bordercolor="#000000"
     borderopacity="0.25"
     inkscape:showpageshadow="2"
     inkscape:pageopacity="0.0"
     inkscape:pagecheckerboard="0"
     inkscape:deskcolor="#d1d1d1"
     inkscape:document-units="mm"
     showgrid="false"
     inkscape:zoom="0.40952909"
     inkscape:cx="454.18019"
     inkscape:cy="323.54234"
     inkscape:window-width="1661"
     inkscape:window-height="989"
     inkscape:window-x="39"
     inkscape:window-y="38"
     inkscape:window-maximized="0"
     inkscape:current-layer="layer1"
     showguides="true"><sodipodi:guide
       position="61.704273,86.120403"
       orientation="1,0"
       id="guide16904"
       inkscape:locked="false" /><sodipodi:guide
       position="235.51244,55.503771"
       orientation="1,0"
       id="guide16906"
       inkscape:locked="false" /><sodipodi:guide
       position="135.03257,75.509731"
       orientation="0,-1"
       id="guide24213"
       inkscape:locked="false" /></sodipodi:namedview><defs
     id="defs13297" /><g
     inkscape:label="Layer 1"
     inkscape:groupmode="layer"
     id="layer1"><rect
       style="fill:#002255;stroke:none;stroke-width:3.00625;stroke-linecap:round;stroke-linejoin:round;stroke-dasharray:none"
       id="rect19823"
       width="194.85321"
       height="209.21811"
       x="-238.01396"
       y="53.399273" /><path
       style="fill:none;stroke:#80e5ff;stroke-width:2.5;stroke-linecap:round;stroke-linejoin:round;stroke-dasharray:none"
       d="m -151.87325,124.51259 c -5.42322,-11.70081 -17.99998,-13.38815 -27.94277,-18.74772 -18.13572,-9.859328 -29.55884,-23.39131 -33.02843,-45.401128 -9.96188,17.594902 2.49739,35.170696 16.22613,44.857258 5.18157,3.61098 11.07708,6.55261 17.3282,9.35265 9.13039,4.94852 25.74003,8.12112 26.82106,19.47189 -6.14408,-5.1104 -14.73597,-7.52741 -28.37394,-11.60071 -6.00482,-1.95836 -11.46227,-4.12324 -16.4837,-6.74155 -15.60174,-7.69585 -23.24591,-18.68132 -23.19254,-34.286634 -2.48467,5.011773 -3.45298,8.686016 -3.57744,11.91786 1.76875,21.288434 17.65809,27.822974 36.87205,33.362724 l 13.50502,2.78044 -16.88127,0.79441 c -14.16698,-0.86173 -22.07428,-7.50957 -32.57094,-16.28546 3.3102,14.5227 12.81732,20.63972 23.5205,22.25712 8.47583,1.23589 18.23764,-0.41122 25.2064,-2.82314 7.04989,-2.05751 9.669,-2.3037 15.81916,0.62494 -8.61215,2.47612 -16.84762,7.62521 -25.08611,8.91511 -9.94109,1.55647 -18.90018,0.69679 -29.13258,-7.92209 9.75818,13.17605 25.27723,19.60409 39.0867,17.04877 10.62582,-1.76674 15.46161,-7.48377 21.26673,-17.85565 -6.28027,5.77677 -20.20282,13.62327 -30.4131,14.15541"
       id="path14988"
       sodipodi:nodetypes="cccccccccccccccccscccc" /><path
       style="fill:none;stroke:#80e5ff;stroke-width:2.5;stroke-linecap:round;stroke-linejoin:round;stroke-dasharray:none"
       d="m -120.50171,128.28404 c 7.01385,-3.28144 15.47309,-5.28216 23.091989,-9.49531 18.13245,-10.11257 29.31799,-26.111752 32.78695,-48.686915 7.35457,41.763935 -23.58359,56.201965 -52.326569,64.484065 m 0.90275,5.7411 c 5.07094,-2.20386 11.36814,-4.07988 19.428149,-6.54947 22.65882,-8.42858 39.74566,-19.11156 39.66908,-42.082025 7.11735,12.989855 0.22271,29.225895 -9.70447,36.417435 -6.41405,4.51326 -14.63871,7.38036 -23.58413,10.02622 l -13.502569,2.85187 c 13.209979,1.097 24.517189,1.48218 35.296049,-4.94385 4.76357,-2.88828 9.16348,-6.67058 14.14722,-10.94511 -14.11305,33.71869 -39.74377,22.35133 -60.364479,18.53711 m -0.48885,3.22592 c 6.31322,3.40054 12.94433,7.32683 21.400509,7.95523 10.29353,0.76494 19.4757,1.60557 29.12731,-8.12558 -9.75641,13.51449 -25.27266,20.10765 -39.079629,17.48669 -6.70503,-1.14368 -11.03384,-3.24705 -14.77416,-7.31756 m 1.50666,-5.96693 c 2.99441,4.19224 12.73828,9.64127 21.044349,8.6384"
       id="path15063"
       sodipodi:nodetypes="ccccccccccccccsccccc" /><path
       style="fill:none;stroke:#80e5ff;stroke-width:2.5;stroke-linecap:round;stroke-linejoin:round;stroke-dasharray:none"
       d="m -138.64099,96.447717 c -15.05124,0.488234 -23.34385,-0.711985 -21.81121,-16.841565 7.04469,8.683346 12.00662,11.833673 22.19003,11.045612 2.04667,-0.289928 3.61789,-0.822349 5.33238,-1.454882 7.33219,-2.684071 13.43851,-0.300779 17.48046,6.974745 7.06745,1.239378 9.65345,1.89038 11.31974,9.111013 -3.63033,-2.7428 -6.20798,-3.06245 -9.47383,-2.59539 -6.70821,0.6216 -10.88319,4.1346 -12.40822,9.15171 -2.69785,7.12384 0.17391,14.45755 0.77859,18.28458 0.46167,4.41817 0.68985,8.90959 -0.0628,12.65633 -3.56631,20.58322 -18.78069,31.81284 -37.64114,38.15177 -33.87102,11.34137 -49.21436,36.21399 -30.92222,62.9488"
       id="path16592"
       sodipodi:nodetypes="cccccccccccc" /><path
       style="fill:none;stroke:#80e5ff;stroke-width:2.5;stroke-linecap:round;stroke-linejoin:round;stroke-dasharray:none"
       d="m -141.49724,90.730138 c -2.61872,-0.03167 -4.90375,-0.8077 -6.17581,-1.485631 -6.62138,-3.528786 -6.57673,-10.893256 -5.47075,-18.20183 1.88548,11.506765 15.0238,16.087338 26.73894,17.101164"
       id="path16618"
       sodipodi:nodetypes="cscc" /><path
       style="fill:none;stroke:#80e5ff;stroke-width:2.5;stroke-linecap:round;stroke-linejoin:round;stroke-dasharray:none"
       d="m -230.59981,199.10157 c 3.08551,-27.77511 23.15594,-35.25937 48.51624,-39.82902 15.61102,-1.96629 24.00091,-6.80041 29.29984,-12.69907 11.1615,-12.42474 -1.19152,-35.4644 12.59112,-48.473359 0.45705,-0.431399 1.06775,-1.226465 1.5841,-1.63505 3.86127,-2.137593 15.8242,-3.889811 17.03961,3.517495 -6.45384,-2.339334 -14.08879,11.311924 -14.80993,19.874794 0.007,9.83592 0.47271,18.42063 -2.41797,27.34107 -5.44491,12.44967 -17.25264,18.09339 -29.47999,22.10878 -14.19213,2.95914 -25.74275,7.31227 -34.37679,15.11585 -28.53249,23.7343 -15.8509,59.28594 9.52559,70.52362"
       id="path16674"
       sodipodi:nodetypes="ccssccccccc" /><path
       style="fill:none;stroke:#80e5ff;stroke-width:2.5;stroke-linecap:round;stroke-linejoin:round;stroke-dasharray:none"
       d="m -129.77887,99.011932 c -13.67812,4.420898 -12.08776,21.710858 -11.83388,32.839358 0.24444,10.27379 -4.03284,18.59364 -13.31252,25.44701 -12.90113,8.16342 -30.41824,8.40048 -44.63071,13.98873 -18.64909,8.13017 -26.94389,21.23047 -27.1448,42.79885"
       id="path16716"
       sodipodi:nodetypes="ccccc" /><path
       style="fill:none;stroke:#80e5ff;stroke-width:2.5;stroke-linecap:round;stroke-linejoin:round;stroke-dasharray:none"
       d="m -131.95458,122.00308 c 7.17899,33.34442 -11.94235,46.94089 -42.86328,56.28748 -35.96171,12.00411 -48.8092,50.40017 -16.72138,71.83131"
       id="path16740"
       sodipodi:nodetypes="ccc" /><path
       style="fill:none;stroke:#80e5ff;stroke-width:2.5;stroke-linecap:round;stroke-linejoin:round;stroke-dasharray:none"
       d="m -119.94344,134.72075 c 1.8175,30.20356 -18.38427,42.72404 -44.98289,53.93236 -22.56579,10.70681 -32.022,22.42758 -26.3774,48.28006"
       id="path16754"
       sodipodi:nodetypes="ccc" /><rect
       style="fill:#ff6600;stroke:none;stroke-width:2.78739;stroke-linecap:round;stroke-linejoin:round;stroke-dasharray:none"
       id="rect23803"
       width="173.14508"
       height="202.41635"
       x="230.6301"
       y="-38.330891" /><g
       id="g24286"
       transform="matrix(1.103387,0,0,0.88438678,163.41221,-20.658263)"
       style="stroke-width:3.42902;stroke-dasharray:none;stroke:#ffe680"><g
         id="g23920"
         transform="matrix(2.4146084,0,0,2.4146084,-223.58699,-97.405466)"
         style="stroke-width:1.42012;stroke-dasharray:none;stroke:#ffe680"><path
           style="fill:none;stroke:#ffe680;stroke-width:1.42012;stroke-linecap:round;stroke-linejoin:round;stroke-dasharray:none"
           d="m 143.93571,61.876457 c -9.02107,1.415954 -22.32099,-0.554621 -21.81122,-16.841565 7.04469,8.683346 12.00662,11.833673 22.19003,11.045612 2.04667,-0.289928 3.61789,-0.822349 5.33238,-1.454882 7.33219,-2.684071 13.43851,-0.300779 17.48046,6.974745 7.06745,1.239378 9.65345,1.89038 11.31974,9.111009 -3.63033,-2.742793 -6.20798,-3.06245 -9.47383,-2.59539 -6.70821,0.621607 -10.88319,4.134602 -12.40822,9.151714 -2.69785,7.123839 0.17391,14.457549 0.77859,18.28458"
           id="path23809"
           sodipodi:nodetypes="ccccccccc" /><path
           style="fill:none;stroke:#ffe680;stroke-width:1.42012;stroke-linecap:round;stroke-linejoin:round;stroke-dasharray:none"
           d="m 123.02353,95.346626 c 6.50647,-7.542951 14.29546,-18.712248 20.43081,-32.821138 0.25063,-0.576356 -0.003,-0.223092 0.51384,-0.631677 3.86127,-2.137593 15.8242,-3.889811 17.03961,3.517495 -13.12266,3.390971 -13.18791,17.705202 -12.0254,29.869294"
           id="path23813"
           sodipodi:nodetypes="csccc" /><path
           style="fill:none;stroke:#ffe680;stroke-width:1.42012;stroke-linecap:round;stroke-linejoin:round;stroke-dasharray:none"
           d="m 140.69599,56.158878 c -2.61872,-0.03167 -4.90375,-0.8077 -6.17581,-1.485631 -6.62139,-3.528786 -6.57674,-10.893256 -5.47075,-18.20183 1.88239,11.506765 12.65655,16.087338 26.73894,17.101164"
           id="path23915"
           sodipodi:nodetypes="cscc" /></g><path
         style="fill:none;stroke:#ffe680;stroke-width:3.42902;stroke-linecap:round;stroke-linejoin:round;stroke-dasharray:none"
         d="m 143.3833,58.357899 c -20.90759,9.257448 -34.64053,50.312131 -39.28553,74.899811"
         id="path23955"
         sodipodi:nodetypes="cc" /></g><text
       xml:space="preserve"
       style="font-weight:bold;font-size:81.3673px;font-family:'Arial Narrow';-inkscape-font-specification:'Arial Narrow Bold';fill:#ffe680;fill-opacity:1;stroke:#ff6600;stroke-width:4;stroke-linecap:round;stroke-linejoin:round;stroke-dasharray:none;stroke-opacity:1"
       x="199.62042"
       y="184.5025"
       id="text24503"
       transform="scale(1.1653494,0.85811174)"><tspan
         sodipodi:role="line"
         id="tspan24501"
         style="fill:#ffe680;fill-opacity:1;stroke:#ff6600;stroke-width:4;stroke-dasharray:none;stroke-opacity:1"
         x="199.62042"
         y="184.5025">GDS</tspan></text></g></svg>
