<?xml version="1.0" encoding="UTF-8" standalone="no"?>
<!-- Created with Inkscape (http://www.inkscape.org/) -->

<svg
   width="66mm"
   height="74mm"
   viewBox="0 0 66 74"
   version="1.1"
   id="svg5"
   xml:space="preserve"
   inkscape:version="1.2.1 (9c6d41e4, 2022-07-14)"
   sodipodi:docname="logo.svg"
   xmlns:inkscape="http://www.inkscape.org/namespaces/inkscape"
   xmlns:sodipodi="http://sodipodi.sourceforge.net/DTD/sodipodi-0.dtd"
   xmlns="http://www.w3.org/2000/svg"
   xmlns:svg="http://www.w3.org/2000/svg"><sodipodi:namedview
     id="namedview7"
     pagecolor="#ffffff"
     bordercolor="#000000"
     borderopacity="0.25"
     inkscape:showpageshadow="2"
     inkscape:pageopacity="0.0"
     inkscape:pagecheckerboard="0"
     inkscape:deskcolor="#d1d1d1"
     inkscape:document-units="mm"
     showgrid="false"
     inkscape:zoom="1.9662753"
     inkscape:cx="88.746474"
     inkscape:cy="79.337822"
     inkscape:window-width="1728"
     inkscape:window-height="1080"
     inkscape:window-x="2560"
     inkscape:window-y="243"
     inkscape:window-maximized="0"
     inkscape:current-layer="layer1"
     showguides="true" /><defs
     id="defs2" /><g
     inkscape:label="Layer 1"
     inkscape:groupmode="layer"
     id="layer1"><text
       xml:space="preserve"
       style="font-weight:bold;font-size:10.5911px;font-family:'Hiragino Mincho ProN';-inkscape-font-specification:'Hiragino Mincho ProN Bold';text-align:center;text-anchor:middle;opacity:1;fill:#6e81a5;fill-opacity:1;stroke:none;stroke-width:1.78634;stroke-linecap:round;stroke-linejoin:miter;stroke-dasharray:none"
       x="32.775192"
       y="71.69664"
       id="text1272"><tspan
         sodipodi:role="line"
         id="tspan1270"
         style="font-style:normal;font-variant:normal;font-weight:bold;font-stretch:normal;font-family:'DIN Condensed';-inkscape-font-specification:'DIN Condensed,  Bold';fill:#6e81a5;fill-opacity:1;stroke:none;stroke-width:1.78634"
         x="32.775192"
         y="71.69664">GDS CONSULTING</tspan></text><rect
       style="fill:#6e81a5;fill-opacity:1;stroke:none;stroke-width:1.004;stroke-linecap:round;stroke-linejoin:miter;stroke-dasharray:none"
       id="rect1781"
       width="44.769371"
       height="56.846394"
       x="10.372304"
       y="2.3880978" /><path
       style="fill:none;fill-opacity:1;stroke:#000000;stroke-width:2.01;stroke-linecap:round;stroke-linejoin:miter;stroke-dasharray:none;stroke-opacity:1"
       d="M 48.599864,29.190409 V 15.049891 c -2.90696,1.908096 -4.00537,2.587418 -8.900648,0.948627 -3.40918,-0.985851 -6.249302,-1.267055 -8.652461,-0.982751 -1.269928,0.150238 -2.417835,0.458392 -3.463225,0.903929 -8.724317,3.724509 -12.221121,11.132735 -11.880042,18.376623 0.346611,7.361288 4.656517,14.552867 11.471439,17.536541 2.742497,1.093528 4.985476,1.420836 7.218092,1.322538 3.052137,-0.03448 5.321016,-1.045813 7.966255,-1.518699 2.35159,-0.410478 4.2593,0.270493 6.12176,1.854015 l 0.0594,-14.794073 1.18828,0.712968 v -7.842642 l -18.774805,-0.118828 -0.05941,7.842641 0.772381,-0.712968 8.139703,0.118829 -0.05942,4.574873 c -7.322734,4.991044 -13.58525,-0.895807 -13.48696,-8.91209 0.0051,-0.536306 0.03389,-1.055713 0.08543,-1.557442 0.842962,-8.21202 7.705694,-11.687797 13.282705,-6.998167 l 0.05941,3.208352 4.456046,0.05942 2.25773,-0.772381 z"
       id="path7553"
       sodipodi:nodetypes="cccscscccccccccccccsccccc" /><path
       style="fill:#deeff8;fill-opacity:1;stroke:#a8bad9;stroke-width:1.0098;stroke-linecap:round;stroke-linejoin:miter;stroke-dasharray:none;stroke-opacity:1"
       d="M 48.599864,29.190409 V 15.049891 c -2.90696,1.908096 -4.00537,2.587418 -8.900648,0.948627 -3.40918,-0.985851 -6.249302,-1.267055 -8.652461,-0.982751 -1.269928,0.150238 -2.417835,0.458392 -3.463225,0.903929 -8.724317,3.724509 -12.221121,11.132735 -11.880042,18.376623 0.346611,7.361288 4.656517,14.552867 11.471439,17.536541 2.742497,1.093528 4.985476,1.420836 7.218092,1.322538 3.052137,-0.03448 5.321016,-1.045813 7.966255,-1.518699 2.35159,-0.410478 4.2593,0.270493 6.12176,1.854015 l 0.0594,-14.794073 1.18828,0.712968 v -7.842642 l -18.774805,-0.118828 -0.05941,7.842641 0.772381,-0.712968 8.139703,0.118829 -0.05942,4.574873 c -7.322734,4.991044 -13.58525,-0.895807 -13.48696,-8.91209 0.0051,-0.536306 0.03389,-1.055713 0.08543,-1.557442 0.842962,-8.21202 7.705694,-11.687797 13.282705,-6.998167 l 0.05941,3.208352 4.456046,0.05942 2.25773,-0.772381 z"
       id="path3313"
       sodipodi:nodetypes="cccscscccccccccccccsccccc" /><path
       id="path7564"
       style="opacity:0.0488889;fill:#000000;fill-opacity:1;stroke:#000000;stroke-width:1.0098;stroke-linecap:round;stroke-linejoin:miter;stroke-dasharray:none;stroke-opacity:1"
       d="m 39.8632,34.326073 c -2.386429,-0.0016 -5.231616,0.425478 -8.788611,1.564762 -0.05371,0.01819 -0.101074,0.03508 -0.154513,0.05323 l -0.02532,3.346566 0.772046,-0.712618 8.139555,0.118855 -0.05943,4.574398 c -6.335136,4.317915 -11.875561,0.493689 -13.191443,-5.80688 -3.817681,1.34664 -6.888897,2.409413 -9.693982,2.787426 1.752411,5.045571 5.374531,9.418815 10.313582,11.581206 2.742495,1.093526 4.985551,1.420697 7.218165,1.322399 3.052133,-0.03448 5.320685,-1.045884 7.965922,-1.51877 2.351587,-0.410477 4.259648,0.27063 6.122106,1.85415 l 0.05891,-14.793929 1.188558,0.712618 V 36.823595 C 46.942323,35.705699 44.138993,34.328882 39.8632,34.326073 Z" /><path
       style="opacity:1;fill:#a8bad9;fill-opacity:1;stroke:#000000;stroke-width:0.477812;stroke-linecap:square;stroke-linejoin:miter;stroke-dasharray:none;stroke-opacity:1"
       d="m 26.736002,7.3907341 c 3.343845,1.3978469 4.310584,0.9313219 6.800634,-1.259787 l -0.07092,6.2071299 c -3.160169,-0.118081 -6.895773,1.079328 -9.467398,2.725917 l -4.33791,-5.7499644 c 3.492335,0.9711914 4.364211,0.9505534 7.075594,-1.9232955 z"
       id="path8402"
       sodipodi:nodetypes="cccccc" /></g></svg>
