<?xml version="1.0" encoding="UTF-8" standalone="no"?>
<!-- Created with Inkscape (http://www.inkscape.org/) -->

<svg
   width="200mm"
   height="200mm"
   viewBox="0 0 200 200"
   version="1.1"
   id="svg5"
   inkscape:version="1.2.1 (9c6d41e4, 2022-07-14)"
   sodipodi:docname="optimisation.svg"
   xml:space="preserve"
   xmlns:inkscape="http://www.inkscape.org/namespaces/inkscape"
   xmlns:sodipodi="http://sodipodi.sourceforge.net/DTD/sodipodi-0.dtd"
   xmlns="http://www.w3.org/2000/svg"
   xmlns:svg="http://www.w3.org/2000/svg"><sodipodi:namedview
     id="namedview7"
     pagecolor="#ffffff"
     bordercolor="#000000"
     borderopacity="0.25"
     inkscape:showpageshadow="2"
     inkscape:pageopacity="0.0"
     inkscape:pagecheckerboard="0"
     inkscape:deskcolor="#d1d1d1"
     inkscape:document-units="mm"
     showgrid="false"
     inkscape:zoom="0.44117968"
     inkscape:cx="327.53095"
     inkscape:cy="366.06401"
     inkscape:window-width="1444"
     inkscape:window-height="653"
     inkscape:window-x="120"
     inkscape:window-y="85"
     inkscape:window-maximized="0"
     inkscape:current-layer="layer1"
     showguides="true" /><defs
     id="defs2" /><g
     inkscape:label="Layer 1"
     inkscape:groupmode="layer"
     id="layer1"><circle
       style="fill:none;stroke:#000000;stroke-width:2.7;stroke-linecap:round;stroke-linejoin:round;stroke-dasharray:none"
       id="path10642"
       cx="99.919518"
       cy="99.107544"
       r="89.710579" /><path
       style="fill:none;stroke:#000000;stroke-width:2.7;stroke-linecap:round;stroke-linejoin:round;stroke-dasharray:none"
       d="M 54.192692,125.70777 C 38.506825,77.363255 83.230237,47.410568 111.50509,57.495479"
       id="path10644"
       sodipodi:nodetypes="cc" /><circle
       style="fill:#000000;stroke:none;stroke-width:2.7;stroke-linecap:round;stroke-linejoin:round;stroke-dasharray:none"
       id="path10698"
       cx="134.63667"
       cy="80.961914"
       r="4.4978838" /><circle
       style="fill:#000000;stroke:none;stroke-width:2.7;stroke-linecap:round;stroke-linejoin:round;stroke-dasharray:none"
       id="circle10700"
       cx="140.93372"
       cy="97.754013"
       r="4.4978838" /><circle
       style="fill:#000000;stroke:none;stroke-width:2.7;stroke-linecap:round;stroke-linejoin:round;stroke-dasharray:none"
       id="circle10702"
       cx="139.73428"
       cy="117.24484"
       r="4.4978838" /><path
       id="circle10704"
       style="fill:none;stroke:#000000;stroke-width:2.7;stroke-linecap:round;stroke-linejoin:round;stroke-dasharray:none"
       d="m 119.64387,64.46945 -18.11466,26.348262 a 12.893934,12.893934 0 0 0 -2.57555,-0.260449 12.893934,12.893934 0 0 0 -12.89431,12.894307 12.893934,12.893934 0 0 0 12.89431,12.89378 12.893934,12.893934 0 0 0 12.89379,-12.89378 12.893934,12.893934 0 0 0 -3.16829,-8.46512 L 123.54182,66.268823 Z M 98.95366,97.454 a 5.9971786,5.9971786 0 0 1 5.99705,5.99757 5.9971786,5.9971786 0 0 1 -5.99705,5.99705 5.9971786,5.9971786 0 0 1 -5.99757,-5.99705 5.9971786,5.9971786 0 0 1 5.99757,-5.99757 z" /></g></svg>
