<svg
        width="50mm"
        height="41mm"
        viewBox="0 0 50 41"
        xml:space="preserve"
        xmlns="http://www.w3.org/2000/svg">
            <g style="stroke:#000">
                <path
                        style="fill:none;stroke:#000;stroke-width:.268007;stroke-linecap:round;stroke-linejoin:round" d="M2.626 13.887v6.726h8.375c1.758.085 1.977-.796 1.93-2.144v-6.926c-1.746-.046-4.302-.081-6.047-.116-.48-1.56.853-3.505 1.88-4.28 1.032-.756 2.43-1.233 4.204-1.58V2.134C8.046 1.807 3.545 5.486 2.774 9.945c-.182 1.333-.148 2.498-.148 3.942ZM15.326 13.887v6.726h8.375c1.758.085 1.977-.796 1.93-2.144v-6.926c-1.746-.046-4.302-.081-6.047-.116-.48-1.56.853-3.505 1.88-4.28 1.032-.756 2.43-1.233 4.204-1.58V2.134c-4.922-.327-9.423 3.352-10.194 7.811-.182 1.333-.148 2.498-.148 3.942Z"
                        transform="translate(-4.343 -3.18) scale(2.07182)"
                />
            </g>
</svg>