<?xml version="1.0" encoding="UTF-8" standalone="no"?>
<svg
   viewBox="0 0 25.000002 25"
   version="1.1"
   id="svg1887"
   sodipodi:docname="git.svg"
   width="25"
   height="25"
   inkscape:version="1.2.1 (9c6d41e4, 2022-07-14)"
   xmlns:inkscape="http://www.inkscape.org/namespaces/inkscape"
   xmlns:sodipodi="http://sodipodi.sourceforge.net/DTD/sodipodi-0.dtd"
   xmlns="http://www.w3.org/2000/svg"
   xmlns:svg="http://www.w3.org/2000/svg">
  <defs
     id="defs1891" />
  <sodipodi:namedview
     id="namedview1889"
     pagecolor="#ffffff"
     bordercolor="#000000"
     borderopacity="0.25"
     inkscape:showpageshadow="2"
     inkscape:pageopacity="0.0"
     inkscape:pagecheckerboard="0"
     inkscape:deskcolor="#d1d1d1"
     showgrid="false"
     inkscape:zoom="9.9449656"
     inkscape:cx="16.993523"
     inkscape:cy="16.591309"
     inkscape:window-width="1465"
     inkscape:window-height="774"
     inkscape:window-x="833"
     inkscape:window-y="213"
     inkscape:window-maximized="0"
     inkscape:current-layer="svg1887" />
  <path
     fill="#f05133"
     d="M 24.172754,11.256402 13.370546,0.45551859 c -0.621531,-0.62209597 -1.630418,-0.62209597 -2.252731,0 L 8.8748554,2.6986949 11.719976,5.5438155 c 0.661423,-0.2233188 1.419542,-0.073588 1.946526,0.4534994 0.52972,0.5303712 0.678382,1.294962 0.44946,1.9585991 l 2.742191,2.742191 c 0.66342,-0.228617 1.428858,-0.08091 1.958599,0.449765 0.740617,0.7404 0.740617,1.940141 0,2.680736 -0.740726,0.740835 -1.940467,0.740835 -2.681605,0 -0.556886,-0.557319 -0.694625,-1.375547 -0.412567,-2.061681 l -2.557394,-2.5573947 -2.18e-4,6.7297467 c 0.180562,0.08938 0.350961,0.208682 0.501425,0.358495 0.7404,0.740314 0.7404,1.939838 0,2.681389 -0.740617,0.740291 -1.940901,0.740291 -2.680737,0 -0.740508,-0.741486 -0.740508,-1.94101 0,-2.681389 0.183005,-0.182678 0.39476,-0.32095 0.620707,-0.41363 V 9.0918559 C 11.380308,8.9995664 11.168802,8.8623266 10.985526,8.678182 10.424624,8.1177137 10.289534,7.2944919 10.577194,6.6057086 L 7.7724635,3.8005439 0.36629017,11.206501 c -0.62229141,0.622573 -0.62229141,1.63146 0,2.253599 L 11.167847,24.261005 c 0.621879,0.622096 1.630418,0.622096 2.253165,0 L 24.172623,13.511131 c 0.622096,-0.6224 0.622096,-1.631591 0,-2.253817"
     id="path1885"
     style="stroke-width:0.217152" />
</svg>
