<svg height="2500" viewBox="-0.1 1.1 304.9 306.826" width="2500" xmlns="http://www.w3.org/2000/svg"><path style="fill:#fff;stroke:#ffe680;stroke-width:0;stroke-linecap:round;stroke-linejoin:round" d="M-1.825.338h307.031v306.269H-1.825z"/><path d="M94.337 134.794c0 3.381.366 6.123 1.006 8.133a48.913 48.913 0 0 0 2.924 6.58c.457.73.64 1.462.64 2.102 0 .914-.549 1.827-1.737 2.741l-5.757 3.838c-.822.549-1.645.823-2.376.823-.914 0-1.828-.457-2.741-1.28a28.271 28.271 0 0 1-3.29-4.295c-.914-1.553-1.828-3.29-2.833-5.391-7.128 8.407-16.084 12.61-26.867 12.61-7.677 0-13.8-2.192-18.277-6.579-4.478-4.386-6.763-10.235-6.763-17.546 0-7.767 2.742-14.073 8.316-18.825 5.575-4.752 12.977-7.128 22.39-7.128 3.107 0 6.305.274 9.686.731 3.382.457 6.854 1.188 10.51 2.01v-6.67c0-6.946-1.463-11.79-4.296-14.622-2.924-2.833-7.859-4.204-14.895-4.204-3.199 0-6.489.366-9.87 1.188-3.381.823-6.67 1.828-9.87 3.107-1.462.64-2.558 1.005-3.198 1.188-.64.183-1.096.274-1.462.274-1.28 0-1.92-.913-1.92-2.833V86.27c0-1.463.184-2.56.64-3.199.458-.64 1.28-1.28 2.56-1.919 3.198-1.645 7.036-3.016 11.514-4.112 4.478-1.188 9.23-1.737 14.256-1.737 10.875 0 18.825 2.468 23.943 7.403 5.026 4.934 7.585 12.428 7.585 22.48v29.609zm-37.102 13.89c3.016 0 6.123-.548 9.413-1.645 3.29-1.096 6.214-3.107 8.681-5.848 1.463-1.736 2.56-3.656 3.108-5.849s.913-4.843.913-7.95v-3.838A76.32 76.32 0 0 0 70.943 122a68.861 68.861 0 0 0-8.59-.548c-6.123 0-10.6 1.188-13.617 3.655-3.015 2.468-4.477 5.94-4.477 10.51 0 4.294 1.096 7.493 3.38 9.686 2.194 2.285 5.393 3.381 9.596 3.381zm73.382 9.87c-1.645 0-2.741-.274-3.472-.914-.731-.548-1.371-1.828-1.92-3.564l-21.475-70.64c-.548-1.828-.822-3.016-.822-3.656 0-1.462.73-2.284 2.193-2.284h8.956c1.736 0 2.924.274 3.564.913.73.549 1.279 1.828 1.827 3.564l15.353 60.497 14.256-60.497c.457-1.827 1.005-3.015 1.736-3.564.731-.548 2.01-.913 3.656-.913h7.31c1.737 0 2.925.274 3.656.913.73.549 1.37 1.828 1.736 3.564l14.439 61.228 15.81-61.228c.548-1.827 1.188-3.015 1.827-3.564.731-.548 1.92-.913 3.564-.913h8.499c1.462 0 2.285.73 2.285 2.284 0 .457-.092.914-.183 1.462-.092.549-.274 1.28-.64 2.285l-22.024 70.64c-.548 1.828-1.188 3.016-1.919 3.564-.73.549-1.919.914-3.472.914h-7.86c-1.736 0-2.924-.274-3.655-.914-.73-.64-1.37-1.827-1.736-3.655L157.94 95.133l-14.073 58.852c-.457 1.827-1.005 3.015-1.736 3.655-.731.64-2.01.914-3.656.914zm117.43 2.467c-4.752 0-9.504-.548-14.074-1.645-4.569-1.096-8.133-2.284-10.509-3.655-1.462-.822-2.467-1.736-2.833-2.559a6.45 6.45 0 0 1-.548-2.559v-4.66c0-1.92.731-2.833 2.102-2.833.548 0 1.096.091 1.645.274.548.183 1.37.548 2.284.914a49.706 49.706 0 0 0 10.053 3.198 54.881 54.881 0 0 0 10.874 1.097c5.758 0 10.236-1.005 13.343-3.016 3.107-2.01 4.752-4.934 4.752-8.681 0-2.559-.823-4.66-2.468-6.397-1.645-1.736-4.752-3.29-9.23-4.752l-13.25-4.112c-6.671-2.102-11.606-5.21-14.622-9.322-3.016-4.02-4.57-8.499-4.57-13.25 0-3.839.823-7.22 2.468-10.144 1.645-2.925 3.838-5.483 6.58-7.494 2.741-2.102 5.849-3.655 9.504-4.752 3.655-1.096 7.493-1.553 11.514-1.553 2.01 0 4.113.091 6.123.365 2.102.274 4.021.64 5.94 1.005 1.828.457 3.564.914 5.21 1.463 1.644.548 2.923 1.096 3.837 1.644 1.28.732 2.194 1.463 2.742 2.285.548.731.822 1.736.822 3.016v4.295c0 1.919-.73 2.924-2.102 2.924-.73 0-1.919-.365-3.472-1.096-5.21-2.376-11.058-3.564-17.546-3.564-5.209 0-9.321.822-12.154 2.558-2.833 1.737-4.295 4.387-4.295 8.134 0 2.558.914 4.752 2.741 6.488 1.828 1.736 5.21 3.473 10.053 5.026l12.976 4.112c6.58 2.102 11.332 5.027 14.165 8.773 2.833 3.747 4.204 8.042 4.204 12.794 0 3.93-.823 7.494-2.376 10.6-1.645 3.108-3.839 5.85-6.672 8.043-2.832 2.284-6.214 3.93-10.143 5.117-4.113 1.28-8.408 1.92-13.068 1.92z" fill="#252f3e" style="stroke-width:.913848"/><g clip-rule="evenodd" fill="#f90" fill-rule="evenodd"><path d="M265.318 205.434c-30.065 22.207-73.747 33.996-111.306 33.996-52.638 0-100.067-19.465-135.89-51.816-2.832-2.558-.274-6.031 3.108-4.02 38.747 22.48 86.541 36.096 135.98 36.096 33.356 0 70.001-6.945 103.722-21.2 5.026-2.286 9.321 3.289 4.386 6.944z"/><path d="M277.838 191.178c-3.838-4.934-25.405-2.376-35.183-1.188-2.924.366-3.381-2.193-.731-4.112 17.18-12.063 45.418-8.59 48.708-4.57 3.29 4.113-.914 32.351-16.998 45.876-2.467 2.102-4.843 1.005-3.746-1.736 3.655-9.047 11.788-29.426 7.95-34.27z"/></g></svg>