<svg height="2359" width="2500" viewBox="-0.45 0.38 800.889 754.23" xmlns="http://www.w3.org/2000/svg"><linearGradient id="a" gradientUnits="userSpaceOnUse" x1="353.1" x2="107.1" y1="56.3" y2="783" gradientTransform="translate(91.707 86.546) scale(.77073)"><stop offset="0" stop-color="#114a8b"/><stop offset="1" stop-color="#0669bc"/></linearGradient><linearGradient id="b" gradientUnits="userSpaceOnUse" x1="429.8" x2="372.9" y1="394.9" y2="414.2" gradientTransform="translate(91.707 86.546) scale(.77073)"><stop offset="0" stop-opacity=".3"/><stop offset=".1" stop-opacity=".2"/><stop offset=".3" stop-opacity=".1"/><stop offset=".6" stop-opacity=".1"/><stop offset="1" stop-opacity="0"/></linearGradient><linearGradient id="c" gradientUnits="userSpaceOnUse" x1="398.4" x2="668.4" y1="35.1" y2="754.4" gradientTransform="translate(91.707 86.546) scale(.77073)"><stop offset="0" stop-color="#3ccbf4"/><stop offset="1" stop-color="#2892df"/></linearGradient><path style="fill:#fff;stroke:#ffe680;stroke-width:0;stroke-linecap:round;stroke-linejoin:round" d="M-.45 2.838h797.348V748.95H-.45z"/><path d="M297.268 86.855h182.44L290.316 648.333a29.134 29.134 0 0 1-4.177 8 28.94 28.94 0 0 1-6.42 6.335 29 29 0 0 1-8.054 4.062 29.17 29.17 0 0 1-8.91 1.403H120.771a28.952 28.952 0 0 1-13.257-3.206 29.007 29.007 0 0 1-10.335-8.91 29.104 29.104 0 0 1-5.133-12.648 29.067 29.067 0 0 1 1.202-13.595l176.451-523.135a28.925 28.925 0 0 1 4.178-8 29.105 29.105 0 0 1 6.42-6.335 29 29 0 0 1 8.054-4.062 29.17 29.17 0 0 1 8.91-1.403v.008z" fill="url(#a)" style="fill:url(#a);stroke-width:.770732" transform="matrix(1.11426 0 0 1.11426 -45.705 -43.133)"/><path d="M633.585 668.133h-163.82c-1.826 0-3.652-.17-5.456-.516a29.144 29.144 0 0 1-10.15-3.993 29.433 29.433 0 0 1-4.34-3.345l-185.9-173.615a13.428 13.428 0 0 1-3.93-6.844 13.398 13.398 0 0 1 5.525-14.035 13.445 13.445 0 0 1 7.546-2.32h289.302l71.207 204.676z" fill="#0078d4" style="stroke-width:.770732" transform="matrix(1.11426 0 0 1.11426 -45.705 -43.133)"/><path d="m480.363 86.855-127.71 376.649 208.668-.047L632.9 668.133H469.696a29.913 29.913 0 0 1-5.04-.47c-1.665-.3-3.299-.74-4.887-1.326a29.66 29.66 0 0 1-8.755-5.017L325.524 544.2 290.393 647.8a30.928 30.928 0 0 1-3.715 7.307 31.198 31.198 0 0 1-12.37 10.535 30.852 30.852 0 0 1-7.808 2.49H120.856a28.914 28.914 0 0 1-13.388-3.237 29.029 29.029 0 0 1-15.43-21.881 29.11 29.11 0 0 1 1.441-13.712l176.166-522.27a28.607 28.607 0 0 1 4.085-8.155 28.907 28.907 0 0 1 6.42-6.474 28.811 28.811 0 0 1 17.126-5.55h183.095Z" fill="url(#b)" style="fill:url(#b);stroke-width:.770732" transform="matrix(1.11426 0 0 1.11426 -45.705 -43.133)"/><path d="M706.743 629.774a29.17 29.17 0 0 1 1.21 13.595 29.185 29.185 0 0 1-5.126 12.648 29.05 29.05 0 0 1-23.592 12.116H475.901c4.609 0 9.156-1.102 13.264-3.206a29.084 29.084 0 0 0 15.469-21.558c.686-4.562.27-9.225-1.203-13.595l-176.459-523.15a29.067 29.067 0 0 0-10.582-14.32 28.89 28.89 0 0 0-8.039-4.054 29.065 29.065 0 0 0-8.894-1.395h203.327c3.021 0 6.02.47 8.902 1.395a29.251 29.251 0 0 1 8.046 4.054 29.203 29.203 0 0 1 6.413 6.328 29.167 29.167 0 0 1 4.17 7.992l176.459 523.15Z" fill="url(#c)" style="fill:url(#c);stroke-width:.770732" transform="matrix(1.11426 0 0 1.11426 -45.705 -43.133)"/></svg>