<svg width="25" height="25" xmlns="http://www.w3.org/2000/svg"><path style="fill:#264de4" d="M74.633 100.62h362.734l-33.046 370.199L255.778 512l-148.134-41.123z" transform="matrix(.06712 0 0 .04762 -4.764 .501)"/><path style="fill:#2965f1" d="m256 480.523 120.03-33.277 28.24-316.352H256z" transform="matrix(.06712 0 0 .04762 -4.764 .501)"/><path style="fill:#ebebeb" d="M256 268.217H150.31l4.07 45.41H256zM256 221.716v-45.411H142.132l4.128 45.411zM256 386.153l-.199.053-50.574-13.656-3.233-36.217h-45.585l6.362 71.301 93.02 25.823.209-.058z" transform="matrix(.06712 0 0 .04762 -4.764 .501)"/><path d="M5.976.501h3.691v1.095H7.52v1.095h2.148v1.095H5.976zM10.406.501h3.692v.952H11.95v.19h2.148v2.191h-3.692v-1h2.148v-.19h-2.148zM14.836.501h3.692v.952H16.38v.19h2.148v2.191h-3.692v-1h2.148v-.19h-2.148z"/><path style="fill:#fff" d="m348.937 407.634.683-7.672 10.671-119.551 1.108-12.194 8.198-91.912H255.843v45.411h63.988l-4.132 46.501h-59.856v45.41h55.918l-5.271 58.894-50.647 13.67v47.244z" transform="matrix(.06712 0 0 .04762 -4.764 .501)"/></svg>