<svg viewBox="0 0 24 24" xmlns="http://www.w3.org/2000/svg"><path style="fill:#fff;stroke:#ffe680;stroke-width:0;stroke-linecap:round;stroke-linejoin:round" d="M0-.102h24v24H0z"/><path d="M11.998 1.627A10.366 10.366 0 0 0 1.628 12 10.366 10.366 0 0 0 12 22.373c5.734 0 10.373-4.64 10.373-10.373-.001-5.734-4.678-10.373-10.375-10.373ZM7.133 14.226c.34.452.792.641 1.433.641.302 0 .604-.038.868-.151.264-.112.566-.265.942-.49l1.057 1.508c-.867.718-1.848 1.057-2.98 1.057-.906 0-1.66-.189-2.338-.566a3.797 3.797 0 0 1-1.51-1.66c-.338-.717-.527-1.547-.527-2.528 0-.942.189-1.81.527-2.526a3.996 3.996 0 0 1 1.511-1.735c.64-.415 1.432-.604 2.3-.604.604 0 1.17.075 1.623.264a4.875 4.875 0 0 1 1.395.83l-1.056 1.433a4.137 4.137 0 0 0-.867-.491c-.264-.112-.604-.15-.906-.15-1.282 0-1.924.98-1.924 2.978-.037 1.02.152 1.736.453 2.189zm10.373 2.338c-.377 1.17-.943 2.037-1.735 2.678-.792.642-1.849.981-3.169 1.094l-.263-1.772c.867-.114 1.508-.302 1.923-.605.15-.112.453-.452.453-.452l-3.13-10.033h2.601l1.811 7.506 1.924-7.506h2.527z" style="stroke-width:.864407"/></svg>