<svg viewBox="0 0 1200 1200" width="2500" height="2500" xmlns="http://www.w3.org/2000/svg"><path style="fill:#fff;stroke:#ffe680;stroke-width:0;stroke-linecap:round;stroke-linejoin:round" d="M0 5.085h1205.085v1210.17H0z"/><path style="fill:#fff;stroke:#ffe680;stroke-width:0;stroke-linecap:round;stroke-linejoin:round" d="M5.085 10.169h1200v1184.746h-1200z"/><path fill="#fff" d="m600 0 530.3 300v600L600 1200 69.7 900V300z"/><path style="font-weight:700;font-size:544.188px;font-family:'Arial Narrow';-inkscape-font-specification:'Arial Narrow Bold';fill:#4d4d4d;stroke:#ffe680;stroke-width:0;stroke-linecap:round;stroke-linejoin:round" d="M247.7 217.148c-29.76 0-54.03 11.957-72.807 35.872-22.143 28.343-33.214 66.075-33.214 113.195 0 47.83 10.983 85.03 32.949 111.602 18.6 22.851 44.995 34.277 79.183 34.277 24.624 0 45.527-6.82 62.71-20.46 17.183-13.818 29.85-34.898 37.998-63.24l-60.85-12.49c-6.554 26.926-19.663 40.39-39.326 40.39-13.64 0-25.331-6.112-35.074-18.335-9.566-12.223-14.526-29.495-14.88-51.815h153.318l.265-8.503c0-54.56-10.805-95.835-32.417-123.824-18.777-24.446-44.73-36.669-77.855-36.669zm535.419 0c-14.703 0-28.432 4.252-41.186 12.755-12.754 8.503-23.029 20.194-30.823 35.074v-41.451h-57.13v389.54h61.382V470.908c11.691 15.589 22.763 26.394 33.214 32.417 10.629 5.846 22.054 8.769 34.277 8.769 26.395 0 49.158-12.843 68.29-38.53 19.132-25.862 28.698-63.063 28.698-111.6 0-46.235-9.566-81.93-28.698-107.084-18.954-25.155-41.63-37.732-68.024-37.732zm252.431 0c-10.097 0-19.042 3.1-26.837 9.3-7.617 6.023-16.298 18.423-26.04 37.2v-40.122h-56.864v282.19h61.381v-87.154c0-44.11 1.416-74.401 4.25-90.876 2.835-16.474 7.441-27.811 13.818-34.011 6.555-6.378 14.084-9.566 22.586-9.566 9.035 0 18.601 4.074 28.699 12.223l19.13-65.1c-12.754-9.39-26.128-14.084-40.123-14.084zm154.647 0c-29.76 0-54.029 11.957-72.806 35.872-22.143 28.343-33.215 66.075-33.215 113.195 0 47.83 10.983 85.03 32.95 111.602 18.6 22.851 44.994 34.277 79.183 34.277 24.623 0 45.526-6.82 62.71-20.46 17.182-13.818 29.848-34.898 37.997-63.24l-60.85-12.49c-6.554 26.926-19.663 40.39-39.326 40.39-13.64 0-25.33-6.112-35.074-18.335-9.566-12.223-14.526-29.495-14.88-51.815h153.318l.266-8.503c0-54.56-10.806-95.835-32.418-123.824-18.777-24.446-44.729-36.669-77.855-36.669zm244.46 0c-31.709 0-55.889 7.883-72.54 23.649-16.652 15.766-24.978 36.758-24.978 62.975s8.503 46.854 25.509 61.912c13.64 12.045 45.615 24.712 95.924 37.998 9.92 2.657 16.563 5.756 19.929 9.3 3.189 3.542 4.782 8.414 4.782 14.614 0 9.034-3.63 16.386-10.894 22.055-7.263 5.668-18.245 8.503-32.948 8.503-27.635 0-44.11-14.792-49.425-44.375l-61.38 11.426c6.023 28.343 18.511 49.954 37.465 64.835 18.955 14.703 43.402 22.054 73.34 22.054 32.948 0 58.722-8.858 77.322-26.572 18.777-17.714 28.167-40.211 28.167-67.492 0-22.674-6.023-40.832-18.069-54.472-12.223-13.64-35.429-25.243-69.618-34.809-30.469-8.503-48.626-14.88-54.472-19.131-5.846-4.075-8.768-9.212-8.768-15.412 0-6.909 3.188-12.488 9.565-16.74 6.377-4.428 17.094-6.643 32.152-6.643 23.914 0 38.44 11.338 43.578 34.012l57.66-13.02c-6.377-26.217-17.448-45.172-33.214-56.864-15.766-11.868-38.795-17.803-69.087-17.803zm248.18 0c-31.71 0-55.89 7.883-72.541 23.649-16.652 15.766-24.977 36.758-24.977 62.975s8.502 46.854 25.508 61.912c13.64 12.045 45.615 24.712 95.924 37.998 9.92 2.657 16.564 5.756 19.93 9.3 3.188 3.542 4.781 8.414 4.781 14.614 0 9.034-3.63 16.386-10.893 22.055-7.263 5.668-18.246 8.503-32.95 8.503-27.634 0-44.108-14.792-49.422-44.375l-61.381 11.426c6.023 28.343 18.512 49.954 37.466 64.835 18.955 14.703 43.4 22.054 73.338 22.054 32.949 0 58.722-8.858 77.322-26.572 18.778-17.714 28.167-40.211 28.167-67.492 0-22.674-6.022-40.832-18.068-54.472-12.223-13.64-35.43-25.243-69.619-34.809-30.468-8.503-48.626-14.88-54.472-19.131-5.845-4.075-8.768-9.212-8.768-15.412 0-6.909 3.188-12.488 9.565-16.74 6.377-4.428 17.095-6.643 32.152-6.643 23.915 0 38.441 11.338 43.578 34.012l57.66-13.02c-6.377-26.217-17.448-45.172-33.214-56.864-15.766-11.868-38.795-17.803-69.087-17.803zM381.62 223.526l79.981 136.843-83.434 145.347h71.477l47.83-87.42 47.032 87.42h75.197l-85.827-148.535 78.387-133.655H540.52l-43.046 77.589-40.92-77.59h-74.933zm-130.2 50.751c12.222 0 22.763 5.58 31.62 16.74 8.857 10.984 13.552 27.458 14.083 49.424h-91.673c-.177-20.903 4.252-37.2 13.286-48.892 8.858-11.514 19.752-17.272 32.683-17.272zm942.497 0c12.223 0 22.763 5.58 31.62 16.74 8.857 10.984 13.552 27.458 14.083 49.424h-91.673c-.177-20.903 4.252-37.2 13.287-48.892 8.857-11.514 19.751-17.272 32.683-17.272zm-427.273 1.86c14.171 0 26.13 7.175 35.872 21.524 9.92 14.171 14.88 36.226 14.88 66.163 0 31.532-4.783 54.294-14.349 68.289-9.565 13.817-21.346 20.726-35.34 20.726-14.704 0-27.28-7.528-37.732-22.586-10.274-15.057-15.411-38.529-15.411-70.415 0-27.989 4.96-48.892 14.88-62.709 9.92-13.994 22.32-20.992 37.2-20.992z" transform="scale(.61755 1.6193)"/></svg>