<svg width="2500" height="2500" viewBox="0 0 416.938 417" preserveAspectRatio="xMinYMin" xmlns="http://www.w3.org/2000/svg"><path style="fill:#fff;stroke:#ffe680;stroke-width:0;stroke-linecap:round;stroke-linejoin:round" d="M1.767 0h411.699v415.233H1.767z"/><path d="M334.159 202.366c0 73.657-58.4 133.425-130.478 133.425-72.079 0-130.477-59.768-130.477-133.425 0-73.657 58.4-133.425 130.477-133.425 72.08 0 130.48 59.768 130.48 133.425" fill="#d33833"/><path d="M78.57 235.406S69.1 96.301 197.368 92.301l-8.944-14.942-69.554 23.36-19.887 22.834-17.361 33.25-9.892 38.723 2.947 25.886" fill="#ef3d3a"/><path d="M114.345 111.347c-22.833 23.465-37.038 55.77-37.038 91.545 0 35.776 14.205 68.08 37.038 91.545 22.94 23.465 54.402 37.88 89.336 37.88 34.935 0 66.396-14.415 89.335-37.88 22.834-23.465 37.039-55.769 37.039-91.545s-14.205-68.08-37.039-91.545c-22.938-23.36-54.4-37.88-89.335-37.88-34.829 0-66.396 14.415-89.336 37.88zm-5.787 188.667c-24.305-24.833-39.353-59.24-39.353-97.122 0-37.88 15.048-72.29 39.353-97.227 24.307-24.833 57.979-40.3 95.124-40.3 37.144 0 70.815 15.467 95.122 40.3 24.306 24.833 39.354 59.24 39.354 97.227 0 37.88-15.048 72.289-39.354 97.122-24.307 24.938-57.978 40.3-95.123 40.3-37.144 0-70.816-15.362-95.123-40.3z" fill="#231f20"/><path d="m258.608 203.102-19.887 2.946-26.832 3.052-17.362.421-16.941-.526-12.943-3.998-11.47-12.418-8.944-25.358-1.999-5.472-11.89-3.998-6.946-11.47-4.945-16.415 5.472-14.415 12.943-4.525 10.417 4.946 4.945 10.944 5.998-.948 1.999-2.525-1.999-11.47-.526-14.416 2.946-19.887-.105-11.364 9.049-14.52 15.889-11.47 27.78-11.89 30.83 4.523 26.832 19.362 12.417 19.887 7.996 14.416 2 35.776-5.998 30.83-10.944 27.36-10.31 14.625" fill="#f0d6b7"/><path d="m241.773 289.07-71.027 2.947v11.89l5.998 41.775-2.947 3.472-49.666-16.941-3.472-5.998-4.946-56.19-11.68-33.672-2.525-7.997 39.775-27.358 12.417-4.946 10.943 13.468 9.47 8.42 10.944 3.471 4.945 1.474L196 248.77l4.525 5.472 11.469-3.999-7.997 15.467 43.142 20.414-5.366 2.946" fill="#335061"/><path d="m123.921 115.66 12.943-4.523 10.417 4.945 4.945 10.944 5.998-.947 1.474-5.998-2.947-11.47 2.946-27.358-2.525-14.942 8.944-10.417 19.36-15.363-5.471-7.47-27.358 13.467-11.469 8.945-6.419 13.89-9.89 13.468-2.947 15.889 2 16.94" fill="#6d6b6d"/><path d="M144.335 68.941s7.47-18.414 37.249-27.358c29.778-8.944 1.474-6.419 1.474-6.419l-32.306 12.417-12.415 12.416-5.472 9.891 11.47-.947m-14.942 43.248s-10.418-34.83 29.357-39.775l-1.473-5.998-27.358 6.42-7.997 25.885 2 16.94 5.471-3.472" fill="#dcd9d8"/><path d="m145.282 158.383 6.523-6.314s2.947.316 3.473 3.788c.526 3.473 2 34.83 23.36 51.665 1.999 1.578-15.889-2.526-15.889-2.526l-15.89-24.832m89.863-31.252s1.157-15.047 5.26-13.89c4.105 1.158 4.105 5.26 4.105 5.26s-9.891 6.315-9.365 8.63m41.247-55.137s-8.208 1.683-8.944 8.944c-.737 7.26 8.944 1.473 10.417.947m-61.555-9.365s-10.944 1.473-10.944 8.418c0 6.944 12.417 6.418 15.889 3.472m-72.5 20.414s-18.834-11.47-20.833-.526c-1.999 10.943-6.419 18.834 2.946 30.304l-6.419-2-5.997-15.362-2-14.942 11.47-11.89 12.942.947 7.471 5.998.421 7.47m8.944-31.356s8.417-43.774 51.139-52.192c35.144-6.945 53.663 1.474 60.608 9.47 0 0-31.356-37.248-61.135-25.885-29.778 11.47-51.665 32.304-51.139 45.668.842 22.938.526 22.938.526 22.938m115.22-37.775s-14.415-.526-14.942 12.416c0 0 0 2 .948 4 0 0 11.47-12.944 18.414-5.999" fill="#f7e4cd"/><path d="M211.468 75.255s-2.525-19.782-19.361-8.313c-10.944 7.471-9.892 17.888-7.997 19.888 1.999 2 1.473 5.997 2.946 3.262 1.473-2.736 1.052-11.68 6.524-14.206 5.366-2.525 14.416-5.26 17.888-.63" fill="#f7e4cd"/><path d="m164.75 209.521-46.723 20.833s19.362 77.025 9.47 100.91l-6.944-2.524-.526-29.358-12.943-55.558-5.472-15.364 48.719-32.83 14.416 13.89m4.736 42.616 6.629 8.103v29.778h-7.891s-.947-20.834-.947-23.359c0-2.526.947-11.47.947-11.47m1.473 39.354-22.413.947 6.42 4.525 15.887 2.526" fill="#49728b"/><path d="m246.193 289.597 18.412-.526 4.525 45.667-18.834 2.526-4.104-47.668" fill="#335061"/><path d="m251.138 289.597 27.778-1.474s11.47-28.83 11.47-30.304c0-1.474 9.891-41.774 9.891-41.774l-22.413-23.36-4.525-3.997-11.89 11.89v46.193l-10.311 42.826" fill="#335061"/><path d="m263.553 286.124-17.361 3.473 2.526 13.89c6.417 2.946 17.361-4.946 17.361-4.946m-2-99.437 34.83 25.885.947-11.89-26.306-24.306-9.47 10.311" fill="#49728b"/><path d="m186.95 387.455-10.311-41.773-5.156-30.831-.842-22.834 46.614-2.525h28.937l-2.63 52.19 4.524 40.301-.526 7.471-37.776 2.947-22.833-4.946" fill="#fff"/><path d="M239.773 289.07s-2.525 51.667 4.946 88.494c0 0-14.942 9.47-36.724 11.89l41.775-1.473 4.944-2.946-5.996-81.443-1.58-17.468" fill="#dcd9d8"/><path d="m269.867 330.845 19.361-5.472 36.724-2 5.472-16.94-9.892-29.358-11.469-1.473-15.889 4.946-15.153 7.471-8.102-1.474-6.314 2.526" fill="#fff"/><path d="M269.551 320.849s12.943-5.998 14.942-5.472l-5.472-27.358 6.42-2.526s4.524 25.886 4.524 28.832c0 0 27.78 1.473 30.304 1.473 0 0 5.998-11.47 4.525-23.36l5.472 15.889.526 8.944-7.997 11.89-8.944 2-14.942-.526-4.946-6.42-17.362 2.526-5.472 2" fill="#dcd9d8"/><path d="m249.98 285.598-10.944-27.779-11.47-16.416s2.527-6.944 5.999-6.944h11.47l10.944 3.998-.949 18.415-5.05 28.726" fill="#fff"/><path d="M252.19 276.128s-13.89-26.832-13.89-30.83c0 0 2.526-5.999 5.998-4.525 3.473 1.473 10.944 5.472 10.944 5.472v-9.47l-16.942-3.473-11.47 1.473 19.362 45.878 3.997.526" fill="#dcd9d8"/><path d="m191.37 210.573-13.784-1.474-12.943-3.998v4.525l6.313 6.945 19.888 8.944" fill="#fff"/><path d="M169.168 212.046s15.362 6.42 20.414 4.946l.525 5.998-13.889-2.947-8.418-5.998 1.368-1.999" fill="#dcd9d8"/><path d="M269.867 236.143c-8.418-.21-16.1-1.263-22.728-3.157.42-2.736-.421-5.366.316-7.366 1.894-1.368 4.944-1.368 7.785-1.683-2.42-1.158-5.891-1.684-8.627-.947-.107-1.894-.947-3.052-1.474-4.525 4.736-1.684 15.89-12.732 22.202-9.155 3.052 1.79 4.315 11.68 4.525 16.626.21 3.998-.42 7.997-1.999 10.207" fill="#d33833"/><path d="M269.867 236.143c-8.418-.21-16.1-1.263-22.728-3.157.42-2.736-.421-5.366.316-7.366 1.894-1.368 4.944-1.368 7.785-1.683-2.42-1.158-5.891-1.684-8.627-.947-.107-1.894-.947-3.052-1.474-4.525 4.736-1.684 15.89-12.732 22.202-9.155 3.052 1.79 4.315 11.68 4.525 16.626.21 3.998-.42 7.997-1.999 10.207z" stroke="#d33833" stroke-width="2.12092"/><path d="M229.567 222.358c0 .632 0 1.262-.106 1.894-2.63 1.684-6.84 1.684-9.786 3.157 4.21.21 7.577 1.262 10.523 2.63-.106 1.58-.106 3.263-.21 4.841-4.841 3.262-9.26 8.208-14.942 11.364-2.736 1.474-12.101 5.262-14.942 4.525-1.58-.42-1.79-2.42-2.42-4.314-1.368-3.998-4.525-10.523-4.841-16.626-.316-7.68-1.157-20.624 7.155-19.046 6.734 1.263 14.52 4.315 19.677 7.156 3.262 1.894 5.05 3.998 9.892 4.42" fill="#d33833"/><path d="M229.567 222.358c0 .632 0 1.262-.106 1.894-2.63 1.684-6.84 1.684-9.786 3.157 4.21.21 7.577 1.262 10.523 2.63-.106 1.58-.106 3.263-.21 4.841-4.841 3.262-9.26 8.208-14.942 11.364-2.736 1.474-12.101 5.262-14.942 4.525-1.58-.42-1.79-2.42-2.42-4.314-1.368-3.998-4.525-10.523-4.841-16.626-.316-7.68-1.157-20.624 7.155-19.046 6.734 1.263 14.52 4.315 19.677 7.156 3.262 1.894 5.05 3.998 9.892 4.42z" stroke="#d33833" stroke-width="2.12092"/><path d="M234.302 231.513c-.737-4.21-1.58-5.366-1.263-9.05 11.259-7.47 13.258 12.838 1.262 9.05" fill="#d33833"/><path d="M234.302 231.513c-.737-4.21-1.58-5.366-1.263-9.05 11.259-7.47 13.258 12.838 1.262 9.05z" stroke="#d33833" stroke-width="2.12092"/><path d="M250.506 234.88s-3.472-4.946-.947-6.419c2.526-1.473 4.946 0 6.418-2.525 1.475-2.526 0-3.998.526-6.945.526-2.946 2.946-3.472 5.472-3.998 2.525-.527 9.47-1.474 10.417.947l-2.946-8.945-5.998-1.999-18.834 10.944-.947 5.472v10.943m-45.352 18.94c-.631-7.787-1.262-15.468-1.894-23.255-1.052-11.574 2.736-9.576 12.837-9.576 1.579 0 9.47 1.79 9.997 2.948 2.736 5.576-4.525 4.313 3.156 8.522 6.419 3.473 17.889-2.104 15.258-9.996-1.474-1.789-7.576-.526-9.786-1.684l-11.68-5.997c-4.945-2.526-16.31-6.314-21.571-2.736-13.364 9.05.842 31.778 5.577 41.248" fill="#ef3d3a"/><path d="M211.468 75.255c-13.574-3.157-20.308 5.682-24.412 14.836-3.683-.84-2.21-5.892-1.262-8.417 2.419-6.629 12.206-15.574 20.202-14.31 3.367.42 7.997 3.577 5.472 7.891m65.975 15.362h.631c3.052 6.314 5.682 13.049 9.576 18.731-2.63 6.103-19.572 11.364-19.362.631 3.683-1.578 9.997-.316 13.26-2.42-1.895-5.156-4.526-9.576-4.105-16.94m-59.135.21c2.946 5.366 3.892 10.943 7.996 14.942 1.895 1.788 5.472 3.998 3.684 9.048-.421 1.158-3.473 3.789-5.262 4.315-6.418 1.894-21.466.42-16.415-7.682 5.366.211 12.522 3.473 16.52-.421-3.051-4.84-8.523-14.521-6.523-20.202m56.715 54.084c-9.68 6.209-20.52 13.049-36.512 11.47-3.367-2.946-4.735-9.576-1.368-13.89 1.683 2.947.63 8.419 5.472 9.26 9.049 1.579 19.57-5.577 26.094-7.996 3.998-6.84-.315-9.26-3.998-13.68-7.47-8.944-17.361-20.098-17.046-33.46 3.052-2.21 3.262 3.366 3.683 4.313 3.892 9.049 13.68 20.729 20.728 28.516 1.79 1.894 4.63 3.788 4.946 5.05.947 3.578-2.42 7.997-1.999 10.418M146.86 138.39c-3.05-1.79-3.787-9.365-7.365-9.576-5.156-.315-4.209 9.892-4.209 15.889-3.472-3.156-4.104-13.048-1.578-18.098-2.946-1.474-4.21 1.578-5.893 2.63 2.21-15.257 22.413-7.05 19.046 9.155m134.266 12.942c-4.525 8.629-10.944 18.099-24.202 18.415-.316-2.736-.526-7.05 0-8.734 10.207-1.052 16.52-6.208 24.202-9.681m-63.555 5.577c8.418 4.42 23.99 4.946 35.566 4.63.63 2.526.63 5.682.63 8.734-14.835.63-32.303-3.052-36.196-13.364m-1.578 8.208c5.892 14.73 25.99 13.048 42.93 12.627-.736 1.894-2.315 4.209-4.418 4.945-5.472 2.21-20.414 3.894-27.99-.105-4.735-2.525-7.892-8.313-10.522-11.68-1.158-1.578-7.471-5.682 0-5.787" fill="#231f20"/><path d="M274.286 246.244c-6.84 11.785-13.467 23.886-21.57 34.198 3.366-9.996 4.84-26.832 5.367-39.669 7.154-3.368 13.257.736 16.203 5.472" fill="#81b0c4"/><path d="M311.22 288.545c-7.68 1.578-13.048 9.049-20.624 8.523 4.21-5.788 11.364-8.313 20.624-8.523m3.367 11.995c-6.313.632-13.679 1.684-19.992 1.158 3.051-4.63 14.626-2.947 19.992-1.158m2.21 10.418c-7.05.105-15.784 0-22.518-.527 3.998-4.314 17.993-1.578 22.518.527" fill="#231f20"/><path d="M261.028 339.368c1.052 8.839 4.525 17.784 4.104 27.463-3.894 1.262-6.102 2.42-11.365 2.42-.314-8.208-1.472-20.833-1.156-28.725 2.524.21 6.312-1.79 8.417-1.158" fill="#dcd9d8"/><path d="M249.665 208.89c-3.578 2.314-6.524 5.155-9.997 7.681-7.576.421-11.68-.526-17.151-4.84.105-.316.63-.21.63-.632 8.103 3.578 18.415-1.473 26.518-2.21" fill="#f0d6b7"/><path d="M207.364 263.922c2.21-9.576 10.944-14.626 18.835-19.887 8.102 10.312 13.048 23.57 18.52 36.407-12.943-3.893-26.096-10.101-37.355-16.52" fill="#81b0c4"/><path d="M252.61 340.63c-.315 7.893.736 20.415 1.157 28.726 5.263 0 7.471-1.157 11.365-2.42.421-9.68-3.052-18.624-4.104-27.463-2.105-.736-5.893 1.263-8.417 1.158zm-81.233-44.614c3.473 31.672 8.418 58.187 17.572 86.283 20.309 6.208 44.72 6.734 62.715 1.157-3.262-15.783-1.894-35.038-3.788-51.98-1.474-12.732-.737-25.464-2.736-38.407-21.782-4.524-52.507-1.052-73.763 2.947zm78.919-2.736c-.212 13.574.63 27.042 1.684 40.616 5.26-.736 8.732-1.262 13.573-2.42-1.579-13.048-1.368-27.884-4.63-39.46-3.682.107-6.946 0-10.627 1.263zm26.41-2.21c-2.525-.526-5.366 0-7.68 0 1.156 11.049 3.787 23.255 4.734 34.935 3.683.105 5.682-1.684 8.734-2.21.21-10.207-.842-24.307-5.788-32.725zm40.091 36.618c7.787-1.894 12.627-11.364 10.417-21.15-1.473-6.524-3.998-18.94-6.84-23.15-1.999-3.051-7.576-7.155-12.1-4.314-7.26 4.63-19.993 5.998-25.254 11.575 2.63 8.839 3.472 20.835 4.524 31.988 9.05.527 20.098-2.524 27.675.737-5.262 1.684-11.996 1.684-16.52 4.209 3.787 1.789 12.416 1.474 18.098.106zm-72.183-47.246c-5.472-12.837-10.417-26.095-18.52-36.407-7.892 5.26-16.52 10.312-18.835 19.887 11.364 6.419 24.518 12.627 37.355 16.52zm13.467-39.669c-.526 12.837-1.999 29.673-5.365 39.669 8.101-10.417 14.731-22.413 21.57-34.198-2.946-4.735-9.049-8.839-16.203-5.472zm-15.256-5.366c-3.052-.317-5.682 3.577-9.681 1.893-.947 1.052-1.79 2.105-2.736 3.157 8.839 10.732 12.943 25.886 19.783 38.407 3.683-12.1 3.262-25.254 4.104-38.407-5.051.21-7.892-4.735-11.47-5.05zm-9.786-12.944c-.316 3.683.526 4.841 1.262 9.05 11.996 3.788 9.997-16.52-1.262-9.05zm-13.364-4.419c-5.156-2.842-12.942-5.893-19.677-7.155-8.312-1.579-7.471 11.364-7.155 19.046.316 6.102 3.473 12.521 4.84 16.625.632 1.894.842 3.893 2.42 4.314 2.842.632 12.312-3.05 14.943-4.525 5.682-3.05 10.1-7.996 14.942-11.364.105-1.578.105-3.262.21-4.84-2.946-1.474-6.208-2.42-10.523-2.63 2.842-1.474 7.156-1.474 9.786-3.157 0-.632 0-1.263.106-1.895-4.841-.526-6.63-2.63-9.892-4.419zM170.22 209.1c-4.314 4.42 12.1 10.312 17.257 10.628 0-2.736 1.578-5.366 1.262-7.366-6.208-1.052-14.31-.316-18.519-3.262zm53.034 2c0 .42-.527.315-.632.631 5.577 4.314 9.68 5.26 17.15 4.84 3.369-2.42 6.42-5.366 9.998-7.682-8.208.737-18.52 5.788-26.517 2.21zm48.612 14.731c-.21-4.84-1.474-14.837-4.525-16.626-6.313-3.683-17.466 7.471-22.201 9.155.526 1.473 1.368 2.63 1.473 4.524 2.842-.736 6.207-.21 8.627.947-2.84.316-5.891.316-7.785 1.684-.632 2 .21 4.63-.316 7.366 6.628 1.894 14.31 2.841 22.728 3.156 1.578-2.104 2.21-6.103 2-10.206zM162.96 213.31c-1.368-.947-10.522-12.838-11.785-12.312-16.52 6.525-31.988 17.784-45.773 28.516 13.153 28.306 18.52 62.925 19.467 96.28 15.048 7.05 28.305 17.258 48.824 18.31-2.42-16.73-4.524-31.778-5.892-47.562-5.156-2.21-12.522.106-17.362-.631 0-5.787 7.365-2.525 7.996-6.418.422-2.947-4.104-3.157-2.63-7.787 3.788 1.368 5.787 4.419 9.786 5.577 3.683-7.997 0-22.202.526-28.937.106-1.262.631-6.945 3.472-5.998 2.526.842-.105 15.258.106 21.571.21 5.893-.737 11.47 1.683 15.153 19.783-2.736 39.88-4.42 61.346-5.051-4.735-1.999-10.312-3.893-16.415-7.366-3.367-1.894-13.784-5.787-14.731-8.944-1.58-5.05 3.998-7.68 4.945-11.996-9.996 5.472-11.89-5.26-14.31-12.732-2.105-6.84-3.367-11.995-3.893-15.889-8.734-4.419-17.994-8.523-25.36-13.784zm100.173-10.944c13.785-6.627 16.31 24.94 10.838 35.146.842 3.051 3.683 4.21 4.841 6.944-7.682 13.785-16.203 26.622-24.097 40.196 5.788-3.683 14.206-.631 21.045-3.367 2.526-.947 4.315-6.734 6.21-11.364 5.26-12.627 10.731-28.622 13.152-40.616.526-2.736 2.104-8.735 1.683-11.155-.63-4.419-6.524-7.68-9.576-10.312-5.576-5.05-9.049-9.363-14.942-14.1-2.209 3.473-7.26 5.787-9.154 8.63zM131.497 80.2c-6.524 7.261-5.156 20.73-4.419 30.41 11.89-7.47 27.57.632 27.463 13.259 5.682-.106 2.105-7.05 1.053-11.575-3.368-14.626 5.682-30.41.42-43.773-10.206.841-18.519 4.945-24.517 11.68zm46.93-41.984c-14.836 4.21-33.882 15.047-39.985 28.41 4.735-.736 7.997-3.05 12.627-3.367 1.79-.105 4.104.737 6.103.211 3.998-1.052 7.471-10.102 10.522-13.469 2.947-3.262 6.524-4.735 8.945-7.68 1.578-.738 3.892-.738 3.998-3.053-.631-.737-1.368-1.262-2.21-1.052zm77.34 3.998c-15.467-8.733-41.563-15.257-57.978-7.05-13.26 6.63-31.146 17.572-37.25 31.358 5.682 13.362-1.683 25.568-2.21 39.142-.21 7.26 3.368 13.47 3.683 21.362-1.999 3.262-7.892 3.577-11.995 3.367-1.368-6.946-3.788-14.732-10.944-15.574-10.1-1.157-17.572 7.26-17.993 15.995-.526 10.312 7.892 27.358 19.887 26.2 4.63-.42 5.788-5.05 10.838-5.05 2.736 5.472-4.208 7.155-4.945 11.048-.21 1.053.526 4.946 1.052 6.84 2.21 8.944 7.05 20.623 11.785 27.463 6.103 8.733 17.994 9.996 30.83 10.838 2.316-4.946 10.734-4.525 16.205-3.262-6.628-2.63-12.731-8.944-17.782-14.52-5.788-6.42-11.68-13.258-11.996-21.676 11.049 15.257 20.098 28.62 40.09 35.355 15.153 5.05 32.83-2.316 44.51-10.522 4.84-3.369 7.681-8.84 11.154-13.68 12.837-18.52 18.835-44.826 17.572-70.395-.526-10.522-.526-21.045-4.104-28.095-3.682-7.366-16.204-14.1-23.57-7.366-1.368-7.26 6.103-11.68 14.836-9.049-6.207-8.102-12.73-17.678-21.676-22.729zm28.831 237.913c12.101-5.998 34.62-16.1 42.09 0 2.842 5.997 6.103 15.994 7.471 22.202 1.999 8.629-2.21 26.938-11.154 29.778-7.892 2.526-17.046 2.42-26.516.527-1.158-.947-2.315-2.526-3.262-4.21-6.734-.21-13.153.317-18.415 3.158.526 5.05-2.84 5.787-6.103 6.84-2.315 9.364 4.735 21.57 3.052 29.987-1.158 6.103-8.629 7.05-14.1 8.102-.21 3.368.21 6.21.631 9.05-1.261 4.63-6.84 7.26-12.205 7.892-17.572 2.104-44.194 3.051-61.03-3.052-4.736-11.574-8.418-25.569-12.312-38.721-16.415 1.788-29.778-7.051-42.3-12.943-4.314-2-10.312-3.157-11.996-6.63-1.578-3.366-.947-9.785-1.368-15.783-.947-15.468-1.894-30.41-5.892-46.194-1.789-7.155-5.05-13.363-7.26-20.202-2.105-6.314-5.683-14.206-6.63-20.52-1.368-9.364 7.471-9.89 13.048-13.995 8.734-6.313 15.573-9.786 25.043-15.468 2.842-1.683 11.26-5.892 12.206-7.892 1.895-3.891-3.26-9.363-4.629-12.415-2.21-4.84-3.368-8.944-3.683-13.68-7.892-1.262-13.995-5.997-17.572-11.258-5.999-8.84-10.208-25.15-4.946-37.46.421-.947 2.42-2.947 2.736-4.42.631-2.946-1.158-6.84-1.263-9.996-.526-16.1 2.736-29.99 13.574-34.83 4.42-17.572 20.202-23.359 35.04-32.093 5.577-3.262 11.68-5.366 17.993-7.682 22.623-8.311 57.453-6.734 76.287 7.471 7.997 5.998 20.73 18.73 25.254 27.99 12.1 24.307 11.154 65.029 2.736 94.703-1.158 3.998-2.736 9.785-5.05 14.626-1.579 3.367-6.525 9.996-5.999 12.942.632 3.052 11.365 11.153 13.68 13.363 4.104 3.998 11.995 9.26 12.626 14.311.737 5.366-2.314 12.732-3.892 17.888-5.052 17.257-10.102 33.146-15.89 48.614z" fill="#231f20"/><path d="M204.103 160.592c.63-.842 4.208-2.21 9.259.21 0 0-5.998.948-5.472 10.945l-2.525-.527c.106.106-2.525-8.944-1.262-10.628" fill="#f7e4cd"/><path d="M247.665 246.034c0 1.473-1.262 2.736-2.736 2.736-1.473 0-2.736-1.263-2.736-2.736 0-1.474 1.263-2.736 2.736-2.736 1.579 0 2.736 1.262 2.736 2.736m2.736 12.732c0 1.474-1.262 2.736-2.736 2.736-1.473 0-2.736-1.262-2.736-2.736 0-1.474 1.263-2.736 2.736-2.736 1.579 0 2.736 1.158 2.736 2.736" fill="#1d1919"/></svg>