<svg height="25" preserveAspectRatio="xMidYMid" width="25" viewBox="-165.831 -227.122 5.702 7.974" xmlns="http://www.w3.org/2000/svg"><path style="fill:#fff;stroke:#ffe680;stroke-width:0;stroke-linecap:round;stroke-linejoin:round" d="M-166.995-227.094h7.997v7.912h-7.997z"/><path d="M-160.235-223.163a.684.684 0 0 0-.756-.68l.94-2.773h-3.995l.939 2.77a.686.686 0 0 0-.042-.001.684.684 0 0 0-.208 1.336 2.99 2.99 0 0 1-.538.678 2.74 2.74 0 0 1-.959.595c-.418-.215-.615-.692-.437-1.11l.06-.144a.684.684 0 1 0-.549-.106c-.169.386-.418.79-.495 1.258-.093.56 0 1.155.484 1.491 1.13.783 2.355-.485 3.648-.804.468-.115.982-.097 1.395-.335.31-.18.514-.477.572-.811a1.218 1.218 0 0 0-.218-.925.681.681 0 0 0 .159-.439" fill="#99425b"/><path d="M-160.34-221.828c-.051.29-.23.543-.492.695-.244.141-.537.183-.846.228a5.215 5.215 0 0 0-.505.09c-.444.11-.873.323-1.288.529-.83.412-1.548.769-2.225.3-.495-.344-.472-.979-.415-1.327.054-.323.199-.62.338-.907a20.753 20.753 0 0 0 .071-.147.845.845 0 0 0 .22.055c-.142.47.082.981.552 1.223l.064.033.068-.025a2.896 2.896 0 0 0 1.018-.63c.196-.186.365-.39.504-.61a.854.854 0 0 0 .127.01.853.853 0 0 0 .844-.74c.176-.006.364-.006.542 0a.853.853 0 0 0 1.329.587c.096.196.131.416.093.636zm-5.047-1.847a.518.518 0 1 1-.18 1.002.52.52 0 0 1-.269-.229.514.514 0 0 1-.068-.256c0-.285.232-.517.517-.517zm1.72.512a.518.518 0 0 1 .926-.317.518.518 0 0 1 .06.098.514.514 0 0 1 .05.22.517.517 0 0 1-.518.516.514.514 0 0 1-.28-.082.517.517 0 0 1-.237-.435zm2.16-.615a.852.852 0 0 0-.235.394 7.94 7.94 0 0 0-.585 0 .853.853 0 0 0-.256-.414l.535-1.083Zm-2.306-2.67h3.528l-.833 2.457a.846.846 0 0 0-.106.033l-.823-1.68-.825 1.67a.847.847 0 0 0-.11-.03zm3.41 3.285a.516.516 0 0 1-.021.15.52.52 0 0 1-.2.274.514.514 0 0 1-.296.093.518.518 0 0 1-.499-.383.516.516 0 0 1-.018-.134c0-.07.015-.138.04-.2a.517.517 0 0 1 .05-.089.517.517 0 0 1 .945.29zm.335 0c0-.415-.3-.762-.694-.836l.944-2.784h-4.461l.945 2.79a.853.853 0 0 0-.264 1.553 2.854 2.854 0 0 1-.412.485c-.25.236-.529.415-.83.533-.302-.19-.43-.549-.297-.861l.01-.025.02-.046a.853.853 0 0 0-.28-1.655.853.853 0 0 0-.597 1.457 14.399 14.399 0 0 1-.09.185c-.142.295-.305.629-.366 1-.122.735.074 1.323.554 1.656.29.201.586.28.884.28.56 0 1.126-.28 1.68-.556.399-.198.811-.403 1.219-.503.151-.038.307-.06.472-.084.328-.047.667-.096.967-.27.347-.201.585-.54.653-.927a1.38 1.38 0 0 0-.182-.949.846.846 0 0 0 .125-.443z" fill="#fff"/></svg>