<svg width="2500" height="2500" viewBox="0 0 328.037 328" preserveAspectRatio="xMidYMid" xmlns="http://www.w3.org/2000/svg"><path style="fill:#fff;stroke:#ffe680;stroke-width:0;stroke-linecap:round;stroke-linejoin:round" d="M1.39 1.372h325.257v325.257H1.39z"/><path d="M208.756 103.772c124.26 61.836 66.438 178.909-41.539 184.926a67.648 67.648 0 0 1-13.683-.633C50.709 272.791 13.848 169.27 110.814 108.352c29.544-18.561 66.705-20.126 97.942-4.58" fill="#794422"/><path d="M200.968 286.137c54.407-31.4 79.585-120.5 34.024-198.646 2.574-13.669 4.118-26.44 4.335-38.051.428-3.761-3.219-6.678-6.793-5.436-10.655 2.61-20.912 6.122-30.707 10.67-7.417-5.167-15.086-6.91-21.383-7.243-3.427-.18-2.132-5.33-1.855-7.221 1.628-3.565 3.172-6.554 7.004-9.972 2.66-2.434-.677-5.78-3.731-3.863-4.975 2.376-8.083 4.775-11.586 8.27-.995.74-2.186.67-3.042.51-.612-.114-1.057-.672-1.124-1.291-.751-6.9.029-13.088 6.064-17.743 1.136-.877-.005-2.559-1.31-2.16-10.073 3.074-14.442 10.041-17.935 18.655-2.805-1.971-6.087-3.695-9.821-5.185-.632-.334-1.457-.548-2.026-.118-1.022.771-2.292 1.57-1.702 2.946 3.963 5.741 7.945 11.332 12.174 14.99-10.012 2.125-19.481 5.624-28.277 10.823L89.892 43.23c-4.357-1.674-8.907 1.956-8.239 6.576 1.91 19.832 3.871 38.99 6.712 46.412-38.91 80.11-14.984 160.453 36.808 189.92H44.726v27.23H278.98v-27.23h-78.012z" fill="#502d17"/><path d="M162.552 111.756c14.924-36.92 47.842-41.666 71.218-18.068 19.402 19.587 19.9 73.576-27.23 83.526 47.915 39.798 15.186 107.35-39.538 107.35-54.984-.784-90.07-67.027-39.012-107.874-47.654 2.096-55.782-47.73-38.49-76.456 15.812-26.269 61.531-30.372 73.052 11.521" fill="#fff"/><path d="M184.284 161.765c1.34-1.931 1.27-4.481-.095-6.396-4.57-6.405-11.116-11.67-20.59-11.67-9.724 0-15.503 5.281-20.815 12.306-1.388 1.833-1.485 4.365-.217 6.283 3.99 6.035 10.858 11.627 18.62 17.363a3.925 3.925 0 0 0 4.771-.078c7.297-5.762 14.11-11.728 18.326-17.808" fill="#ff7f2b"/><path d="M218.06 126.07c0 17.135-11.276 30.676-24.219 30.676-12.943 0-23.435-13.89-23.435-31.026 0-17.137 10.492-31.027 23.435-31.027 12.943 0 24.22 14.239 24.22 31.375zm-63.713 3.054c0 17.136-11.277 30.678-24.22 30.678-12.942 0-23.433-13.892-23.433-31.028 0-17.135 10.491-31.027 23.434-31.027 12.942 0 24.22 14.24 24.22 31.377z" fill="#b1dfec"/><path d="M209.07 129.734c0 11.233-7.02 20.256-15.141 20.256-8.122 0-15.056-9.11-15.056-20.342 0-11.234 6.934-20.337 15.056-20.337s15.142 9.19 15.142 20.424zm-63.188-.349c0 11.234-7.02 20.256-15.143 20.256-8.122 0-15.056-9.11-15.056-20.343s6.935-20.336 15.057-20.336 15.141 9.19 15.141 20.423z"/><path d="M197.376 119.96c0 3.422-2.736 6.196-6.11 6.196s-6.109-2.774-6.109-6.197c0-3.422 2.735-6.196 6.109-6.196 3.375 0 6.11 2.774 6.11 6.196zm-58.564-.35c0 3.422-2.736 6.197-6.11 6.197-3.373 0-6.108-2.775-6.108-6.197s2.735-6.197 6.108-6.197c3.375 0 6.11 2.775 6.11 6.197z" fill="#fff"/><path d="M111.494 299.14s-.175 7.42 4.8 7.507c1.56 4.686 7.068 4.661 7.943.61h6.284s-.611 3.23 3.142 3.143c3.752-.087 3.403-3.404 3.403-3.404h5.935s-.873 3.404 2.968 3.404c3.84 0 3.656-3.9 3.656-3.9 2.157-1.356 4.68-1.25 4.68-5.44 0-.912-.22-1.907-.64-2.939-2.274-5.581-10.459-12.204-21.922-12.247-7.357.049-14.212 4.536-18.765 8.947-1.397 1.352-1.484 4.32-1.484 4.32zm103.859 0s.002 7.68-4.973 7.77c-.785 4.45-7.188 4.397-7.77.347h-6.284s.437 3.23-3.316 3.143c-3.753-.087-3.23-3.404-3.23-3.404h-5.934s.698 3.404-3.142 3.404-3.481-3.9-3.481-3.9c-2.158-1.356-4.68-1.25-4.68-5.44 0-.912.22-1.907.639-2.939 2.275-5.581 10.459-12.204 21.923-12.247 7.357.049 13.54 4.49 18.33 8.641 1.92 2.008 1.918 4.626 1.918 4.626z" fill="#ff7f2b"/></svg>