<svg width="25" height="25" version="1.2" viewBox="0 0 18.75 18.75" xmlns="http://www.w3.org/2000/svg"><path style="fill:#fff;stroke:#ffe680;stroke-width:0;stroke-linecap:round;stroke-linejoin:round" d="M.113 0h18.579v18.804H.113z"/><g fill="#689f63"><path d="M7.796 17.252c-.21 0-.42-.055-.606-.162l-1.93-1.143c-.289-.161-.148-.218-.053-.251.384-.135.462-.165.873-.398.043-.025.1-.016.143.01l1.484.88c.053.03.129.03.179 0l5.782-3.338a.182.182 0 0 0 .088-.156V6.021a.186.186 0 0 0-.089-.159l-5.78-3.335a.178.178 0 0 0-.178 0l-5.78 3.335a.184.184 0 0 0-.09.158v6.673c0 .063.034.124.089.155l1.583.914c.86.43 1.386-.076 1.386-.586V6.59c0-.094.073-.166.168-.166h.732c.091 0 .166.072.166.166v6.589c0 1.146-.625 1.805-1.712 1.805-.334 0-.598 0-1.333-.362l-1.517-.874a1.223 1.223 0 0 1-.606-1.055V6.02c0-.434.231-.84.606-1.054L7.19 1.627a1.268 1.268 0 0 1 1.216 0l5.781 3.34c.374.216.607.62.607 1.054v6.673c0 .433-.233.837-.607 1.054l-5.78 3.339a1.215 1.215 0 0 1-.61.162"/><path d="M9.583 12.654c-2.53 0-3.061-1.161-3.061-2.135 0-.093.075-.167.167-.167h.747c.083 0 .152.06.165.142.113.76.449 1.145 1.979 1.145 1.219 0 1.737-.276 1.737-.922 0-.372-.148-.648-2.041-.834-1.584-.156-2.562-.505-2.562-1.771 0-1.167.984-1.862 2.633-1.862 1.851 0 2.769.643 2.885 2.024a.168.168 0 0 1-.168.182h-.752a.166.166 0 0 1-.162-.13c-.18-.8-.618-1.057-1.806-1.057-1.33 0-1.485.464-1.485.811 0 .421.182.544 1.977.782 1.778.236 2.621.568 2.621 1.818 0 1.259-1.05 1.981-2.883 1.981m7.043-7.076h.194c.16 0 .19-.112.19-.177 0-.17-.117-.17-.183-.17h-.2zm-.236-.547h.43c.148 0 .437 0 .437.33 0 .23-.147.277-.236.306.173.012.184.125.207.284.012.1.03.272.066.33h-.265c-.008-.058-.048-.376-.048-.394-.018-.07-.042-.105-.13-.105h-.219v.5h-.242zm-.516.622c0 .518.418.938.932.938a.935.935 0 1 0-.001-1.87.93.93 0 0 0-.933.93m2.05.005c0 .614-.503 1.114-1.115 1.114a1.117 1.117 0 0 1-1.114-1.114 1.114 1.114 0 1 1 2.228 0"/></g></svg>