<svg width="2500" height="2383" viewBox="0 0 256 244" preserveAspectRatio="xMidYMid" xmlns="http://www.w3.org/2000/svg"><path style="fill:#fff;stroke:#ffe680;stroke-width:0;stroke-linecap:round;stroke-linejoin:round" d="M1.034 1.024h254.359v241.951H1.034z"/><path d="M170.6 163.112c8.15-.844 14.332-7.87 14.051-16.301-.28-8.431-7.307-15.177-15.738-15.177h-.561c-8.713.282-15.458 7.589-15.177 16.3.282 4.217 1.967 7.87 4.497 10.4-9.555 18.83-24.169 32.6-46.09 44.123-14.894 7.87-30.351 10.68-45.808 8.713-12.646-1.686-22.483-7.306-28.666-16.582-8.993-13.77-9.836-28.667-2.248-43.561 5.34-10.68 13.77-18.55 19.11-22.484-1.124-3.654-2.81-9.837-3.653-14.333-40.75 29.51-36.534 69.418-24.169 88.247 9.274 14.053 28.104 22.766 48.9 22.766 5.62 0 11.24-.563 16.862-1.967 35.973-7.027 63.233-28.387 78.69-60.144zm49.462-34.85c-21.359-25.013-52.834-38.784-88.807-38.784h-4.496c-2.53-5.059-7.87-8.432-13.771-8.432h-.563c-8.711.282-15.455 7.588-15.175 16.301.281 8.431 7.307 15.177 15.738 15.177h.561c6.183-.282 11.523-4.216 13.771-9.556h5.059c21.359 0 41.593 6.183 59.86 18.268 14.052 9.274 24.17 21.36 29.79 35.973 4.777 11.804 4.496 23.327-.563 33.164-7.868 14.895-21.076 23.046-38.5 23.046-11.242 0-21.921-3.373-27.542-5.903-3.091 2.81-8.713 7.307-12.647 10.118 12.085 5.62 24.45 8.713 36.254 8.713 26.979 0 46.933-14.896 54.52-29.791 8.15-16.301 7.588-44.405-13.489-68.294zM77.296 167.888c.282 8.432 7.307 15.177 15.738 15.177h.563c8.712-.28 15.456-7.589 15.175-16.3-.28-8.432-7.307-15.177-15.738-15.177h-.562c-.562 0-1.406 0-1.966.28-11.523-19.11-16.3-39.907-14.614-62.39C77.015 72.614 82.636 58 92.472 45.914c8.15-10.399 23.888-15.458 34.568-15.738 29.789-.562 42.435 36.535 43.278 51.43 3.654.844 9.837 2.812 14.053 4.217-3.373-45.529-31.477-69.137-58.455-69.137-25.294 0-48.62 18.268-57.894 45.249-12.927 35.973-4.497 70.541 11.241 97.803-1.404 1.967-2.248 5.058-1.967 8.15z" fill="#764abc" style="stroke-width:.862675"/></svg>