<svg width="2500" height="2500" viewBox="0 0 512 512" xmlns="http://www.w3.org/2000/svg"><path style="fill:#fff;stroke:#ffe680;stroke-width:0;stroke-linecap:round;stroke-linejoin:round" d="M-1.627 0h510.915v507.661H-1.627z"/><path fill="#cf649a" d="M424.16 279.505c-16.307.092-30.428 4.009-42.27 9.84-4.374-8.655-8.747-16.217-9.474-21.864-.82-6.56-1.822-10.569-.82-18.403 1-7.835 5.556-18.95 5.556-19.86-.092-.82-1.003-4.829-10.386-4.92-9.382-.091-17.49 1.822-18.402 4.282-.911 2.46-2.733 8.108-3.917 13.938-1.64 8.564-18.767 38.9-28.515 54.843-3.188-6.195-5.921-11.661-6.469-16.035-.819-6.558-1.822-10.567-.819-18.401 1.002-7.836 5.557-18.95 5.557-19.86-.09-.82-1.002-4.829-10.384-4.92-9.385-.09-17.492 1.822-18.403 4.282-.91 2.46-1.913 8.29-3.917 13.938-1.914 5.649-24.69 56.3-30.61 69.51-3.007 6.742-5.648 12.117-7.562 15.76-1.913 3.645-.091.274-.274.639-1.64 3.097-2.55 4.828-2.55 4.828v.092c-1.276 2.278-2.642 4.463-3.281 4.463-.455 0-1.367-6.104.182-14.484 3.37-17.584 11.57-45.004 11.48-46.006 0-.456 1.548-5.285-5.285-7.744-6.65-2.46-9.018 1.64-9.566 1.64-.546 0-1.002 1.458-1.002 1.458s7.38-30.883-14.12-30.883c-13.483 0-32.068 14.668-41.269 28.06-5.83 3.188-18.22 9.929-31.339 17.127-5.01 2.733-10.203 5.648-15.122 8.29l-1.002-1.095c-26.055-27.786-74.247-47.464-72.243-84.815.73-13.574 5.466-49.377 92.56-92.741 71.332-35.53 128.452-25.782 138.381-4.1 14.12 30.975-30.519 88.55-104.674 96.84-28.241 3.19-43.092-7.743-46.826-11.842-3.917-4.282-4.464-4.464-5.921-3.644-2.369 1.275-.911 5.101 0 7.379 2.186 5.74 11.296 15.942 26.783 21.044 13.573 4.464 46.735 6.924 86.82-8.563 44.912-17.4 79.986-65.684 69.692-106.042-10.477-41.086-78.62-54.57-143.029-31.703-38.354 13.665-79.896 34.983-109.777 62.95-35.53 33.161-41.178 62.132-38.81 74.157 8.292 42.908 67.415 70.876 91.102 91.556-1.185.637-2.278 1.275-3.28 1.822-11.843 5.83-56.938 29.426-68.235 54.387-12.754 28.24 2.005 48.557 11.844 51.29 30.427 8.473 61.584-6.741 78.437-31.794 16.762-25.053 14.759-57.576 7.015-72.425l-.274-.547 9.292-5.466c6.014-3.553 11.935-6.832 17.127-9.657-2.914 7.925-5.01 17.309-6.103 30.974-1.275 16.035 5.284 36.805 13.939 45.004 3.826 3.552 8.381 3.644 11.205 3.644 10.021 0 14.576-8.291 19.587-18.22 6.195-12.117 11.66-26.146 11.66-26.146s-6.832 37.989 11.844 37.989c6.833 0 13.665-8.837 16.763-13.392v.091s.182-.273.546-.91a32.915 32.915 0 0 0 1.093-1.73v-.183c2.733-4.737 8.837-15.578 17.947-33.525 11.751-23.14 23.049-52.11 23.049-52.11s1.093 7.106 4.464 18.767c2.003 6.924 6.376 14.485 9.747 21.864-2.733 3.826-4.373 6.014-4.373 6.014l.09.09c-2.185 2.916-4.645 6.014-7.195 9.11-9.292 11.115-20.407 23.779-21.864 27.423-1.731 4.28-1.367 7.47 2.004 10.021 2.46 1.822 6.832 2.186 11.479 1.822 8.38-.547 14.211-2.642 17.127-3.918 4.555-1.64 9.747-4.1 14.758-7.744 9.11-6.74 14.667-16.306 14.12-29.06-.273-7.015-2.55-13.938-5.374-20.498.82-1.184 1.64-2.37 2.46-3.644 14.393-21.045 25.508-44.184 25.508-44.184s1.093 7.106 4.464 18.767c1.73 5.922 5.192 12.39 8.29 18.768-13.483 11.023-21.956 23.777-24.87 32.158-5.376 15.488-1.185 22.502 6.74 24.142 3.553.729 8.655-.91 12.48-2.55 4.738-1.55 10.477-4.192 15.762-8.109 9.11-6.741 17.856-16.124 17.4-28.787-.273-5.83-1.822-11.57-3.917-17.036 11.479-4.738 26.327-7.47 45.186-5.193 40.54 4.737 48.557 30.063 47.009 40.63-1.549 10.57-10.021 16.4-12.846 18.221-2.824 1.731-3.735 2.37-3.462 3.644.364 1.914 1.64 1.822 4.1 1.459 3.37-.548 21.317-8.655 22.046-28.15 1.093-25.056-22.684-52.386-64.864-52.114zM111.502 384.91c-13.392 14.667-32.25 20.224-40.267 15.487-8.655-5.01-5.285-26.601 11.205-42.18 10.022-9.474 23.049-18.22 31.612-23.595 1.914-1.184 4.829-2.914 8.29-5.01.547-.364.912-.547.912-.547.637-.364 1.366-.82 2.095-1.275 6.104 22.228.273 41.724-13.847 57.12zm97.933-66.595c-4.646 11.388-14.485 40.631-20.406 38.991-5.103-1.366-8.2-23.504-1.003-45.368 3.644-11.024 11.387-24.142 15.942-29.244 7.38-8.2 15.396-10.932 17.401-7.562 2.369 4.374-9.019 36.077-11.934 43.183zm80.807 38.627c-2.005 1.003-3.827 1.73-4.646 1.185-.638-.364.819-1.73.819-1.73s10.112-10.842 14.12-15.852c2.278-2.915 5.01-6.285 7.926-10.113v1.094c0 13.117-12.571 21.863-18.22 25.416zm62.312-14.212c-1.458-1.093-1.275-4.464 3.644-15.032 1.914-4.19 6.286-11.205 13.847-17.855.911 2.733 1.459 5.374 1.367 7.834-.09 16.399-11.751 22.502-18.858 25.053z" style="stroke-width:.911009"/></svg>