<svg width="2500" height="2500" viewBox="0 0 256 256" preserveAspectRatio="xMinYMin meet" xmlns="http://www.w3.org/2000/svg"><path style="fill:#fff;stroke:#ffe680;stroke-width:0;stroke-linecap:round;stroke-linejoin:round" d="M-1.085 1.085h256v252.746h-256z"/><path d="M229.305 150.075c12.11-12.11 12.11-31.815 0-43.925-5.865-5.867-13.665-9.096-21.962-9.096-1.97 0-3.909.18-5.8.533 8.243-5.639 13.586-15.12 13.586-25.664 0-17.126-13.934-31.06-31.06-31.06-10.564 0-20.063 5.364-25.698 13.636 1.864-9.833-1.06-20.343-8.53-27.813-5.864-5.866-13.665-9.097-21.96-9.097-8.297 0-16.097 3.23-21.963 9.097-7.47 7.47-10.394 17.98-8.53 27.813-5.635-8.271-15.133-13.635-25.698-13.635-17.125 0-31.058 13.932-31.058 31.06 0 10.543 5.34 20.024 13.584 25.663a31.535 31.535 0 0 0-5.8-.533c-8.297 0-16.096 3.23-21.962 9.097-5.867 5.866-9.098 13.666-9.098 21.961 0 8.297 3.23 16.096 9.097 21.963 5.866 5.866 13.666 9.097 21.961 9.097 1.97 0 3.91-.18 5.801-.534-8.243 5.64-13.584 15.121-13.584 25.665 0 17.125 13.932 31.058 31.058 31.058 10.565 0 20.064-5.364 25.698-13.635-1.864 9.834 1.06 20.344 8.53 27.813 5.867 5.866 13.667 9.097 21.962 9.097 8.297 0 16.097-3.23 21.963-9.097 7.47-7.47 10.393-17.98 8.53-27.813 5.634 8.271 15.133 13.635 25.697 13.635 17.126 0 31.059-13.932 31.059-31.058 0-10.544-5.341-20.026-13.586-25.665a31.49 31.49 0 0 0 5.801.534c8.297 0 16.097-3.231 21.962-9.097" style="stroke-width:.864271"/><path d="M219.933 115.516c-6.956-6.955-18.235-6.955-25.192 0h-36.458l25.78-25.78c9.838 0 17.813-7.975 17.813-17.813s-7.975-17.814-17.813-17.814-17.813 7.976-17.813 17.814l-25.78 25.78V61.245c6.956-6.956 6.956-18.235 0-25.191-6.958-6.958-18.237-6.958-25.193 0-6.957 6.957-6.957 18.236 0 25.191v36.46l-25.78-25.782c0-9.837-7.975-17.812-17.813-17.812s-17.813 7.975-17.813 17.812c0 9.84 7.975 17.815 17.812 17.815l25.781 25.78H61.005c-6.957-6.957-18.236-6.956-25.193 0-6.956 6.957-6.956 18.235 0 25.193 6.957 6.955 18.236 6.955 25.193 0h36.458l-25.779 25.778c-9.838 0-17.813 7.975-17.813 17.813 0 9.839 7.975 17.814 17.812 17.814 9.839 0 17.814-7.975 17.814-17.813l25.78-25.78v36.458c-6.957 6.956-6.957 18.236 0 25.192 6.957 6.957 18.236 6.957 25.193 0 6.956-6.957 6.956-18.236 0-25.193v-36.458l25.78 25.78c0 9.839 7.975 17.813 17.813 17.813s17.814-7.974 17.814-17.812c0-9.84-7.976-17.814-17.814-17.814l-25.78-25.78h36.458c6.958 6.957 18.237 6.957 25.192 0 6.958-6.957 6.958-18.236 0-25.193" fill="#ffb13b" style="stroke-width:.864271"/></svg>