<svg width="50mm" height="25mm" viewBox="0 0 50 25" version="1.1" id="svg20707" xml:space="preserve" xmlns="http://www.w3.org/2000/svg"><defs id="defs20704"><clipPath id="clip0_2484_23295"><path fill="#fff" id="rect29472" d="M0 0h228v95H0z"/></clipPath></defs><g id="layer1"><g transform="matrix(.02434 0 0 .02434 18.178 -2.918)" id="g25634" style="fill:#b3b3b3"><path fill="#5514b4" d="M300 139.8c-275.9 0-499.5 223.6-499.5 499.5S24.1 1138.8 300 1138.8s499.5-223.7 499.5-499.5S575.8 139.8 300 139.8Zm-.2 61.6c242.2 0 438.5 196.3 438.5 438.5S542 1078.4 299.8 1078.4-138.7 882-138.7 639.9 57.6 201.4 299.8 201.4z" id="path25628" style="fill:#b3b3b3"/><path fill="#5514b4" d="M51 468.6v340.1h138.4c62.9 0 111.2-39.3 111.2-101.5 0-54.8-42.8-75.8-42.8-75.8s32.9-21 32.9-67.6c0-54.2-42.8-95.2-105.9-95.2zm76.6 66.4h40.9c29.1 0 41.7 14.9 41.7 33.4 0 20-14.4 32.7-39.8 32.7h-42.8zm0 134.2h40.9c29.1 0 41.7 14.9 41.7 33.4 0 20-14.4 32.7-39.8 32.7h-42.8z" id="path25630" style="fill:#b3b3b3"/><path fill="#5514b4" d="M403.3 807.6v-261h-76.5V468h238v78.6H485v261z" id="path25632" style="fill:#b3b3b3"/></g></g><style id="style30964">.st1{fill:#02549f}.st0{fill:#fff}</style></svg>