<svg width="50mm" height="25mm" viewBox="0 0 50 25" version="1.1" id="svg20707" xml:space="preserve" xmlns="http://www.w3.org/2000/svg"><defs id="defs20704"><clipPath id="clip0_2484_23295"><path fill="#fff" id="rect29472" d="M0 0h228v95H0z"/></clipPath></defs><g id="layer1"><path d="M26.952 3.48c-.043.044-.311.095-.625.119-.398.03-.517.058-.626.142a.833.833 0 0 1-.247.11c-.112.028-.178.061-.22.108a.44.44 0 0 1-.2.108.543.543 0 0 0-.224.123.494.494 0 0 1-.171.106c-.064.018-.093.042-.111.096a.181.181 0 0 1-.11.107.271.271 0 0 0-.121.107.268.268 0 0 1-.117.105.18.18 0 0 0-.105.106.225.225 0 0 1-.099.11.345.345 0 0 0-.12.131c-.03.057-.07.098-.107.107-.042.01-.063.037-.075.093a.524.524 0 0 1-.151.273.47.47 0 0 0-.098.17c-.031.116-.075.156-.23.21-.207.073-.255.005-.297-.414-.03-.298-.05-.375-.108-.397-.044-.017-.131-.194-.132-.27 0-.03-.035-.078-.083-.114a.477.477 0 0 1-.121-.143.25.25 0 0 0-.097-.107.2.2 0 0 1-.085-.084.323.323 0 0 0-.119-.11.347.347 0 0 1-.123-.114c-.02-.042-.064-.072-.135-.093a.7.7 0 0 1-.2-.107.714.714 0 0 0-.272-.12c-.185-.046-.258-.077-.324-.134-.097-.084-4.18-.138-4.225-.056-.011.02-.015 1.156-.008 2.525.013 2.814.022 2.559-.092 2.605-.112.045-.15.015-.22-.171a.848.848 0 0 0-.135-.228.907.907 0 0 1-.132-.198c-.033-.076-.069-.115-.127-.14a.268.268 0 0 1-.117-.104c-.041-.079-.142-.127-.362-.172-.216-.044-.374-.161-.41-.304-.022-.088.325-.405.476-.436.06-.012.088-.037.122-.11a.34.34 0 0 1 .063-.102c.067-.026.104-.09.146-.252.026-.102.082-.242.124-.31l.077-.125-.001-.491c-.001-.503-.008-.546-.105-.67a.764.764 0 0 1-.082-.238c-.03-.15-.048-.187-.111-.236a.346.346 0 0 1-.097-.116.279.279 0 0 0-.106-.107.336.336 0 0 1-.114-.11c-.02-.042-.064-.072-.134-.093a.694.694 0 0 1-.2-.106.709.709 0 0 0-.296-.124.783.783 0 0 1-.27-.104c-.054-.045-.112-.06-.305-.08-.228-.024-3.688-.042-3.71-.02-.016.016-.012 8.24.004 8.28.019.05.212.072.369.042.076-.014.66-.024 1.446-.024.923 0 1.467-.01 1.81-.035.622-.045.648-.05.768-.137a.71.71 0 0 1 .289-.11c.16-.031.193-.046.218-.098a.286.286 0 0 1 .12-.105.338.338 0 0 0 .13-.11.333.333 0 0 1 .104-.104.312.312 0 0 0 .104-.118.321.321 0 0 1 .11-.121c.04-.023.071-.06.071-.087 0-.094.076-.255.154-.326.063-.059.083-.1.097-.198.031-.226.135-.295.297-.196.08.049.08.05.063.173-.03.202-.05 1.43-.026 1.545.022.1.025.103.096.087.354-.078 1.4-.086 1.545-.012.164.084.306-.058.262-.262-.042-.19-.034-2.234.008-2.314.051-.097.091-.11.177-.058a.704.704 0 0 0 .13.061c.088.027.139.083.165.18a.487.487 0 0 0 .107.173.407.407 0 0 1 .095.148l.026.12c.007.033.053.101.104.151a.438.438 0 0 1 .123.215c.026.098.046.13.1.152.049.02.079.061.115.158a1.124 1.124 0 0 0 .132.24c.046.06.084.134.084.164 0 .034.033.081.09.126a.469.469 0 0 1 .134.188c.025.063.07.138.102.165a.47.47 0 0 1 .1.167c.031.09.061.128.12.158a.68.68 0 0 1 .125.081c.043.039.05.039.136-.004.156-.077 1.82-.068 1.963.012.118.065.186.054.164-.027a.546.546 0 0 1-.014-.114c0-.046-.019-.068-.074-.088-.051-.02-.084-.056-.11-.124-.025-.063-.06-.105-.106-.123a.172.172 0 0 1-.095-.112.247.247 0 0 0-.106-.13c-.061-.036-.088-.077-.126-.195-.036-.112-.064-.157-.113-.181a.29.29 0 0 1-.11-.138c-.024-.058-.059-.105-.077-.105-.044 0-.137-.102-.137-.15a.6.6 0 0 0-.12-.177.938.938 0 0 1-.145-.218c-.014-.042-.04-.078-.056-.078-.044 0-.1-.071-.131-.17-.02-.062-.046-.093-.088-.103-.042-.01-.074-.047-.105-.12a.27.27 0 0 0-.113-.137c-.076-.037-.124-.148-.126-.296-.002-.141.044-.19.214-.226.111-.024.157-.047.192-.097a.262.262 0 0 1 .153-.092.488.488 0 0 0 .206-.122c.069-.067.129-.101.194-.112.08-.012.103-.03.141-.105a.231.231 0 0 1 .114-.113c.056-.02.075-.048.107-.164.056-.202.083-.228.248-.251.245-.035.289.03.294.434.004.376.042.611.11.678.067.068.103.184.124.41.014.142.026.177.083.23a.64.64 0 0 1 .15.314c.01.04.043.08.088.104a.268.268 0 0 1 .11.124c.046.11.151.239.443.542l.303.317a.586.586 0 0 0 .183.117c.074.029.122.065.14.105.034.077.08.114.164.13.04.01.08.041.103.087.02.04.042.072.047.072.116 0 .376.087.464.156a.536.536 0 0 0 .192.097c.192.03.329.073.405.124.133.09.251.104 1.01.118 1.005.018 1.33-.012 1.485-.137a.651.651 0 0 1 .245-.08c.143-.026.202-.049.266-.105.086-.075.152-.1.381-.148.107-.022.145-.042.165-.085a.2.2 0 0 1 .1-.084c.138-.052.172-.074.195-.125a.374.374 0 0 1 .134-.112 1.337 1.337 0 0 0 .209-.15.524.524 0 0 1 .16-.105c.04-.01.072-.045.096-.103a.724.724 0 0 1 .13-.182c.225-.229.299-.318.35-.42a.34.34 0 0 1 .113-.136c.045-.021.063-.057.086-.177.024-.121.046-.165.113-.227.067-.06.091-.109.12-.236a.546.546 0 0 1 .106-.239c.079-.09.117-.378.117-.892 0-.467.055-.597.247-.585.204.012.258.125.316.656.01.091.03.147.058.167.076.055.097.132.133.486.031.307.042.359.094.42.074.088.102.178.132.425.02.153.038.215.083.269.075.088.098.166.147.487.021.144.053.284.07.311.054.086.104.28.142.547.035.246.04.261.127.347.05.049.102.108.115.131.022.04.032.038.143-.017.17-.084 1.143-.093 1.275-.013.093.057.163.062.182.013a.341.341 0 0 1 .107-.094l.093-.06.03-.234c.03-.242.06-.335.142-.439.036-.045.057-.138.086-.383.031-.259.053-.351.11-.466a1.51 1.51 0 0 0 .104-.335c.041-.236.054-.272.123-.347.04-.045.063-.12.092-.301.034-.217.095-.441.156-.573a1.3 1.3 0 0 0 .05-.215c.057-.351.073-.41.133-.474.048-.052.064-.104.084-.274.046-.393.101-.485.295-.485.206 0 .241.07.277.532.02.273.031.326.083.4.077.111.099.18.145.463.03.181.052.247.095.29.073.073.1.179.13.515.02.222.034.283.075.326.06.065.102.2.142.466.025.163.044.219.1.282a.528.528 0 0 1 .068.089c0 .175.086.536.143.602.059.066.07.104.085.287.033.394.09.446.43.391.274-.045 1.108-.022 1.354.037.066.016.09-.027.164-.295a.407.407 0 0 1 .074-.15c.032-.032.058-.119.085-.291.04-.256.072-.348.152-.45.037-.046.056-.137.086-.405.037-.327.074-.465.131-.484.019-.006.119-.486.12-.575 0-.009.029-.05.064-.092.054-.064.149-.441.151-.6 0-.008.032-.055.07-.103.057-.07.073-.12.084-.249.04-.456.07-.59.16-.688.031-.034.057-.128.082-.297.039-.258.058-.313.137-.4.042-.047.132-.56.137-.78 0-.024.03-.072.064-.108.058-.057.067-.093.097-.363.024-.213.049-.33.086-.4.049-.092.104-.205.205-.413.058-.12.102-.14.224-.097l.102.035-.007.144c-.02.355-.038 6.901-.02 6.973.019.079.02.08.13.066.385-.049 1.408-.044 1.507.006.137.07.152.066.23-.06.06-.101.064-.122.042-.21-.035-.14-.042-4.201-.008-4.266.054-.1.097-.116.168-.063a.442.442 0 0 0 .152.064c.099.018.121.04.16.157a.455.455 0 0 0 .109.156.56.56 0 0 1 .123.195c.027.076.066.134.105.157.04.023.077.08.104.158.026.075.06.128.088.137.025.008.073.06.105.115a.946.946 0 0 0 .134.172c.046.043.09.12.112.197.027.095.054.136.104.162.037.02.078.065.091.101.013.037.068.12.123.187.055.065.112.16.127.21.015.051.057.113.094.14a.427.427 0 0 1 .112.147c.025.056.09.15.146.209.055.059.106.135.113.168a.132.132 0 0 0 .064.084c.051.023.085.077.137.22.016.042.046.082.067.09.05.015.13.139.17.257.016.05.044.09.061.09.044 0 .132.115.132.172 0 .026.034.077.076.115.068.063.185.263.188.323 0 .013.035.046.077.072a.24.24 0 0 1 .1.129c.016.057.044.09.1.113a.353.353 0 0 1 .125.098c.046.064.051.066.128.034.192-.08 1.18-.11 1.28-.04.12.085.175.09.202.019.017-.045.024-1.342.023-4.05 0-2.192.008-4.048.019-4.123.015-.106.012-.145-.013-.165-.032-.027-1.84-.04-1.866-.013-.006.007-.01 1.013-.01 2.237.004 2.586.024 2.402-.262 2.362-.192-.026-.256-.1-.298-.351a.2.2 0 0 0-.08-.136.57.57 0 0 1-.13-.177.52.52 0 0 0-.124-.17.25.25 0 0 1-.086-.135.386.386 0 0 0-.098-.162c-.073-.064-.165-.233-.165-.302 0-.02-.03-.05-.066-.067a.319.319 0 0 1-.119-.143c-.03-.062-.074-.119-.1-.127-.04-.013-.112-.157-.158-.318-.008-.03-.028-.053-.045-.053-.044 0-.126-.098-.143-.174a.17.17 0 0 0-.086-.101.31.31 0 0 1-.12-.15.737.737 0 0 0-.11-.176.643.643 0 0 1-.104-.18c-.03-.077-.068-.13-.113-.154a.377.377 0 0 1-.12-.147c-.03-.06-.07-.115-.091-.123-.046-.018-.131-.195-.132-.274 0-.037-.028-.071-.086-.105a.299.299 0 0 1-.122-.141.319.319 0 0 0-.093-.13c-.06-.038-.136-.17-.163-.28-.008-.035-.038-.071-.065-.08-.028-.009-.069-.06-.094-.118a.392.392 0 0 0-.068-.119 62.042 62.042 0 0 0-1.919-.016c-2.14 0-2.01-.012-2.01.178 0 .056-.01.112-.022.125a1.182 1.182 0 0 0-.05.274c-.032.297-.083.496-.143.562-.03.034-.056.131-.083.323-.054.386-.058.4-.124.48-.054.063-.064.107-.093.428-.037.409-.062.52-.131.595-.05.053-.07.139-.118.495a.856.856 0 0 1-.098.317c-.064.114-.075.161-.097.444-.036.467-.09.563-.288.515-.206-.05-.232-.1-.275-.526-.029-.292-.04-.344-.091-.404-.064-.076-.094-.193-.136-.527a1.358 1.358 0 0 0-.084-.346 1.72 1.72 0 0 1-.093-.359c-.057-.36-.085-.487-.112-.504-.055-.034-.114-.225-.142-.461-.023-.196-.041-.262-.085-.314-.085-.101-.103-.172-.127-.512-.022-.313-.032-.353-.122-.517a.38.38 0 0 1-.047-.147c0-.122-.011-.124-.878-.123-.882 0-.893.003-.893.152 0 .053-.049.166-.072.166-.018 0-.061.203-.083.394a.587.587 0 0 1-.121.328c-.04.047-.06.122-.082.299-.033.26-.106.572-.146.62a1.792 1.792 0 0 0-.072.346c-.043.296-.098.478-.143.478-.028 0-.064.134-.082.299-.026.257-.061.39-.118.447-.065.066-.08.148-.11.62-.029.451-.065.53-.271.59-.17.05-.243-.046-.29-.386-.023-.166-.045-.24-.082-.28-.077-.082-.096-.172-.131-.592-.025-.303-.041-.395-.071-.418-.057-.042-.105-.177-.123-.34-.032-.282-.065-.429-.11-.486-.061-.078-.089-.182-.131-.494-.025-.183-.048-.276-.08-.311-.066-.074-.072-.104-.122-.57-.043-.4-.051-.437-.108-.496a.302.302 0 0 1-.076-.188c-.008-.068-.03-.135-.047-.15-.043-.035-2.037-.037-2.073-.002-.031.032.024.272.069.299.062.037.104.16.142.416.028.194.049.268.083.295.062.05.112.18.143.374.014.09.043.22.064.288.05.161.025.2-.12.181-.127-.017-.245-.106-.28-.21-.02-.06-.047-.087-.107-.107-.064-.02-.09-.049-.121-.13-.026-.07-.058-.11-.092-.118-.03-.008-.07-.051-.094-.099a.36.36 0 0 0-.12-.132.301.301 0 0 1-.106-.105c-.016-.033-.063-.07-.113-.086a.2.2 0 0 1-.127-.113.205.205 0 0 0-.134-.115.539.539 0 0 1-.167-.104.472.472 0 0 0-.194-.101.435.435 0 0 1-.195-.106c-.056-.057-.12-.088-.243-.118a.554.554 0 0 1-.243-.11c-.086-.08-.301-.126-.708-.154-.218-.016-.481-.074-.505-.112-.017-.028-.76-.026-.789.003m-25.885.16c-.025.03-.03 8.163-.006 8.289.02.098.064.113.172.059.129-.064 1.36-.085 1.453-.025.141.093.178.093.216.002.036-.085.036-.223.023-4.284 0-.3.113-.446.249-.32.031.03.1.076.154.103.081.042.103.07.14.18a.64.64 0 0 0 .115.205c.039.04.087.122.108.18.022.066.057.117.09.131.029.013.078.078.109.144a.96.96 0 0 0 .148.215c.05.053.1.126.109.163.009.038.041.08.072.093.034.016.075.075.107.155.03.07.073.14.097.153a.58.58 0 0 1 .165.267c0 .02.037.06.082.086.058.035.09.075.107.14a.34.34 0 0 0 .1.152c.046.039.09.11.118.192.031.093.063.141.112.168.037.02.089.08.115.135.026.054.075.12.108.146a.485.485 0 0 1 .108.173c.029.077.077.148.125.185a.297.297 0 0 1 .102.151c.017.063.046.102.09.123.04.02.09.081.129.163.035.072.092.163.126.201a.52.52 0 0 1 .09.164c.022.07.047.101.098.12.05.016.083.054.114.128.025.058.062.104.081.104.02 0 .073.033.118.072.097.086.093.085.226.021.134-.065 1.107-.056 1.29.011l.102.037.024-.088c.035-.124.035-8.277 0-8.298a14.586 14.586 0 0 0-.92-.017c-1.033-.001-1.012-.005-.973.173.018.08.044 4.016.029 4.326-.006.108-.174.154-.366.1-.106-.029-.124-.057-.163-.256-.024-.121-.04-.155-.09-.18a.36.36 0 0 1-.117-.134.487.487 0 0 0-.104-.14.5.5 0 0 1-.143-.266c0-.028-.033-.066-.081-.095a.188.188 0 0 1-.1-.127.33.33 0 0 0-.08-.14 1.203 1.203 0 0 1-.133-.168 1.928 1.928 0 0 0-.145-.192.562.562 0 0 1-.104-.186c-.016-.056-.051-.115-.077-.131a.588.588 0 0 1-.123-.161.806.806 0 0 0-.141-.187.334.334 0 0 1-.093-.147.25.25 0 0 0-.084-.13c-.064-.043-.14-.177-.165-.291a.123.123 0 0 0-.084-.099c-.048-.018-.08-.056-.11-.136-.023-.061-.055-.111-.071-.111-.05 0-.107-.084-.157-.23-.035-.104-.066-.152-.118-.181a.21.21 0 0 1-.096-.132.24.24 0 0 0-.1-.14.333.333 0 0 1-.113-.145.752.752 0 0 0-.116-.186.551.551 0 0 1-.103-.184c-.014-.053-.04-.103-.06-.11-.071-.028-1.762-.021-1.785.007m12.604 1.546c.04.022.156.056.26.076.186.035.278.085.278.15 0 .018.048.054.107.079.092.04.11.059.133.148a.438.438 0 0 0 .075.155c.103.11.115.488.018.585a.736.736 0 0 0-.099.158.29.29 0 0 1-.165.167.735.735 0 0 0-.171.112c-.095.095-.221.114-.792.119-.79.006-.733.073-.733-.865 0-.785-.002-.774.192-.874.16-.082.753-.089.897-.01m6.494.135a.509.509 0 0 1 .168.068.781.781 0 0 0 .195.086c.149.044.239.1.239.148 0 .018.047.072.106.12.168.137.24.488.184.905-.045.344-.066.394-.199.476-.063.039-.115.08-.115.093 0 .035-.22.165-.28.165-.03 0-.09.037-.135.082-.105.105-.203.119-.867.12l-.504.001-.085-.064c-.115-.088-.116-.09-.115-1.07 0-1.02.012-1.081.23-1.152.081-.027 1.026-.01 1.178.022m7.765.07c.04.037.117.064.256.088.198.035.274.075.3.158.009.027.047.05.1.06.051.01.128.054.185.106.054.05.147.113.207.14.08.039.12.075.149.142.021.05.079.132.127.185a.856.856 0 0 1 .131.197c.024.055.055.101.068.101.049 0 .113.099.144.221.018.07.057.156.087.193.141.168.14 1.446-.002 1.587-.057.057-.062.067-.107.244a.557.557 0 0 1-.11.195.774.774 0 0 0-.118.177.271.271 0 0 1-.106.123.213.213 0 0 0-.098.121.196.196 0 0 1-.111.126.242.242 0 0 0-.116.116c-.025.06-.054.083-.128.104a.313.313 0 0 0-.14.079.431.431 0 0 1-.271.152.317.317 0 0 0-.179.094c-.176.176-1.506.177-1.672 0a.5.5 0 0 0-.169-.093c-.124-.042-.205-.1-.205-.148 0-.015-.067-.047-.15-.07-.148-.04-.233-.093-.233-.143a.525.525 0 0 0-.114-.138c-.245-.24-.364-.38-.379-.444a.342.342 0 0 0-.071-.126c-.07-.075-.097-.15-.132-.348a.518.518 0 0 0-.082-.223c-.156-.185-.164-1.149-.01-1.256.05-.035.094-.136.094-.215 0-.105.054-.243.118-.302a.32.32 0 0 0 .082-.128.678.678 0 0 1 .13-.191c.062-.07.136-.158.165-.199a.621.621 0 0 1 .18-.14.725.725 0 0 0 .182-.137.334.334 0 0 1 .148-.092.268.268 0 0 0 .143-.095c.053-.075.124-.104.346-.143a.518.518 0 0 0 .18-.06c.115-.102 1.076-.117 1.181-.018M14.048 8.388c.05.014.107.051.127.083.026.038.076.065.156.082.21.045.282.121.333.352a.71.71 0 0 0 .09.208c.092.135.092.454-.001.565a.54.54 0 0 0-.09.208c-.035.17-.182.332-.326.357a.346.346 0 0 0-.14.059c-.116.102-.148.106-.778.114-.907.012-.843.095-.832-1.084.008-.928.006-.922.192-.967.129-.03 1.144-.013 1.269.023M4.12 13.26c-.43.041-.605.075-.661.127-.058.054-.17.087-.423.125-.182.027-.203.036-.235.098a.293.293 0 0 1-.144.116.682.682 0 0 0-.178.116.53.53 0 0 1-.196.107c-.103.03-.13.05-.154.11a.191.191 0 0 1-.11.108c-.055.022-.088.056-.099.096-.01.041-.044.075-.098.097a.358.358 0 0 0-.142.129c-.032.051-.08.1-.105.108-.025.008-.063.06-.085.119-.029.074-.061.113-.111.134-.039.016-.07.042-.07.058 0 .049-.12.259-.179.313a.291.291 0 0 0-.072.168c-.023.156-.072.268-.145.336-.033.03-.06.076-.06.102 0 .125-.097.513-.145.58-.126.178-.118 1.385.011 1.637.04.077.076.213.101.38.03.192.054.275.093.322.09.11.13.207.146.375.016.15.023.165.096.208.048.029.089.078.106.128a.298.298 0 0 0 .092.129.6.6 0 0 1 .132.179c.037.072.103.16.147.193a.274.274 0 0 1 .095.131c.01.044.035.077.067.087.068.02.16.105.16.147 0 .018.046.052.102.076a.768.768 0 0 1 .185.122.911.911 0 0 0 .19.129.373.373 0 0 1 .144.12c.031.057.068.076.216.113a.689.689 0 0 1 .24.101.512.512 0 0 0 .204.087c.279.06.322.074.396.137.164.138 1.917.147 2.068.01.078-.07.133-.092.344-.132.147-.028.22-.056.286-.109a.655.655 0 0 1 .278-.112c.17-.037.194-.05.235-.12a.211.211 0 0 1 .142-.105c.065-.018.101-.044.117-.085.013-.034.058-.075.105-.094a1.09 1.09 0 0 0 .24-.197 23.795 23.795 0 0 1 .282-.29l.138-.14a.71.71 0 0 0 .108-.159.311.311 0 0 1 .11-.129c.044-.02.072-.061.093-.136a.653.653 0 0 1 .114-.206c.079-.092.086-.114.106-.33.028-.287.056-.4.118-.461.026-.026.086-.128.133-.226.11-.23.128-.244.214-.17.092.079.101.272.086 1.787-.01.89-.005 1.231.016 1.294l.028.085.149-.031c.22-.046 1.121-.044 1.276.004l.117.036.056-.066c.049-.059.054-.084.042-.222-.037-.435-.022-2.055.02-2.118.098-.15.493.013.493.202 0 .067.04.143.11.208.03.028.066.098.082.156.049.18.075.234.117.247.04.013.124.171.158.294.008.03.045.07.081.089.068.035.1.093.143.259a.39.39 0 0 0 .095.157.41.41 0 0 1 .097.164c.016.058.051.114.086.137.061.04.138.17.164.28a.14.14 0 0 0 .085.092.36.36 0 0 1 .11.072c.036.04.048.04.174.008.239-.063 1.64-.036 1.757.032.105.062.115.055.115-.08 0-.089-.009-.108-.061-.132a.299.299 0 0 1-.11-.12.89.89 0 0 0-.135-.182.83.83 0 0 1-.125-.16.498.498 0 0 0-.101-.127.34.34 0 0 1-.094-.165c-.02-.078-.046-.12-.094-.148a.336.336 0 0 1-.11-.134.928.928 0 0 0-.145-.203.57.57 0 0 1-.117-.168.323.323 0 0 0-.096-.127c-.044-.038-.08-.09-.08-.116 0-.026-.037-.087-.082-.135-.325-.353-.367-.407-.383-.491-.043-.23.052-.342.36-.424l.23-.062c.023-.007.055-.041.072-.076a.317.317 0 0 1 .126-.113c.118-.06.337-.268.358-.34a.166.166 0 0 1 .079-.084c.045-.022.07-.06.09-.14.038-.149.094-.226.242-.336.148-.109.153-.11.216-.04.078.087.084.125.104.635l.02.484.072.11c.068.103.097.201.136.459.011.075.034.115.085.15.068.05.1.128.13.318a.251.251 0 0 0 .075.144c.068.059.176.23.177.282 0 .018.035.055.078.082a.266.266 0 0 1 .103.13.19.19 0 0 0 .099.116c.04.02.09.071.11.116a.23.23 0 0 0 .1.104c.033.013.082.06.108.104.03.05.083.094.14.117a.252.252 0 0 1 .126.102c.023.047.069.077.164.109a.448.448 0 0 1 .193.116c.043.052.109.088.227.124a.745.745 0 0 1 .226.107c.043.04.12.067.274.095.25.047.32.07.385.132.127.118 1.815.13 1.95.013.078-.068.207-.115.403-.147.16-.026.218-.047.27-.096a.612.612 0 0 1 .227-.108.467.467 0 0 0 .224-.113.771.771 0 0 1 .198-.132c.074-.035.141-.084.149-.11.013-.04.056-.065.186-.106.022-.007.057-.051.076-.097.022-.053.056-.09.093-.099.034-.009.077-.05.104-.102a.32.32 0 0 1 .126-.126.243.243 0 0 0 .111-.112.263.263 0 0 1 .105-.113c.048-.025.074-.056.074-.091 0-.085.086-.25.152-.293.04-.026.073-.083.097-.164a.48.48 0 0 1 .097-.182c.075-.07.1-.164.118-.458.022-.345.116-.588.323-.837l.066-.079.063.13c.07.144.077.212.111 1.012.02.461.022.477.08.539.072.075.106.19.128.43.014.156.023.179.086.223a.526.526 0 0 1 .128.181c.032.074.1.168.151.214.052.045.1.107.108.139.009.034.042.066.086.081.04.014.094.062.121.108.038.064.08.094.197.136.082.029.176.082.21.118.046.052.1.074.253.104.233.047.317.077.382.138.112.105 1.516.117 1.634.015.07-.06.142-.089.377-.147.164-.04.249-.075.296-.12a.429.429 0 0 1 .154-.087.57.57 0 0 0 .19-.12.95.95 0 0 1 .201-.141c.056-.027.102-.065.102-.085 0-.02.047-.087.105-.15.057-.061.132-.166.165-.233.035-.069.087-.133.122-.148.043-.02.065-.053.076-.119.036-.209.09-.381.133-.428.118-.127.14-.665.142-3.534 0-1.467-.008-2.524-.02-2.546-.022-.038-1.609-.064-1.645-.028-.007.006-.015 1.217-.019 2.69-.007 2.847-.006 2.822-.124 2.924a.43.43 0 0 0-.097.171c-.045.151-.337.468-.465.505-.13.037-.848.03-.94-.009a.743.743 0 0 1-.191-.161 21.087 21.087 0 0 0-.185-.207.49.49 0 0 1-.096-.18.74.74 0 0 0-.06-.161c-.129-.219-.119 0-.132-2.888-.007-1.464-.02-2.669-.03-2.678-.019-.02-1.616-.024-1.636-.004-.007.007-.012.679-.01 1.493.002 1.534-.006 1.676-.098 1.857-.058.113-.062.11-.229-.145-.17-.262-.247-.581-.247-1.034 0-.012-.03-.035-.065-.053-.05-.023-.081-.072-.126-.191-.037-.097-.079-.169-.108-.182-.049-.022-.078-.07-.132-.214-.016-.043-.044-.078-.063-.078-.018 0-.065-.05-.105-.114a1.262 1.262 0 0 0-.193-.22 10.218 10.218 0 0 1-.32-.306c-.13-.128-.231-.208-.291-.227a.202.202 0 0 1-.122-.094.157.157 0 0 0-.096-.078c-.164-.04-.274-.096-.306-.158-.034-.067-.078-.08-.435-.132a.45.45 0 0 1-.189-.085.338.338 0 0 0-.127-.07c-.02 0-.189-.017-.373-.036-.744-.077-1.714-.018-1.912.117a.552.552 0 0 1-.189.075c-.392.06-.403.064-.431.125-.026.057-.241.174-.32.174-.018 0-.045.026-.06.058a.202.202 0 0 1-.101.087c-.136.05-.182.078-.182.109 0 .016-.03.051-.066.077-.183.13-.524.473-.582.584a.338.338 0 0 1-.116.125.212.212 0 0 0-.098.121c-.023.069-.075.123-.161.168a2.28 2.28 0 0 0-.044.203c-.041.218-.074.299-.15.368a.356.356 0 0 0-.078.131c-.056.178-.174.25-.318.196l-.06-.023.005-.322c.004-.299 0-.326-.046-.378-.064-.07-.097-.178-.117-.379-.023-.222-.052-.319-.107-.353a.593.593 0 0 1-.122-.161.686.686 0 0 0-.133-.174.33.33 0 0 1-.091-.137c-.027-.077-.048-.1-.113-.116a.457.457 0 0 1-.164-.1.797.797 0 0 0-.191-.13.547.547 0 0 1-.168-.12c-.069-.082-.165-.103-.658-.142a3.574 3.574 0 0 1-.479-.072c-.18-.046-.273-.05-1.668-.056L8.97 13.33l-.013.052c-.007.03-.011.788-.009 1.688.005 1.763.008 1.71-.124 1.779-.086.044-4.134.055-4.249.011-.083-.031-.196-.03-.216.003-.033.053-.025 1.34.008 1.367.02.017.346.021 1.017.013.574-.006 1.014-.002 1.051.01.153.054.138.397-.022.505-.056.037-.102.082-.102.098 0 .04-.094.125-.162.146a.207.207 0 0 0-.093.075c-.043.066-.218.177-.279.177-.021 0-.058.028-.08.063-.049.074-.142.117-.304.141a.353.353 0 0 0-.16.06c-.15.15-.86.173-1.027.032a.679.679 0 0 0-.241-.1.59.59 0 0 1-.259-.115 1.165 1.165 0 0 0-.187-.125.493.493 0 0 1-.151-.123c-.028-.04-.066-.073-.083-.073-.051 0-.157-.096-.157-.143 0-.024-.043-.078-.096-.12-.052-.041-.095-.09-.095-.107a.438.438 0 0 0-.105-.137.436.436 0 0 1-.134-.236.369.369 0 0 0-.11-.203c-.103-.096-.117-.207-.116-.896 0-.611.022-.75.13-.847a.382.382 0 0 0 .095-.158c.024-.087.103-.192.146-.192.009 0 .023-.026.031-.058a.545.545 0 0 1 .113-.161 2.18 2.18 0 0 0 .167-.204c.07-.1.175-.179.284-.211a.407.407 0 0 0 .131-.094c.06-.062.106-.082.239-.106.124-.023.176-.044.21-.088.132-.167 1.18-.171 1.346-.005.055.055.114.082.229.106.168.036.264.085.264.138 0 .018.048.051.106.074.075.028.117.062.138.11.02.046.066.087.13.115a.31.31 0 0 1 .126.093c.042.08.093.083 1.087.086l.954.002-.01-.15c-.008-.13-.019-.16-.08-.216a.482.482 0 0 1-.14-.273.149.149 0 0 0-.08-.096.319.319 0 0 1-.12-.143 1 1 0 0 0-.137-.204.596.596 0 0 1-.11-.17.172.172 0 0 0-.105-.11c-.075-.032-.294-.238-.375-.354a.48.48 0 0 0-.179-.11c-.1-.037-.152-.074-.18-.123-.029-.05-.066-.076-.128-.087a.586.586 0 0 1-.196-.099c-.137-.104-.167-.117-.414-.165-.135-.026-.226-.058-.27-.095-.073-.062-.105-.068-.662-.118a4.654 4.654 0 0 0-1.09.002m42.9-.023c-.512.05-.68.087-.75.163a.5.5 0 0 1-.163.095.54.54 0 0 0-.227.175 3.603 3.603 0 0 1-.219.23c-.055.052-.101.108-.101.123 0 .016-.038.063-.084.105-.046.042-.084.097-.084.122 0 .127-.057.3-.119.358-.054.051-.075.107-.118.325a1.192 1.192 0 0 1-.112.353c-.167.257-.176 3.848-.01 4.015.05.05.096.198.145.465.024.136.044.18.107.24.062.058.08.099.094.204.024.187.031.205.097.235.032.015.08.068.105.119.026.05.074.104.106.119a.225.225 0 0 1 .092.094.319.319 0 0 0 .12.115c.05.026.1.07.112.099.017.036.073.066.192.102.112.034.183.072.216.113.115.147 1.417.151 1.542.005a.546.546 0 0 1 .305-.14c.029 0 .065-.028.09-.07a.266.266 0 0 1 .108-.1.358.358 0 0 0 .128-.123c.032-.052.08-.1.105-.106.024-.007.063-.054.086-.106a.346.346 0 0 1 .117-.138c.07-.04.076-.056.09-.21.02-.211.071-.381.135-.45.06-.063.08-.192.122-.75.034-.453.041-.434-.181-.434-.293 0-.327.062-.37.669-.031.46-.058.602-.125.662a.793.793 0 0 0-.116.194c-.046.1-.087.156-.126.171-.032.012-.076.062-.1.11a.325.325 0 0 1-.115.128.712.712 0 0 0-.147.117c-.189.198-1.522.185-1.522-.015 0-.013-.053-.053-.118-.088-.074-.04-.128-.09-.147-.135a.396.396 0 0 0-.109-.13.638.638 0 0 1-.132-.149 1.48 1.48 0 0 0-.118-.163c-.064-.075-.094-.18-.13-.445a.398.398 0 0 0-.07-.18c-.08-.096-.106-.2-.133-.532-.037-.475-.049-.554-.103-.694-.095-.247-.07-1.605.032-1.735.01-.013.037-.223.058-.467.042-.481.064-.6.125-.65.053-.043.103-.17.103-.257 0-.142.054-.32.114-.381a.657.657 0 0 0 .107-.166.338.338 0 0 1 .13-.155.276.276 0 0 0 .105-.105.34.34 0 0 1 .119-.117.383.383 0 0 0 .123-.118c.03-.067.086-.094.27-.133.098-.02.156-.047.194-.092.097-.113.68-.101.796.016.023.022.104.06.18.084.118.037.145.056.173.123a.179.179 0 0 0 .107.105.18.18 0 0 1 .108.109c.02.046.064.097.1.114.042.02.09.079.127.156a.987.987 0 0 0 .098.167c.078.088.097.161.129.49.02.224.043.348.067.375.02.022.043.1.053.172.027.205.113.31.255.31.17.001.226-.104.19-.357a7.08 7.08 0 0 1-.04-.381c-.016-.224-.035-.29-.102-.358-.048-.047-.077-.155-.125-.464-.018-.113-.04-.186-.058-.186-.041 0-.098-.071-.125-.156a.265.265 0 0 0-.098-.12.25.25 0 0 1-.089-.086c-.026-.077-.32-.356-.374-.356a.493.493 0 0 1-.177-.086c-.149-.102-.73-.193-1.04-.162m-17.653.108c-.025.04-.01 7.753.014 7.798.03.058.037.059.167.013.145-.052 1.114-.052 1.283 0l.118.035.08-.082c.08-.08.081-.083.055-.19-.035-.136-.039-2.065-.005-2.154a.458.458 0 0 1 .136-.142l.112-.082.54-.013c.678-.016 1.497-.097 1.58-.155a.813.813 0 0 1 .285-.139c.057-.011.096-.042.136-.106.032-.05.089-.1.129-.115a.254.254 0 0 0 .11-.085.433.433 0 0 1 .121-.109.32.32 0 0 0 .116-.13c.02-.046.057-.09.084-.098.032-.01.059-.05.075-.112a.549.549 0 0 1 .107-.185.609.609 0 0 0 .13-.27c.066-.247.088-.3.138-.328.073-.04.066-1.507-.007-1.588-.073-.08-.096-.132-.128-.295-.041-.209-.046-.22-.096-.234-.026-.007-.077-.076-.12-.164a.81.81 0 0 0-.135-.202.38.38 0 0 1-.092-.142c-.026-.077-.047-.097-.13-.121a.624.624 0 0 1-.197-.118.796.796 0 0 0-.178-.122.37.37 0 0 1-.132-.102c-.058-.08-.174-.104-.68-.146a3.443 3.443 0 0 1-.467-.07c-.181-.048-3.122-.091-3.15-.047m7.153-.008a.116.116 0 0 0-.078.052c-.028.053-.035 7.683-.006 7.709.092.085.452.085.555 0l.083-.068-.042-.14c-.038-.128-.041-.26-.035-1.449.009-1.472-.01-1.333.197-1.484l.093-.068h.617c.34 0 .696-.01.792-.024a12.47 12.47 0 0 1 .474-.048c.377-.031.471-.057.575-.155a.434.434 0 0 1 .144-.093c.074-.018.1-.038.134-.1a.363.363 0 0 1 .117-.098.315.315 0 0 0 .122-.126.196.196 0 0 1 .09-.097c.045-.017.065-.047.077-.114a.583.583 0 0 1 .15-.3c.174-.187.153-1.901-.027-2.097a.8.8 0 0 1-.112-.228.568.568 0 0 0-.115-.217.352.352 0 0 1-.087-.134.19.19 0 0 0-.11-.121.309.309 0 0 1-.12-.106.247.247 0 0 0-.132-.1.448.448 0 0 1-.156-.1c-.081-.089-.164-.113-.534-.158a2.536 2.536 0 0 1-.407-.076 1.006 1.006 0 0 0-.255-.047 68.913 68.913 0 0 0-2.004-.013m4.936.005c-.026.042-.015 7.75.01 7.799.023.042.033.042.163.011.112-.027.418-.032 1.631-.028 1.701.006 1.559.025 1.559-.21 0-.152-.04-.2-.163-.202H43.38c-1.289.003-1.284.003-1.357-.13-.037-.067-.041-.364-.052-3.663l-.012-3.59-.245-.005c-.135-.003-.25.005-.258.018m-2.609.546c.04.017.089.052.11.078.022.03.097.062.2.085.131.03.182.056.25.126.048.048.121.101.163.119a.17.17 0 0 1 .104.113.213.213 0 0 0 .094.117c.07.036.128.15.158.311.01.05.042.128.071.171.149.22.14 1.162-.013 1.356a.217.217 0 0 0-.048.098c0 .098-.098.292-.168.331a.245.245 0 0 0-.097.112.17.17 0 0 1-.101.1.564.564 0 0 0-.16.118c-.07.074-.115.096-.262.13-.113.025-.19.057-.21.085-.066.095-.174.107-.954.108-.842 0-.837.001-.925-.177l-.054-.11v-3.016l.057-.116c.09-.185.09-.184.96-.176.535.005.775.016.825.037m-26.741 1.086c.048.021.094.06.102.087.01.03.055.06.116.081.072.024.112.055.14.11a.418.418 0 0 0 .12.13c.072.05.084.075.12.247.02.106.05.215.065.243a.266.266 0 0 1-.006.24.726.726 0 0 0-.05.173c-.027.165-.075.261-.144.287a.2.2 0 0 0-.096.104c-.039.093-.072.123-.16.144-.035.009-.071.038-.08.064-.04.125-.383.178-1.047.163-.604-.014-.567.056-.568-1.066 0-.942.004-.97.131-1.028.11-.05 1.234-.032 1.357.021m7.122.01c.07.019.135.053.148.078.013.025.074.056.138.072l.2.051a.357.357 0 0 1 .15.094c.035.04.101.087.146.106a.271.271 0 0 1 .12.106c.02.039.073.093.12.12a.318.318 0 0 1 .119.134c.02.047.051.086.07.086.06 0 .127.11.157.258.022.113.04.146.087.168.072.033.098.097.133.323a.663.663 0 0 0 .07.227c.113.142.12.619.013.806-.03.053-.068.182-.084.288-.033.211-.05.252-.146.363a.422.422 0 0 0-.082.174.44.44 0 0 1-.107.203c-.05.057-.113.142-.142.189a.55.55 0 0 1-.165.15 1.498 1.498 0 0 0-.214.157c-.056.05-.124.092-.152.092-.028 0-.084.037-.124.083-.076.086-.147.117-.324.145a.41.41 0 0 0-.171.074c-.172.144-.77.143-.983-.002a1.083 1.083 0 0 0-.374-.109 1.44 1.44 0 0 1-.115-.093.676.676 0 0 0-.163-.11c-.068-.022-.162-.106-.162-.147 0-.017-.03-.039-.066-.047-.084-.02-.173-.1-.173-.158 0-.026-.026-.054-.064-.068-.074-.029-.126-.089-.127-.148 0-.023-.042-.068-.092-.1a.316.316 0 0 1-.136-.173.404.404 0 0 0-.085-.146c-.215-.153-.218-1.911-.002-1.98.029-.009.054-.045.064-.092a.775.775 0 0 1 .053-.148c.032-.066.075-.114.332-.373a.735.735 0 0 0 .113-.143.385.385 0 0 1 .152-.118.94.94 0 0 0 .18-.11c.077-.072.128-.094.306-.13.098-.02.168-.049.188-.077.09-.125.842-.172 1.194-.076m13.27-.009c.048.021.099.06.113.087.014.026.071.062.127.08.075.025.113.056.143.113a.357.357 0 0 0 .111.123c.192.117.185 1.038-.009 1.186a.35.35 0 0 0-.104.131c-.017.048-.053.083-.113.108a.576.576 0 0 0-.163.117c-.1.106-.188.118-.833.12h-.52l-.088-.087-.088-.088v-.877c0-1.161-.065-1.072.773-1.06.452.007.58.016.65.047M1.066 23.4c-.027.05-.028 1.814 0 1.842.025.025 48.138.023 48.163-.002.027-.027.028-1.823 0-1.85-.046-.047-48.138-.037-48.163.01" fill="#ec6e04" id="path28686" style="fill-rule:evenodd;stroke-width:.12565;fill:#b3b3b3"/></g><style id="style30964">.st1{fill:#02549f}.st0{fill:#fff}</style></svg>