<svg width="50mm" height="25mm" viewBox="0 0 50 25" version="1.1" id="svg20707" xml:space="preserve" xmlns="http://www.w3.org/2000/svg"><defs id="defs20704"><clipPath id="clip0_2484_23295"><path fill="#fff" id="rect29472" d="M0 0h228v95H0z"/></clipPath></defs><g id="layer1"><g transform="matrix(.07436 0 0 .07436 232.532 94.038)" id="g25634"><path fill="#5514b4" d="M300 139.8c-275.9 0-499.5 223.6-499.5 499.5S24.1 1138.8 300 1138.8s499.5-223.7 499.5-499.5S575.8 139.8 300 139.8Zm-.2 61.6c242.2 0 438.5 196.3 438.5 438.5S542 1078.4 299.8 1078.4-138.7 882-138.7 639.9 57.6 201.4 299.8 201.4z" id="path25628"/><path fill="#5514b4" d="M51 468.6v340.1h138.4c62.9 0 111.2-39.3 111.2-101.5 0-54.8-42.8-75.8-42.8-75.8s32.9-21 32.9-67.6c0-54.2-42.8-95.2-105.9-95.2zm76.6 66.4h40.9c29.1 0 41.7 14.9 41.7 33.4 0 20-14.4 32.7-39.8 32.7h-42.8zm0 134.2h40.9c29.1 0 41.7 14.9 41.7 33.4 0 20-14.4 32.7-39.8 32.7h-42.8z" id="path25630"/><path fill="#5514b4" d="M403.3 807.6v-261h-76.5V468h238v78.6H485v261z" id="path25632"/></g><g id="g27958" transform="translate(138.79 91.3) scale(.07835)"><path style="fill:#fc0" d="M0 0h737v223H0Z" id="path27940"/><path d="m55.219 57.529-8 42.494h29.996v46.126h16.497v-88.62zm76.591 20.438c-18.939 0-34.292 15.354-34.292 34.294 0 18.939 15.353 34.293 34.292 34.293s34.292-15.354 34.292-34.293c-.001-18.941-15.353-34.294-34.292-34.294Zm0 52.159c-9.855 0-17.843-7.99-17.843-17.844 0-9.856 7.988-17.845 17.843-17.845 9.853 0 17.842 7.988 17.842 17.845 0 9.854-7.989 17.844-17.842 17.844zm62.211-51.577c-13.121 0-23.759 10.637-23.759 23.756 0 13.122 10.638 23.759 23.759 23.759 13.119 0 23.755-10.637 23.755-23.759.001-13.119-10.635-23.756-23.755-23.756zm-.001 34.946c-6.17 0-11.172-5.004-11.172-11.175 0-6.17 5.002-11.174 11.172-11.174 6.174 0 11.176 5.004 11.176 11.174-.001 6.171-5.003 11.175-11.176 11.175z" id="path27942"/><path d="M184.444 128.188c-22.189 0-40.178 17.988-40.178 40.178 0 22.191 17.988 40.18 40.178 40.18 22.19 0 40.178-17.988 40.178-40.18 0-22.189-17.989-40.178-40.178-40.178zm.263 62.321c-12.297 0-22.266-9.969-22.266-22.268 0-12.297 9.969-22.266 22.266-22.266 12.297 0 22.266 9.969 22.266 22.266 0 12.299-9.969 22.268-22.266 22.268zm38.346-110.878h16.359v66.517h-16.359zm0-22.013h16.359v17.721h-16.359zm71.808 65.752c-3.268 4.143-8.321 6.813-14.006 6.813-9.855 0-17.843-7.99-17.843-17.842 0-9.856 7.988-17.847 17.843-17.847 5.087 0 9.667 2.141 12.917 5.559l10.474-12.803c-6.126-5.719-14.347-9.227-23.39-9.227-18.94 0-34.292 15.355-34.292 34.294 0 18.939 15.352 34.293 34.292 34.293 9.287 0 17.706-3.697 23.88-9.693z" id="path27944"/><path d="M355.598 77.953v5.799a34.116 34.116 0 0 0-19.003-5.746c-18.939 0-34.29 15.352-34.29 34.292 0 18.939 15.351 34.293 34.29 34.293a34.13 34.13 0 0 0 19.003-5.746v5.379h15.541V77.953Zm-19.004 52.21c-9.855 0-17.843-7.988-17.843-17.842 0-9.856 7.988-17.845 17.843-17.845s17.841 7.988 17.841 17.845c.001 9.854-7.986 17.842-17.841 17.842zm134.341-53.327h-57.871c-.536 0-13.309.107-22.573 9.402-6.128 6.146-9.218 14.729-9.184 25.511.104 34.034 31.106 34.489 31.42 34.489l61.638-.029.003-23.904h-56.194c-1.587-.015-9.554-.613-9.573-10.793-.023-10.084 7.937-10.684 9.531-10.701h56.154l-.002-23.975ZM388 111.729c-.083-27.72 24.048-28.19 25.074-28.196h54.516v10.584h-49.471c-.267 0-6.831.032-11.565 4.761-3.096 3.096-4.662 7.352-4.648 12.648.012 5.342 1.604 9.626 4.729 12.734 4.747 4.716 11.279 4.743 11.553 4.743h49.483v10.515l-54.938.022c-.991-.006-24.646-.518-24.733-27.811Zm201.255-34.891H565.29l-28.903 42.557-28.862-42.557h-27.316l-.02 69.357h23.942l.008-31.828 21.425 31.871 21.584-.019 21.521-31.868-.011 31.836h23.94l.004-69.35h-3.347zm-3.348 6.694-.006 55.961h-10.547l.017-47.028s-29.94 44.334-31.782 47.064c-2.57.002-11.883.01-14.46.01l-31.68-47.121s-.008 41.474-.011 47.08h-10.554c.003-5.661.016-50.308.016-55.966h17.078c1.862 2.749 32.402 47.784 32.402 47.784l32.453-47.784ZM686.704 76.8h-57.872c-.54 0-13.308.106-22.575 9.401-6.127 6.146-9.216 14.729-9.182 25.511.103 34.034 31.106 34.487 31.419 34.487l61.558-.038v-38.754h-23.325v14.861h-32.778c-1.597-.017-9.56-.614-9.579-10.796-.004-.016-.004-.027-.004-.044 0-10.04 7.938-10.636 9.532-10.654h56.157l-.003-23.974Zm-82.933 34.891c-.085-27.721 24.045-28.192 25.072-28.198h54.514v10.586h-49.472c-.265-.002-6.827.032-11.561 4.762-3.09 3.081-4.653 7.314-4.653 12.587v.06c.013 5.343 1.605 9.625 4.732 12.734 4.694 4.662 11.134 4.739 11.54 4.739h-.003 39.482V114.1h9.934v25.369c-5.945.006-54.856.033-54.856.033-.99-.006-24.646-.52-24.729-27.811z" id="path27946"/></g><g style="fill:#b3b3b3" id="g29501" transform="matrix(.2148 0 0 .2148 .678 4.465)"><g clip-path="url(#clip0_2484_23295)" id="g29470" style="fill:#b3b3b3"><path d="M36.916 44.83c-.13-.509-.279-1.012-.382-1.528a51.24 51.24 0 0 1-.498-2.762c-.113-.79-.143-1.594-.236-2.39-.182-1.553-.091-3.108-.08-4.664.007-.816.124-1.63.179-2.445.101-1.484.41-2.93.706-4.381a27.236 27.236 0 0 1 1.19-4.069 40.923 40.923 0 0 1 1.442-3.44c.769-1.596 1.644-3.137 2.688-4.572.659-.906 1.316-1.816 2.044-2.663.807-.937 1.61-1.884 2.568-2.677.587-.485 1.122-1.032 1.715-1.508.83-.668 1.664-1.334 2.542-1.932a33.182 33.182 0 0 1 4.212-2.425 36.243 36.243 0 0 1 7.06-2.566c1.285-.32 2.581-.588 3.9-.736.182-.02.362-.055.544-.078.026-.004.056.03.133.072l-29.62 44.771-.111-.014Z" fill="#85a568" id="path29436" style="fill:#b3b3b3"/><path d="M0 62.66c.619.426 1.163.794 1.7 1.172 1.147.808 2.29 1.621 3.436 2.429a7062.49 7062.49 0 0 0 7.547 5.312c2.018 1.418 4.042 2.831 6.062 4.25 1.757 1.232 3.513 2.467 5.268 3.704 1.74 1.227 3.482 2.454 5.223 3.678 2.198 1.548 4.396 3.09 6.594 4.636 1.741 1.225 3.482 2.453 5.223 3.68.787.555 1.575 1.108 2.362 1.665.103.074.19.174.356.328-.403.095-.718.181-1.035.245a61.88 61.88 0 0 1-4.067.666c-2.281.3-4.57.201-6.855.164-.999-.016-1.994-.236-2.989-.372-1.164-.16-2.309-.421-3.445-.72a34.28 34.28 0 0 1-5.41-1.943 31.242 31.242 0 0 1-5.34-3.09c-.918-.66-1.8-1.375-2.661-2.109A28.252 28.252 0 0 1 9.81 84.35a36.423 36.423 0 0 1-3.453-4.204c-1.335-1.901-2.433-3.94-3.381-6.058A33.631 33.631 0 0 1 .83 67.592a91.923 91.923 0 0 1-.691-3.557c-.077-.427-.087-.865-.136-1.376Z" fill="#85a568" id="path29438" style="fill:#b3b3b3"/><path d="M32.352 78.378c-1.741-.499-3.375-1.07-4.95-1.804-.963-.45-1.925-.904-2.861-1.41a34.636 34.636 0 0 1-5.068-3.347 36.793 36.793 0 0 1-4.034-3.713 34.643 34.643 0 0 1-2.973-3.678 33.372 33.372 0 0 1-2.741-4.656 34.312 34.312 0 0 1-2.708-7.807c-.261-1.212-.439-2.445-.615-3.674-.087-.606-.09-1.225-.121-1.837-.037-.715-.1-1.432-.083-2.147.026-1.038.093-2.078.18-3.113.07-.83.194-1.657.301-2.483a26 26 0 0 1 .92-4.237c.429-1.418.932-2.813 1.412-4.216.087-.255.214-.493.358-.816l1.061 2.242c.045.092.077.189.122.281.6 1.264 1.205 2.524 1.801 3.787 1.084 2.298 2.162 4.597 3.242 6.897l1.909 4.074c.776 1.65 1.555 3.3 2.33 4.953.689 1.465 1.374 2.932 2.062 4.399l3.197 6.803 2.04 4.353c1.072 2.283 2.147 4.566 3.22 6.85.656 1.404 1.307 2.812 1.997 4.293z" fill="#85a568" id="path29440" style="fill:#b3b3b3"/><path d="M98.079 9.4c-.14.09-.247.167-.362.227-4.75 2.398-9.498 4.796-14.25 7.19-3.907 1.969-7.814 3.933-11.72 5.901-4.225 2.127-8.445 4.258-12.669 6.385-2.7 1.36-5.401 2.714-8.103 4.07-.143.073-.293.134-.538.245.073-.343.106-.59.176-.826.617-2.024 1.335-4.009 2.235-5.924a38.658 38.658 0 0 1 2.936-5.195c.845-1.253 1.76-2.457 2.78-3.571.538-.588 1.074-1.18 1.632-1.749 1.238-1.26 2.589-2.385 4.014-3.42a32.204 32.204 0 0 1 4.855-2.921c1.915-.929 3.887-1.714 5.95-2.232a69.899 69.899 0 0 1 3.481-.785c.656-.13 1.331-.164 1.996-.24a26.004 26.004 0 0 1 3.416-.185c.873.014 1.75.012 2.616.111 1.33.15 2.655.364 3.976.58 2.552.415 4.984 1.24 7.37 2.223.061.024.114.064.21.119z" fill="#85a568" id="path29442" style="fill:#b3b3b3"/><path d="M30.921 62.971c-.154-.113-.29-.18-.382-.287-.463-.518-.934-1.03-1.367-1.574a83.24 83.24 0 0 1-2.33-3.021c-1.009-1.391-1.866-2.879-2.649-4.414-1.015-1.991-1.884-4.044-2.48-6.203a61.656 61.656 0 0 1-.937-3.816c-.174-.83-.218-1.687-.348-2.528-.202-1.321-.226-2.653-.184-3.984.033-1.021.111-2.04.188-3.06.049-.645.126-1.286.202-1.93.162-1.39.498-2.747.866-4.09a33.904 33.904 0 0 1 2.49-6.424 35.876 35.876 0 0 1 3.528-5.602 38.336 38.336 0 0 1 4.092-4.524c.811-.767 1.687-1.46 2.538-2.18.1-.085.225-.136.38-.227.118.313.061.596.039.874-.01.117-.055.234-.06.351-.043.767-.067 1.533-.118 2.3-.047.696-.12 1.389-.18 2.085a3.776 3.776 0 0 0-.008.154c-.039.783-.07 1.568-.117 2.351-.061 1.021-.134 2.04-.203 3.06-.064.968-.133 1.937-.2 2.905-.069 1.02-.135 2.04-.206 3.06-.065.935-.134 1.868-.198 2.803-.071 1.019-.138 2.04-.206 3.06-.065.95-.134 1.902-.199 2.854-.07 1.037-.137 2.073-.208 3.11-.065.952-.133 1.903-.198 2.855l-.208 3.11c-.065.936-.128 1.87-.2 2.804-.051.661-.12 1.321-.178 1.983a3.785 3.785 0 0 0-.009.154c-.038.783-.068 1.568-.117 2.35-.06 1.022-.133 2.041-.204 3.06l-.2 2.906c-.07 1.003-.13 2.005-.207 3.008-.064.865-.145 1.728-.226 2.663z" fill="#85a568" id="path29444" style="fill:#b3b3b3"/><path d="M158.755 68.903c-.108.052-.168.103-.229.103-1.381.008-2.762.01-4.143.008-.077 0-.154-.05-.273-.094V55.84c-2.083 3.11-4.255 6.12-6.38 9.26-.623-.787-1.108-1.582-1.646-2.334-.554-.773-1.082-1.566-1.622-2.351-.53-.77-1.065-1.537-1.585-2.316-.518-.777-1.019-1.564-1.593-2.447V68.929c-.399.112-3.936.135-4.51.04-.012-.01-.028-.02-.038-.033a.105.105 0 0 1-.018-.047c-.009-.068-.023-.136-.023-.203 0-6.968 0-13.936.004-20.904 0-.05.021-.099.047-.206 1.28-.05 2.568-.01 3.901-.025a712.506 712.506 0 0 1 7.065 10.238l7.045-10.217h3.969c.01.19.031.368.031.549V68.9z" fill="#003b01" id="path29446" style="fill:#b3b3b3"/><path d="M208.589 68.965c-.124-.474-.188-17.787-.083-20.96.004-.13.036-.26.065-.45h.521c2.88 0 5.761-.036 8.639.013 1.996.035 3.888.514 5.569 1.685 1.625 1.132 2.592 2.7 2.982 4.64.118.582.198 1.184.186 1.775a8.042 8.042 0 0 1-.538 2.797c-.568 1.442-1.506 2.573-2.764 3.442l-.412.29 4.62 6.672c-.135.21-.333.154-.505.154-1.315.004-2.627.002-3.941.002h-.833l-3.568-5.429c-.123 0-.224-.01-.321 0-1.46.189-2.924.055-4.386.094-.166.005-.332 0-.548 0-.008.22-.022.401-.022.584v4.108c0 .183-.012.368-.018.53-.389.131-3.996.164-4.641.055zm4.677-9.446c.101.02.15.037.198.037 1.347.002 2.694.025 4.038-.008a4.784 4.784 0 0 0 1.667-.347c1.999-.802 2.814-3.056 2.107-4.957-.639-1.718-2.093-2.51-3.675-2.558-1.312-.039-2.624-.008-3.939-.006-.129 0-.257.024-.398.039v7.8z" fill="#003b01" id="path29448" style="fill:#b3b3b3"/><path d="M83.656 47.554h.514c2.881 0 5.763-.031 8.642.01 1.802.027 3.529.436 5.108 1.375 1.745 1.037 2.886 2.548 3.373 4.535.481 1.952.356 3.867-.57 5.681a7.026 7.026 0 0 1-2.364 2.686c-.152.103-.3.214-.495.355l4.632 6.7c-.115.055-.186.116-.254.119-1.667.006-3.333.004-5.048.004-1.179-1.798-2.364-3.6-3.532-5.382l-5.367.078v5.228c-.378.084-3.608.135-4.335.074-.095-.009-.188-.052-.304-.087zm4.665 12.002c1.489 0 2.92.016 4.352-.01.5-.008.999-.113 1.476-.298 2.006-.773 2.843-2.768 2.317-4.735-.463-1.732-2.006-2.794-3.724-2.833-1.347-.031-2.696-.008-4.043-.004-.127 0-.254.026-.376.04v7.838z" fill="#003b01" id="path29450" style="fill:#b3b3b3"/><path d="M187.777 55.862h11.136c.119.413.137 3.452.026 4.01h-11.075c-.107.426-.142 3.872-.061 4.971.174.134.382.072.576.072 3.691.004 7.379.002 11.07.002h.578c.095.45.107 3.494.018 4.05-.178.017-.37.052-.564.052-1.953.004-3.909.002-5.862.002h-9.805c-.199 0-.397-.01-.613-.017-.03-.158-.061-.269-.071-.382-.01-.119-.002-.24-.002-.36V48.284c0-.215.022-.433.032-.633.413-.117 15.854-.137 16.39-.037.087.393.097 3.502.002 4.034-.639.025-1.29.008-1.944.01-.641.002-1.28 0-1.921 0H187.801c-.046 1.406-.012 2.78-.024 4.203z" fill="#003b01" id="path29452" style="fill:#b3b3b3"/><path d="M115.857 64.93h12.181c.107.394.134 3.263.043 3.998-.093.027-.198.072-.308.087-.115.016-.234.004-.353.004h-15.567c-.196 0-.394-.013-.578-.02-.093-.55-.081-21.001.012-21.417h16.329c.03.118.085.229.085.337.006 1.13.004 2.26 0 3.391 0 .082-.027.164-.051.3-.198.014-.39.043-.584.043-3.201.002-6.402 0-9.603 0-.405 0-.809-.002-1.214 0-.131 0-.263.017-.42.027v4.14c.515.087 1.033.027 1.549.037.538.01 1.077.002 1.617.002h7.923c.127.36.164 3.253.051 4.007-.908.03-1.828.009-2.748.013-.927.004-1.853 0-2.781 0h-5.551c-.107.374-.135 4.3-.032 5.042z" fill="#003b01" id="path29454" style="fill:#b3b3b3"/><path d="M56.15 47.554h.617c2.797 0 5.593-.015 8.392.006 1.648.012 3.254.32 4.728 1.093 2.141 1.122 3.534 2.856 3.955 5.312.091.536.184 1.083.178 1.623-.02 1.806-.475 3.48-1.604 4.917a7.437 7.437 0 0 1-2.958 2.257c-1.169.503-2.388.815-3.664.842-1.464.031-2.926.052-4.39.076-.182.002-.364 0-.599 0v5.259c-.184.033-.323.08-.465.08-1.247.006-2.493.006-3.74 0-.146 0-.29-.035-.452-.058V47.554Zm4.66 11.87c.088.027.137.052.183.052 1.566-.002 3.133.047 4.694-.029 1.207-.06 2.153-.7 2.835-1.726.58-.875.663-1.86.52-2.854-.134-.92-.589-1.685-1.321-2.283-.805-.656-1.739-.87-2.726-.892-1.262-.029-2.523-.008-3.785-.006-.13 0-.257.023-.396.037v7.702z" fill="#003b01" id="path29456" style="fill:#b3b3b3"/><path d="M168.664 69.002V47.634c.342-.117 3.925-.144 4.538-.031v21.368c-.372.095-3.824.122-4.538.031z" fill="#003b01" id="path29458" style="fill:#b3b3b3"/><path d="M196.566 79.163c.21-.022.37-.055.53-.055 1.735-.004 3.472-.033 5.205.008 1.348.033 2.673.238 3.906.863 2.105 1.065 3.462 2.75 3.99 5.067.59 2.587.081 4.959-1.594 7.02-.818 1.007-1.876 1.703-3.089 2.145a8.484 8.484 0 0 1-2.963.524c-1.801-.008-3.605-.002-5.407-.002h-.55c-.057-1.336-.018-2.63-.026-3.923-.006-1.284 0-2.568 0-3.853V79.161zm2.042 13.803h.548c.961 0 1.919.012 2.88-.004.519-.01 1.045-.027 1.555-.115 1.52-.267 2.776-1.001 3.684-2.294 1.037-1.477 1.306-3.141.977-4.878-.548-2.887-2.801-4.615-5.519-4.716-1.243-.045-2.491-.01-3.737-.006-.127 0-.254.029-.386.045v11.97z" fill="#003b01" id="path29460" style="fill:#b3b3b3"/><path d="M174.516 86.962c.006-4.525 3.415-8.066 7.991-8.055 4.528.012 7.949 3.394 7.959 8.024.01 4.54-3.302 8.02-7.931 8.061-4.624.04-7.999-3.571-8.019-8.03zm13.881-.352c.035-1.085-.414-2.38-1.227-3.483a5.763 5.763 0 0 0-6-2.217c-2.661.625-4.479 2.967-4.602 5.78-.067 1.503.354 2.87 1.238 4.081.78 1.069 1.817 1.768 3.067 2.13.763.22 1.533.291 2.34.186 1.213-.158 2.269-.62 3.168-1.442 1.351-1.235 2.002-2.797 2.019-5.035z" fill="#003b01" id="path29462" style="fill:#b3b3b3"/><path d="M169.193 86.816c-.061 2.114-.645 3.867-1.907 5.38-1.292 1.544-2.944 2.432-4.889 2.71-2.281.326-4.388-.208-6.21-1.66-1.495-1.193-2.443-2.765-2.797-4.674-.105-.567-.198-1.152-.176-1.726.079-2.122.763-3.994 2.259-5.542 1.203-1.243 2.647-2.013 4.311-2.28 2.865-.463 5.371.334 7.377 2.508 1.088 1.178 1.702 2.61 1.919 4.213.054.405.087.814.115 1.07zm-13.892.076a6.13 6.13 0 0 0 .655 2.967c1.197 2.392 3.729 3.682 6.358 3.175 1.862-.36 3.247-1.429 4.113-3.149a6.317 6.317 0 0 0 .615-3.869c-.31-2.04-1.307-3.602-3.111-4.576-1.11-.6-2.295-.795-3.558-.616-.91.129-1.739.437-2.465.965-1.713 1.244-2.595 2.951-2.607 5.1z" fill="#003b01" id="path29464" style="fill:#b3b3b3"/><path d="m227.112 80.676-.809 1.498c-.182-.115-.324-.2-.457-.294-1.369-.947-2.902-1.237-4.518-1.106-.671.056-1.292.33-1.876.697-.995.627-1.405 2.39.129 3.296.765.452 1.612.68 2.461.896 1.092.277 2.182.567 3.213 1.04.836.384 1.602.867 2.142 1.654 1.005 1.465.675 3.464-.318 4.615-.798.925-1.83 1.428-2.97 1.743a7.878 7.878 0 0 1-2.192.273c-2.109-.031-4.042-.627-5.644-2.1-.111-.1-.204-.22-.335-.364l.814-1.47c.172.124.316.206.435.317.991.909 2.162 1.449 3.464 1.663 1.05.17 2.107.154 3.136-.181a4 4 0 0 0 1.483-.849c.877-.801.944-2.583-.298-3.316-.663-.39-1.377-.63-2.103-.843-1.047-.308-2.109-.577-3.142-.929-.9-.306-1.727-.766-2.364-1.516a3.285 3.285 0 0 1-.78-1.958c-.069-.995.171-1.905.776-2.694.532-.693 1.244-1.149 2.055-1.43a7.889 7.889 0 0 1 3.625-.362c1.031.131 2.008.405 2.924.898.399.216.785.46 1.153.82z" fill="#003b01" id="path29466" style="fill:#b3b3b3"/><path d="M136.762 79.17c.492-.101 10.507-.085 10.93.03.064.537.044 1.09.012 1.696-.233.016-.427.043-.621.043-2.61.002-5.221 0-7.832 0h-.572v4.599h7.51c.061.585.037 1.123.017 1.715-.225.02-.419.054-.613.054-2.105.004-4.21.002-6.317.002h-.601c-.054.518-.02 1.01-.026 1.5-.006.479 0 .957 0 1.438v4.458c-.653.057-1.266.028-1.871.018-.105-.442-.111-15.112-.014-15.553z" fill="#003b01" id="path29468" style="fill:#b3b3b3"/></g></g><g id="g30978" transform="matrix(.26458 0 0 .26458 159.262 185.618)"><path d="M222.7 0c-18.4 0-28.9 10.7-28.9 23.7 0 12.9 10.5 23.7 28.9 23.7s28.9-10.8 28.9-23.7C251.5 10.7 241 0 222.7 0m0 40.5c-9.3 0-15.3-7.7-15.3-16.8 0-9.2 6-16.8 15.3-16.8S238 14.5 238 23.7c-.1 9.1-6.1 16.8-15.3 16.8M2.1.9h51.1v11.2C49.6 9 41.9 7.8 33.7 7.8v30.5c0 4.5.4 5.8 2.1 8.1H19.5c1.8-2.3 2.1-3.6 2.1-8.1V7.8C13.4 7.8 5.7 9 2.1 12.1Zm75.6 38.6c5.2 0 14-1.2 17.4-4.3v11.2H57.9c1.8-2.1 2.1-3.6 2.1-7.9V8.9c0-4.4-.3-5.8-2.1-7.9h35.3v11.2C89.7 9.1 81 7.8 75.7 7.8h-4.1v12.1h3c3 0 7.6-.1 10.6-1.2v9c-3-1.1-7.6-1.2-10.6-1.2h-3v13.1zm48.8-21.1c8.9 1.2 16.2 4.4 16.2 14 0 11.4-10.7 15-22.3 14.9-8.1-.1-15-.8-20-2.9V34.3c7.2 4.7 14.6 6.2 20 6.2 5.6 0 10.8-1.4 10.8-5.7 0-4.3-4.8-5.3-14.6-6.8-8.5-1.3-16.2-4.9-16.2-13.3C100.3 3.4 111 0 121.2 0c6.6 0 13 .8 18.9 2.7v11c-4.9-4.4-12.2-6.8-19.4-6.8-4.9 0-9.5 1.6-9.5 5.2 0 4.5 6.8 5.2 15.3 6.3zM177 0c5.3 0 9.9.6 13.6 1.6v11.3c-3.6-3.7-7.9-6-13.5-6-10.3 0-17.1 7.2-17.1 16.8 0 9.6 6.9 16.8 17.2 16.8 5.6 0 9.9-2.3 13.5-6v11.3c-3.7 1-8.3 1.7-13.6 1.7-17.8 0-30.7-8.9-30.7-23.8C146.3 8.8 159.2 0 177 0Z" style="clip-rule:evenodd;fill:#e62432;fill-rule:evenodd" id="path30966"/><path d="M251 58.8h-30.8c-5 0-9 3.1-10.9 5.4 0 0-4.8 5-8 6.8l-.1.1-.1.1.1.2h29.4c5.7 0 8.4-2.2 12-5.6 0 0 4.8-5 8.4-6.6h.1l.1-.1v-.3h-.2m-50.3 0h-30.8c-5 0-9 3.1-10.9 5.4 0 0-4.8 5-8 6.8l-.1.1-.1.1.1.2h29.4c5.7 0 8.4-2.2 12-5.6 0 0 4.8-5 8.4-6.6h.1l.1-.1v-.3h-.2m-50.2 0h-30.8c-5 0-9 3.1-10.9 5.4 0 0-4.8 5-8 6.8l-.1.1-.1.1.1.2H130c5.7 0 8.4-2.2 12-5.6 0 0 4.8-5 8.4-6.6h.1l.1-.1v-.3h-.1m-50.3 0H69.4c-5 0-9 3.1-10.9 5.4 0 0-4.8 5-8 6.8l-.1.1-.1.1.1.2h29.4c5.7 0 8.4-2.2 12-5.6 0 0 4.8-5 8.4-6.6h.1l.1-.1v-.3h-.2m-50.2 0H19.1c-5 0-9 3.1-10.9 5.4 0 0-4.8 5-8 6.8l-.1.1-.1.1.1.2h29.4c5.7 0 8.4-2.2 12-5.6 0 0 4.8-5 8.4-6.6h.1l.1-.1-.1-.3" id="path30968" style="fill:#02549f"/></g></g><style id="style30964">.st0{fill:#fff}</style></svg>