<svg width="50mm" height="25mm" viewBox="0 5 50 25" version="1.1" id="svg20707" xml:space="preserve" xmlns="http://www.w3.org/2000/svg"><defs id="defs20704"><clipPath id="clip0_2484_23295"><path fill="#fff" id="rect29472" d="M0 0h228v95H0z"/></clipPath></defs><g id="layer1"><path fill="#f47320" d="M12.549 16.45c-.457 0-.761-.28-.761-.702 0-.351.245-.658.76-.658.496 0 .74.32.74.67 0 .431-.28.703-.74.703m-4.377 5.984c-.985 0-1.826-.556-1.826-1.612 0-1.277 1.417-1.557 2.036-1.64 1.019-.127 1.111-.198 1.111-.467 0-.572-.102-1.038-.818-1.038-.482 0-.867.14-1.236.36l-.191.127c-.064.048-.176.176-.304.176-.063 0-.191-.067-.191-.235v-.524c0-.108.048-.21.175-.284.48-.233 1.197-.362 1.836-.362 1.66 0 2.155.654 2.155 1.604v3.642c0 .08-.048.138-.144.138h-1.07c-.047 0-.111-.056-.111-.138l-.032-.303c-.367.326-.814.559-1.357.559m1.325-2.806c-1.293 0-1.788.582-1.788 1.216 0 .44.24.89.862.89.543 0 .942-.41.942-.564v-1.542m17.063 2.825c-.83 0-1.453-.292-1.868-.607-.175-.127-.207-.35-.207-.542V15.29c0-.083.063-.143.111-.143h1.134c.08 0 .143.06.143.143v2.327c.224-.191.734-.597 1.533-.597 1.213 0 1.979 1.054 1.979 2.458 0 1.804-1.245 3.001-2.793 3.001m-.735-1.053c0 .111.029.223.16.303.112.08.287.128.638.128.746 0 1.274-.766 1.274-2.075 0-.48-.112-1.868-1.176-1.868-.431 0-.735.24-.91.367v3.193-.032m14.365 2.825c-.144 0-.287 0-.485-.048-.152-.032-.235-.128-.235-.24v-.671c0-.08.07-.16.153-.16.128 0 .224.032.358.064.223.048.43.08.622.08.655 0 1.134-.336 1.15-.99l-2.123-4.916c-.048-.128-.064-.16-.064-.192 0-.08.048-.111.112-.111h1.277c.095 0 .143.032.175.127l1.277 3.352 1.23-3.352a.155.155 0 0 1 .159-.127h.526c.048 0 .096.048.096.111 0 .048-.032.08-.048.144l-2.14 5.523c-.299.766-1.141 1.396-2.043 1.396M2.92 22.49a4.518 4.518 0 0 1-1.929-.431c-.116-.08-.138-.128-.138-.24v-.585c0-.107.036-.213.234-.213.106 0 .176.056.326.165.602.42 1.175.59 1.66.59.817 0 1.372-.495 1.372-1.107.007-1.601-3.648-1.111-3.648-3.474 0-1.093.842-2.049 2.399-2.049.774 0 1.476.148 1.872.303.107.048.128.102.128.21v.68c0 .103-.032.184-.16.184-.104 0-.187-.063-.316-.16-.468-.334-.915-.542-1.5-.542-.655 0-1.169.351-1.169.894 0 1.34 3.708 1.197 3.708 3.352 0 1.628-1.357 2.394-2.841 2.394m10.2-.16h-1.134c-.064 0-.128-.063-.128-.143V17.21c0-.08.064-.144.112-.144h1.117c.08 0 .144.064.144.144v4.981c0 .085-.064.14-.144.14m19.25.11c-1.166 0-2.33-.478-2.33-1.803v-3.41c0-.08.047-.144.11-.144h1.134c.08 0 .144.064.144.143v3.687c0 .55.35.89.941.89.719 0 .958-.406.958-1.166v-3.427c0-.08.048-.143.112-.143h1.117c.08 0 .144.064.144.143V20.5c0 1.453-1.181 1.941-2.346 1.941m-13.424-.099h-1.133c-.064 0-.112-.06-.112-.143v-3.512c0-.399-.064-.868-.83-.868-.399 0-.878.231-1.101.359v4.022c0 .08-.048.144-.144.144h-1.117c-.053 0-.112-.064-.112-.144v-4.98c0-.086.064-.143.153-.143h1.118c.08 0 .147.057.147.143v.267c.319-.214 1.037-.527 1.691-.527 1.134 0 1.628.655 1.628 1.612V22.2c0 .08-.047.144-.143.144m2.777.128a4.041 4.041 0 0 1-1.596-.34c-.134-.069-.168-.171-.168-.3v-.46c0-.165.08-.212.192-.212.08 0 .16.036.223.095.48.363 1.038.538 1.485.538.526 0 .91-.223.91-.654 0-1.006-2.937-.623-2.937-2.484 0-1.14.973-1.655 2.075-1.655.494 0 1.005.102 1.484.299.144.059.176.175.176.303v.388c0 .162-.064.21-.176.21-.048 0-.144-.048-.223-.095a2.679 2.679 0 0 0-1.453-.447c-.479 0-.862.175-.862.558 0 .926 3 .495 3 2.347 0 1.404-1.02 1.883-2.09 1.883M37 22.301h-1.117c-.056 0-.112-.063-.112-.143V17.21c0-.08.056-.144.112-.144h1.085c.088 0 .144.064.144.144l.024.622c.006 0 .008 0 .01-.016.223-.335.75-.862 1.396-.862.155 0 .287 0 .51.048.16.032.24.128.24.24v.734c0 .08-.073.16-.16.16-.127 0-.239-.048-.39-.096a2.502 2.502 0 0 0-.503-.048c-.543 0-1.086.207-1.086.958v3.16c0 .08-.056.143-.135.143m8.06-5.299c-.271.08.271-.574.183-.925-.095-.336-.483-.798-.207-.904.271-.107.782-.105.926.08.319.613-.112 1.62-.905 1.74zm2.485 5.509a3.994 3.994 0 0 1-1.596-.342c-.137-.064-.17-.168-.17-.297v-.456c0-.165.071-.213.186-.213.086 0 .16.048.223.096.474.367 1.031.543 1.485.543h.006c.514 0 .91-.224.91-.655 0-1.005-2.953-.622-2.953-2.474 0-1.133.974-1.644 2.075-1.644a3.71 3.71 0 0 1 1.484.304c.144.064.176.175.176.303v.399c0 .16-.069.207-.191.207a.504.504 0 0 1-.218-.095 2.693 2.693 0 0 0-1.449-.447c-.479 0-.862.175-.862.558 0 .926 2.985.511 2.985 2.363 0 1.404-1.021 1.9-2.094 1.9" id="path30229" style="fill:#b3b3b3;stroke-width:.159612"/></g><style id="style30964">.st1{fill:#02549f}.st0{fill:#fff}</style></svg>