<?xml version="1.0" encoding="UTF-8" standalone="no"?>
<svg
   viewBox="0 0 24 24"
   version="1.1"
   id="svg23218"
   sodipodi:docname="cypress.svg"
   inkscape:version="1.2.1 (9c6d41e4, 2022-07-14)"
   xmlns:inkscape="http://www.inkscape.org/namespaces/inkscape"
   xmlns:sodipodi="http://sodipodi.sourceforge.net/DTD/sodipodi-0.dtd"
   xmlns="http://www.w3.org/2000/svg"
   xmlns:svg="http://www.w3.org/2000/svg">
  <defs
     id="defs23222" />
  <sodipodi:namedview
     id="namedview23220"
     pagecolor="#ffffff"
     bordercolor="#000000"
     borderopacity="0.25"
     inkscape:showpageshadow="2"
     inkscape:pageopacity="0.0"
     inkscape:pagecheckerboard="0"
     inkscape:deskcolor="#d1d1d1"
     showgrid="false"
     inkscape:zoom="9.8333333"
     inkscape:cx="12"
     inkscape:cy="12"
     inkscape:window-width="1309"
     inkscape:window-height="456"
     inkscape:window-x="986"
     inkscape:window-y="170"
     inkscape:window-maximized="0"
     inkscape:current-layer="svg23218" />
  <rect
     style="fill:#ffffff;stroke:#ffe680;stroke-width:0;stroke-linecap:round;stroke-linejoin:round"
     id="rect23704"
     width="24"
     height="24"
     x="8.6206899e-09"
     y="-0.10169491" />
  <path
     d="M 11.998271,1.6271186 C 6.2655251,1.6271186 1.6271183,6.2663899 1.6271183,12 A 10.365966,10.365966 0 0 0 12,22.372882 C 17.73361,22.372882 22.372881,17.73361 22.372881,12 22.372017,6.2663899 17.694712,1.6271186 11.998271,1.6271186 Z M 7.1333896,14.225848 c 0.3388474,0.452084 0.7917966,0.64139 1.432322,0.64139 0.3025424,0 0.6042204,-0.03803 0.8678644,-0.151272 0.2645085,-0.112373 0.5661865,-0.264508 0.942203,-0.490118 l 1.05717,1.50839 c -0.867,0.717457 -1.8481018,1.056305 -2.9796103,1.056305 -0.9058983,0 -1.659661,-0.188441 -2.3382203,-0.565322 A 3.797339,3.797339 0 0 1 4.6058641,14.56556 C 4.2670166,13.848102 4.0777115,13.018271 4.0777115,12.03717 c 0,-0.942204 0.1893051,-1.810068 0.5272882,-2.5266614 A 3.9961526,3.9961526 0 0 1 6.1159828,7.7756442 c 0.6405254,-0.4149153 1.432322,-0.603356 2.3001864,-0.603356 0.6042204,0 1.1695424,0.075203 1.6224918,0.2636441 a 4.8752543,4.8752543 0 0 1 1.395152,0.8298305 L 10.377508,9.6989493 A 4.1370509,4.1370509 0 0 0 9.5105083,9.2079662 C 9.2468642,9.0955934 8.9071523,9.0575595 8.6046099,9.0575595 c -1.2819152,0 -1.9233051,0.9802375 -1.9233051,2.9787455 -0.03717,1.02 0.1512712,1.735729 0.4529492,2.188678 h -8.644e-4 z m 10.3728814,2.33822 c -0.376881,1.169542 -0.943068,2.037407 -1.735729,2.677932 -0.791796,0.642255 -1.848101,0.981102 -3.168051,1.094339 l -0.263644,-1.772034 c 0.867,-0.114101 1.50839,-0.302542 1.923305,-0.605084 0.150407,-0.112373 0.45295,-0.452085 0.45295,-0.452085 L 11.58422,7.4739662 h 2.601865 l 1.810932,7.5056438 1.924169,-7.5056438 h 2.526661 z"
     id="path23216"
     style="stroke-width:0.864407" />
</svg>
