<?xml version="1.0" encoding="UTF-8" standalone="no"?>
<svg
   height="25"
   preserveAspectRatio="xMidYMid"
   width="25"
   viewBox="-165.83095 -227.12219 5.70167 7.9739608"
   version="1.1"
   id="svg11315"
   sodipodi:docname="jest.svg"
   inkscape:version="1.2.1 (9c6d41e4, 2022-07-14)"
   xmlns:inkscape="http://www.inkscape.org/namespaces/inkscape"
   xmlns:sodipodi="http://sodipodi.sourceforge.net/DTD/sodipodi-0.dtd"
   xmlns="http://www.w3.org/2000/svg"
   xmlns:svg="http://www.w3.org/2000/svg">
  <defs
     id="defs11319" />
  <sodipodi:namedview
     id="namedview11317"
     pagecolor="#ffffff"
     bordercolor="#000000"
     borderopacity="0.25"
     inkscape:showpageshadow="2"
     inkscape:pageopacity="0.0"
     inkscape:pagecheckerboard="0"
     inkscape:deskcolor="#d1d1d1"
     showgrid="false"
     inkscape:zoom="11.287698"
     inkscape:cx="6.9101776"
     inkscape:cy="12.092811"
     inkscape:window-width="1355"
     inkscape:window-height="687"
     inkscape:window-x="870"
     inkscape:window-y="216"
     inkscape:window-maximized="0"
     inkscape:current-layer="svg11315" />
  <rect
     style="fill:#ffffff;stroke:#ffe680;stroke-width:0;stroke-linecap:round;stroke-linejoin:round"
     id="rect14035"
     width="7.9967799"
     height="7.9120078"
     x="-166.99536"
     y="-227.09393" />
  <g
     id="g11803"
     transform="matrix(0.0260507,0,0,0.0260507,-166.47566,-226.7828)">
    <path
       d="m 239.553,138.96 c 0,-14.508 -11.762,-26.27 -26.27,-26.27 -0.934,0 -1.854,0.05 -2.762,0.146 L 246.603,6.416 H 93.267 l 36.032,106.327 a 26.318,26.318 0 0 0 -1.597,-0.052 c -14.508,0 -26.27,11.76 -26.27,26.27 0,11.727 7.686,21.656 18.293,25.034 -5.602,9.704 -12.652,18.445 -20.656,25.997 -10.884,10.267 -23.34,18.053 -36.812,22.85 -16.04,-8.24 -23.614,-26.565 -16.78,-42.632 0.772,-1.815 1.56,-3.654 2.313,-5.485 11.62,-2.712 20.28,-13.129 20.28,-25.576 0,-14.509 -11.762,-26.27 -26.271,-26.27 -14.509,0 -26.27,11.761 -26.27,26.27 0,8.897 4.426,16.756 11.193,21.508 -6.502,14.804 -16.06,30.298 -19.038,48.255 -3.569,21.52 -0.012,44.364 18.601,57.265 43.348,30.044 90.402,-18.625 140.014,-30.86 17.98,-4.433 37.717,-3.719 53.558,-12.893 11.896,-6.89 19.739,-18.309 21.964,-31.128 2.2,-12.664 -1.006,-25.273 -8.378,-35.497 a 26.158,26.158 0 0 0 6.11,-16.839"
       fill="#99425b"
       id="path11311" />
    <path
       d="m 235.5,190.198 c -1.932,11.13 -8.806,20.851 -18.858,26.674 -9.371,5.427 -20.6,7.047 -32.49,8.761 -6.369,0.918 -12.955,1.869 -19.389,3.455 -17.012,4.195 -33.49,12.38 -49.424,20.295 -31.89,15.84 -59.43,29.518 -85.398,11.52 C 10.919,247.72 11.797,223.328 14.013,209.962 16.067,197.578 21.62,186.173 26.989,175.144 a 796.621,796.621 0 0 0 2.722,-5.634 32.453,32.453 0 0 0 8.443,2.118 c -5.466,18.039 3.13,37.653 21.171,46.921 l 2.47,1.269 2.614,-0.931 c 14.263,-5.08 27.406,-13.23 39.063,-24.229 7.535,-7.109 14.014,-14.974 19.339,-23.378 a 32.8,32.8 0 0 0 4.891,0.367 c 16.559,0 30.271,-12.379 32.393,-28.367 6.778,-0.248 13.977,-0.25 20.794,-0.002 2.12,15.99 15.834,28.37 32.393,28.37 6.924,0 13.346,-2.17 18.637,-5.856 3.673,7.519 5.044,15.979 3.581,24.406 z M 41.8,119.295 c 10.948,0 19.854,8.907 19.854,19.855 0,3.932 -1.154,7.599 -3.135,10.687 -3.3,5.147 -8.91,8.675 -15.355,9.115 -0.451,0.03 -0.906,0.052 -1.364,0.052 -2.44,0 -4.777,-0.445 -6.938,-1.253 a 19.967,19.967 0 0 1 -10.305,-8.777 19.725,19.725 0 0 1 -2.612,-9.824 c 0,-10.948 8.907,-19.855 19.855,-19.855 z m 66.049,19.666 c 0,-9.947 7.353,-18.206 16.907,-19.634 0.962,-0.145 1.946,-0.22 2.947,-0.22 6.365,0 12.032,3.015 15.666,7.687 a 19.88,19.88 0 0 1 2.318,3.765 19.73,19.73 0 0 1 1.87,8.402 c 0,1.587 -0.192,3.13 -0.545,4.61 -1.935,8.1 -8.842,14.292 -17.306,15.144 -0.658,0.066 -1.326,0.1 -2.003,0.1 a 19.734,19.734 0 0 1 -10.76,-3.181 c -5.466,-3.541 -9.094,-9.69 -9.094,-16.673 z m 82.865,-23.61 a 32.721,32.721 0 0 0 -8.991,15.117 304.792,304.792 0 0 0 -22.458,0 c -1.68,-6.232 -5.162,-11.73 -9.847,-15.906 L 169.963,73.02 Z M 102.216,12.834 h 135.437 l -31.989,94.345 a 32.479,32.479 0 0 0 -4.051,1.255 l -31.6,-64.463 -31.69,64.078 a 32.502,32.502 0 0 0 -4.226,-1.139 z m 130.92,126.128 c 0,1.99 -0.297,3.912 -0.844,5.727 a 19.933,19.933 0 0 1 -7.653,10.545 19.74,19.74 0 0 1 -11.357,3.582 c -9.167,0 -16.9,-6.247 -19.174,-14.707 a 19.803,19.803 0 0 1 -0.68,-5.147 c 0,-2.714 0.548,-5.302 1.538,-7.66 a 19.848,19.848 0 0 1 1.878,-3.442 c 3.573,-5.274 9.602,-8.752 16.438,-8.752 0.627,0 1.245,0.032 1.858,0.09 10.08,0.939 17.997,9.442 17.997,19.764 z m 12.833,0 c 0,-15.958 -11.498,-29.273 -26.642,-32.117 L 255.553,0 H 84.318 L 120.6,107.061 c -14.618,3.253 -25.583,16.316 -25.583,31.9 0,11.702 6.184,21.98 15.452,27.756 -4.458,6.642 -9.744,12.892 -15.802,18.608 -9.608,9.063 -20.311,15.937 -31.85,20.46 -11.623,-7.301 -16.536,-21.07 -11.434,-33.064 l 0.4,-0.94 0.75,-1.764 c 12.766,-4.453 21.953,-16.603 21.953,-30.867 0,-18.024 -14.663,-32.687 -32.686,-32.687 -18.023,0 -32.688,14.663 -32.688,32.687 0,9.097 3.74,17.335 9.758,23.267 a 552.73,552.73 0 0 1 -3.418,7.11 c -5.503,11.301 -11.739,24.11 -14.098,38.335 -4.684,28.25 2.872,50.833 21.277,63.588 11.168,7.74 22.51,10.784 33.923,10.784 21.49,0 43.23,-10.797 64.493,-21.359 15.313,-7.605 31.148,-15.47 46.789,-19.328 5.82,-1.435 11.808,-2.299 18.148,-3.213 12.573,-1.814 25.573,-3.689 37.089,-10.358 13.349,-7.732 22.486,-20.702 25.07,-35.582 2.218,-12.775 -0.451,-25.57 -6.961,-36.422 a 32.488,32.488 0 0 0 4.787,-17.011 z"
       fill="#ffffff"
       id="path11313" />
  </g>
</svg>
