<?xml version="1.0" encoding="UTF-8" standalone="no"?>
<svg
   width="2500"
   height="2500"
   viewBox="0 0 512 512"
   version="1.1"
   id="svg16139"
   sodipodi:docname="scss.svg"
   inkscape:version="1.2.1 (9c6d41e4, 2022-07-14)"
   xmlns:inkscape="http://www.inkscape.org/namespaces/inkscape"
   xmlns:sodipodi="http://sodipodi.sourceforge.net/DTD/sodipodi-0.dtd"
   xmlns="http://www.w3.org/2000/svg"
   xmlns:svg="http://www.w3.org/2000/svg">
  <defs
     id="defs16143" />
  <sodipodi:namedview
     id="namedview16141"
     pagecolor="#ffffff"
     bordercolor="#000000"
     borderopacity="0.25"
     inkscape:showpageshadow="2"
     inkscape:pageopacity="0.0"
     inkscape:pagecheckerboard="0"
     inkscape:deskcolor="#d1d1d1"
     showgrid="false"
     inkscape:zoom="0.12586667"
     inkscape:cx="1247.3517"
     inkscape:cy="945.44492"
     inkscape:window-width="1309"
     inkscape:window-height="632"
     inkscape:window-x="1007"
     inkscape:window-y="78"
     inkscape:window-maximized="0"
     inkscape:current-layer="svg16139" />
  <rect
     style="fill:#ffffff;stroke:#ffe680;stroke-width:0;stroke-linecap:round;stroke-linejoin:round"
     id="rect19170"
     width="510.91525"
     height="507.66101"
     x="-1.6271187"
     y="0" />
  <path
     fill="#cf649a"
     d="m 424.16001,279.5051 c -16.30706,0.092 -30.4277,4.00844 -42.27082,9.83981 -4.37285,-8.65459 -8.74569,-16.21687 -9.47359,-21.86422 -0.81991,-6.55927 -1.82202,-10.56862 -0.81991,-18.40238 1.0012,-7.83559 5.55625,-18.94991 5.55625,-19.86092 -0.092,-0.8199 -1.00302,-4.82834 -10.38551,-4.91945 -9.38248,-0.0911 -17.49137,1.82202 -18.40238,4.28175 -0.91101,2.45972 -2.73303,8.10798 -3.91734,13.93844 -1.63982,8.56348 -18.76679,38.90009 -28.51459,54.84275 -3.18853,-6.19486 -5.92156,-11.66092 -6.46907,-16.03467 -0.819,-6.55836 -1.82202,-10.56771 -0.819,-18.40148 1.00211,-7.83559 5.55715,-18.94899 5.55715,-19.86 -0.0911,-0.8199 -1.00211,-4.82835 -10.38459,-4.91945 -9.3843,-0.0911 -17.49138,1.82202 -18.40238,4.28175 -0.91101,2.45972 -1.91312,8.29018 -3.91734,13.93844 -1.91403,5.64825 -24.68926,56.30036 -30.61082,69.51 -3.00633,6.74147 -5.64735,12.11642 -7.56138,15.76046 -1.91312,3.64403 -0.0911,0.2733 -0.2733,0.6377 -1.63982,3.09743 -2.55083,4.82835 -2.55083,4.82835 v 0.092 c -1.27541,2.27753 -2.64192,4.46304 -3.28054,4.46304 -0.45551,0 -1.36652,-6.10376 0.1822,-14.48414 3.37073,-17.58339 11.56982,-45.00385 11.47963,-46.00596 0,-0.45551 1.5478,-5.28476 -5.28477,-7.74358 -6.65036,-2.45972 -9.01808,1.63982 -9.56559,1.63982 -0.54661,0 -1.00211,1.45761 -1.00211,1.45761 0,0 7.37917,-30.8823 -14.12065,-30.8823 -13.48293,0 -32.06752,14.66725 -41.26871,28.05909 -5.83046,3.18853 -18.22019,9.92908 -31.33872,17.12697 -5.01055,2.73303 -10.2033,5.64825 -15.12275,8.29018 l -1.0012,-1.09503 C 104.12249,280.23391 55.930102,260.55611 57.934322,223.20473 58.66313,209.6307 63.400377,173.82804 150.49377,130.464 c 71.33201,-35.529359 128.45229,-25.78156 138.38138,-4.09954 14.12064,30.97431 -30.51881,88.55009 -104.67404,96.84027 -28.24129,3.18854 -43.09165,-7.74357 -46.82588,-11.84312 -3.91734,-4.28174 -4.46394,-4.46394 -5.92156,-3.64403 -2.36862,1.27541 -0.91101,5.10165 0,7.37917 2.18643,5.73936 11.29652,15.94266 26.78367,21.04431 13.57313,4.46395 46.73477,6.92367 86.81918,-8.56348 44.91275,-17.40028 79.9866,-65.68376 69.6922,-106.04147 -10.4766,-41.086515 -78.62009,-54.569451 -143.02844,-31.70312 -38.3544,13.66514 -79.896416,34.98275 -109.777517,62.95073 -35.529358,33.16074 -41.177615,62.13083 -38.808991,74.15615 8.291094,42.90853 67.414679,70.87652 91.100918,91.55642 -1.18431,0.6368 -2.27752,1.27451 -3.27963,1.82202 -11.843123,5.82955 -56.938077,29.4256 -68.234591,54.38634 -12.754129,28.24128 2.00422,48.5577 11.843119,51.29073 30.427707,8.47238 61.584222,-6.74147 78.437892,-31.79422 16.76166,-25.05276 14.75835,-57.57578 7.01477,-72.42523 l -0.27421,-0.54661 9.29229,-5.46605 c 6.01357,-3.55294 11.93513,-6.83257 17.12697,-9.65761 -2.91432,7.92578 -5.01055,17.30917 -6.10285,30.97431 -1.27541,16.03467 5.28385,36.80477 13.93844,45.00385 3.82624,3.55203 8.38129,3.64404 11.20541,3.64404 10.02111,0 14.57615,-8.29109 19.5867,-18.22018 6.19486,-12.11643 11.66092,-26.14597 11.66092,-26.14597 0,0 -6.83257,37.98909 11.84312,37.98909 6.83257,0 13.66514,-8.83679 16.76257,-13.39184 v 0.0911 c 0,0 0.1822,-0.2733 0.5466,-0.91101 a 32.914762,32.914762 0 0 0 1.09321,-1.73 v -0.18221 c 2.73303,-4.73724 8.83679,-15.57825 17.94689,-33.52513 11.7511,-23.13964 23.04853,-52.10973 23.04853,-52.10973 0,0 1.09321,7.10587 4.46394,18.76679 2.00331,6.92458 6.37616,14.48505 9.74689,21.86422 -2.73303,3.82624 -4.37284,6.01357 -4.37284,6.01357 l 0.0911,0.0911 c -2.18551,2.91523 -4.64615,6.01358 -7.19607,9.1101 -9.29229,11.11431 -20.4066,23.77825 -21.86422,27.42228 -1.73091,4.28083 -1.36651,7.46937 2.00422,10.0211 2.45973,1.82202 6.83257,2.18551 11.47872,1.82202 8.38128,-0.54751 14.21174,-2.64192 17.12697,-3.91825 4.55505,-1.63982 9.7478,-4.09954 14.75835,-7.74358 9.11009,-6.74055 14.66725,-16.30615 14.12064,-29.06028 -0.2733,-7.01477 -2.55082,-13.93844 -5.37495,-20.4977 0.81991,-1.18432 1.64073,-2.36954 2.45972,-3.64404 14.39395,-21.04522 25.50826,-44.18395 25.50826,-44.18395 0,0 1.09321,7.10587 4.46395,18.76679 1.73,5.92156 5.19275,12.39064 8.29018,18.7677 -13.48294,11.02321 -21.95532,23.77734 -24.87055,32.15863 -5.37495,15.48715 -1.18431,22.50192 6.74147,24.14174 3.55202,0.72881 8.65458,-0.91101 12.47991,-2.55083 4.73725,-1.54871 10.47661,-4.19155 15.76137,-8.10798 9.11009,-6.74147 17.85578,-16.12486 17.40028,-28.78789 -0.27331,-5.83046 -1.82202,-11.56981 -3.91734,-17.03587 11.47871,-4.73725 26.32725,-7.47027 45.18605,-5.19275 40.53991,4.73725 48.55679,30.0633 47.00899,40.63101 -1.54872,10.56862 -10.0211,16.39816 -12.84614,18.22018 -2.82413,1.73092 -3.73514,2.36954 -3.46184,3.64404 0.36441,1.91403 1.63982,1.82202 4.09954,1.45852 3.37074,-0.54751 21.31762,-8.65458 22.04643,-28.14927 1.09321,-25.0564 -22.68413,-52.38667 -64.86386,-52.11428 z M 111.50166,384.90886 c -13.391833,14.66725 -32.249723,20.22441 -40.266604,15.48716 -8.654587,-5.01055 -5.284764,-26.60147 11.205413,-42.17973 10.021101,-9.47449 23.048531,-18.22018 31.612021,-23.59513 1.91312,-1.18432 4.82835,-2.91432 8.29018,-5.01055 0.54661,-0.3635 0.91101,-0.54661 0.91101,-0.54661 0.63771,-0.3644 1.36651,-0.81991 2.09532,-1.27541 6.10376,22.22862 0.2733,41.72422 -13.84734,57.12027 z m 97.93349,-66.59477 c -4.64615,11.38762 -14.48505,40.63101 -20.40661,38.99119 -5.10256,-1.36651 -8.19908,-23.50403 -1.00302,-45.36825 3.64404,-11.02412 11.38762,-24.14175 15.94266,-29.24431 7.38009,-8.19908 15.39606,-10.93211 17.40119,-7.56137 2.36862,4.37375 -9.01899,36.07687 -11.93422,43.18274 z m 80.80651,38.62679 c -2.00422,1.00302 -3.82624,1.73092 -4.64614,1.18522 -0.63771,-0.3644 0.81899,-1.73091 0.81899,-1.73091 0,0 10.11221,-10.84101 14.12065,-15.85156 2.27752,-2.91432 5.01055,-6.28506 7.92578,-10.1122 v 1.09321 c 9.1e-4,13.11762 -12.57102,21.86331 -18.21928,25.41624 z m 62.31212,-14.21174 c -1.45761,-1.09321 -1.2745,-4.46395 3.64404,-15.03165 1.91403,-4.19065 6.28596,-11.20542 13.84734,-17.85578 0.91101,2.73302 1.45852,5.37404 1.36651,7.83468 -0.0902,16.39816 -11.75111,22.50192 -18.85789,25.05275 z"
     id="path16137"
     style="stroke-width:0.911009" />
</svg>
