<?xml version="1.0" encoding="UTF-8" standalone="no"?>
<svg
   viewBox="0 0 318 318"
   width="2500"
   height="2500"
   version="1.1"
   id="svg6519"
   sodipodi:docname="styled_components.svg"
   inkscape:version="1.2.1 (9c6d41e4, 2022-07-14)"
   xmlns:inkscape="http://www.inkscape.org/namespaces/inkscape"
   xmlns:sodipodi="http://sodipodi.sourceforge.net/DTD/sodipodi-0.dtd"
   xmlns:xlink="http://www.w3.org/1999/xlink"
   xmlns="http://www.w3.org/2000/svg"
   xmlns:svg="http://www.w3.org/2000/svg">
  <sodipodi:namedview
     id="namedview6521"
     pagecolor="#ffffff"
     bordercolor="#000000"
     borderopacity="0.25"
     inkscape:showpageshadow="2"
     inkscape:pageopacity="0.0"
     inkscape:pagecheckerboard="0"
     inkscape:deskcolor="#d1d1d1"
     showgrid="false"
     inkscape:zoom="0.0944"
     inkscape:cx="1250"
     inkscape:cy="1218.2203"
     inkscape:window-width="1309"
     inkscape:window-height="456"
     inkscape:window-x="985"
     inkscape:window-y="188"
     inkscape:window-maximized="0"
     inkscape:current-layer="svg6519" />
  <defs
     id="defs6507">
    <path
       id="a"
       d="M0 0h318v318H0z" />
    <mask
       id="b"
       fill="#fff"
       height="318"
       width="318"
       x="0"
       y="0">
      <use
         xlink:href="#a"
         id="use6504" />
    </mask>
  </defs>
  <rect
     style="fill:#ffffff;stroke:#ffe680;stroke-width:0;stroke-linecap:round;stroke-linejoin:round"
     id="rect12234"
     width="319.34747"
     height="315.30508"
     x="1.3474576"
     y="0" />
  <use
     mask="url(#b)"
     stroke="#4a4a4a"
     stroke-width="8"
     xlink:href="#a"
     id="use6509"
     style="fill:none;fill-rule:evenodd" />
  <path
     d="m 44.284,229.416 c -4.428,0 -7.344,2.376 -7.344,5.544 0,2.808 1.728,4.68 5.652,5.76 3.564,1.008 4.32,1.512 4.32,3.096 0,1.44 -1.332,2.304 -3.384,2.304 -1.944,0 -3.708,-0.756 -5.184,-1.872 l -2.304,2.592 c 1.764,1.584 4.32,2.7 7.596,2.7 4.356,0 8.028,-2.088 8.028,-6.048 0,-3.384 -2.196,-4.968 -6.084,-6.012 -3.24,-0.9 -3.996,-1.476 -3.996,-2.736 0,-1.152 1.044,-1.908 2.88,-1.908 1.692,0 3.204,0.54 4.788,1.548 l 1.8,-2.7 c -1.8,-1.404 -4.032,-2.268 -6.768,-2.268 z m 20.412,15.732 1.62,2.952 c -1.368,0.972 -3.096,1.44 -4.788,1.44 -3.744,-0.036 -5.724,-2.16 -5.724,-6.228 v -10.044 h -2.988 v -3.312 h 2.988 v -4.212 l 4.608,-0.54 v 4.752 h 4.428 l -0.468,3.312 h -3.96 v 9.936 c 0,1.872 0.612,2.628 2.016,2.628 0.72,0 1.44,-0.216 2.268,-0.684 z m 19.62,-15.192 -6.192,19.116 c -1.44,4.464 -4.248,7.344 -9.9,7.776 L 67.756,253.5 c 3.78,-0.576 5.004,-1.8 6.084,-4.5 h -1.584 l -6.048,-19.044 h 4.896 l 4.14,15.984 4.32,-15.984 z m 7.308,19.584 a 7.55,7.55 0 0 0 3.06,-0.648 l -0.972,-3.24 c -0.324,0.108 -0.648,0.18 -1.08,0.18 -0.756,0 -1.08,-0.432 -1.08,-1.332 v -22.68 l -4.608,0.504 v 22.32 c 0,3.132 1.764,4.896 4.68,4.896 z m 21.744,-10.512 c 0,0.612 -0.072,1.368 -0.108,1.872 h -11.952 c 0.324,3.888 2.16,5.148 4.68,5.148 1.692,0 3.096,-0.54 4.752,-1.692 l 1.908,2.628 c -1.872,1.512 -4.176,2.556 -7.056,2.556 -5.904,0 -9.072,-3.924 -9.072,-9.936 0,-5.796 3.06,-10.188 8.46,-10.188 5.328,0 8.388,3.6 8.388,9.612 z m -4.572,-1.116 v -0.216 c 0,-3.132 -1.116,-5.004 -3.708,-5.004 -2.16,0 -3.528,1.44 -3.78,5.22 z m 20.124,-16.092 4.608,0.504 V 249 h -4.068 l -0.324,-2.412 c -1.152,1.728 -2.988,2.952 -5.436,2.952 -4.752,0 -7.236,-3.996 -7.236,-10.044 0,-5.868 2.952,-10.08 7.668,-10.08 2.016,0 3.6,0.864 4.788,2.052 z m -3.924,24.228 c 1.692,0 2.844,-0.828 3.924,-2.448 v -8.712 c -1.008,-1.224 -2.088,-2.016 -3.636,-2.016 -2.376,0 -3.96,2.016 -3.96,6.588 0,4.896 1.404,6.588 3.672,6.588 z M 44.44,265.416 c -5.472,0 -8.892,4.14 -8.892,10.224 0,6.084 3.42,9.9 8.928,9.9 2.448,0 4.428,-0.792 6.156,-2.196 l -2.052,-2.916 c -1.404,0.9 -2.412,1.368 -3.852,1.368 -2.592,0 -4.284,-1.62 -4.284,-6.228 0,-4.572 1.62,-6.516 4.284,-6.516 1.44,0 2.592,0.432 3.852,1.368 l 2.052,-2.772 c -1.8,-1.548 -3.708,-2.232 -6.192,-2.232 z m 17.316,0 c 5.616,0 8.928,3.816 8.928,10.044 0,6.012 -3.348,10.08 -8.964,10.08 -5.616,0 -8.964,-3.816 -8.964,-10.08 0,-5.976 3.348,-10.044 9,-10.044 z m 0,3.492 c -2.7,0 -4.14,2.052 -4.14,6.552 0,4.572 1.404,6.588 4.104,6.588 2.7,0 4.104,-2.052 4.104,-6.588 0,-4.536 -1.404,-6.552 -4.068,-6.552 z M 95.2,265.416 c -2.52,0 -4.284,1.224 -5.724,3.204 -0.72,-2.016 -2.376,-3.204 -4.608,-3.204 -2.412,0 -4.14,1.116 -5.508,3.024 L 79,265.956 H 75.004 V 285 h 4.608 v -13.248 c 1.044,-1.764 2.016,-2.88 3.636,-2.88 1.116,0 2.088,0.684 2.088,3.06 V 285 h 4.608 v -13.248 c 1.044,-1.764 2.016,-2.88 3.6,-2.88 1.152,0 2.088,0.684 2.088,3.06 V 285 h 4.608 v -13.788 c 0,-3.6 -2.016,-5.796 -5.04,-5.796 z m 20.268,0 c 4.968,0 7.056,3.924 7.056,10.008 0,5.832 -2.7,10.116 -7.524,10.116 -1.944,0 -3.6,-0.684 -4.788,-2.088 v 8.892 l -4.608,0.504 v -26.892 h 4.032 l 0.252,2.34 c 1.512,-1.98 3.528,-2.88 5.58,-2.88 z m -1.764,16.596 c 2.52,0 3.996,-1.944 3.996,-6.552 0,-4.824 -1.296,-6.588 -3.6,-6.588 -1.62,0 -2.988,1.116 -3.888,2.592 v 8.568 c 0.9,1.332 2.052,1.98 3.492,1.98 z m 21.132,-16.596 c 5.616,0 8.928,3.816 8.928,10.044 0,6.012 -3.348,10.08 -8.964,10.08 -5.616,0 -8.964,-3.816 -8.964,-10.08 0,-5.976 3.348,-10.044 9,-10.044 z m 0,3.492 c -2.7,0 -4.14,2.052 -4.14,6.552 0,4.572 1.404,6.588 4.104,6.588 2.7,0 4.104,-2.052 4.104,-6.588 0,-4.536 -1.404,-6.552 -4.068,-6.552 z m 23.4,-3.492 c -2.412,0 -4.32,1.116 -5.796,3.024 l -0.36,-2.484 h -3.996 V 285 h 4.608 v -13.248 c 1.116,-1.764 2.34,-2.88 3.996,-2.88 1.44,0 2.34,0.684 2.34,3.06 V 285 h 4.608 v -13.788 c 0,-3.636 -1.98,-5.796 -5.4,-5.796 z m 26.388,9.612 c 0,0.612 -0.072,1.368 -0.108,1.872 h -11.952 c 0.324,3.888 2.16,5.148 4.68,5.148 1.692,0 3.096,-0.54 4.752,-1.692 l 1.908,2.628 c -1.872,1.512 -4.176,2.556 -7.056,2.556 -5.904,0 -9.072,-3.924 -9.072,-9.936 0,-5.796 3.06,-10.188 8.46,-10.188 5.328,0 8.388,3.6 8.388,9.612 z m -4.572,-1.116 v -0.216 c 0,-3.132 -1.116,-5.004 -3.708,-5.004 -2.16,0 -3.528,1.44 -3.78,5.22 z m 18.864,-8.496 c -2.412,0 -4.32,1.116 -5.796,3.024 l -0.36,-2.484 h -3.996 V 285 h 4.608 v -13.248 c 1.116,-1.764 2.34,-2.88 3.996,-2.88 1.44,0 2.34,0.684 2.34,3.06 V 285 h 4.608 v -13.788 c 0,-3.636 -1.98,-5.796 -5.4,-5.796 z m 20.052,15.732 c -0.828,0.468 -1.548,0.684 -2.268,0.684 -1.404,0 -2.016,-0.756 -2.016,-2.628 v -9.936 h 3.96 l 0.468,-3.312 h -4.428 v -4.752 l -4.608,0.54 v 4.212 h -2.988 v 3.312 h 2.988 v 10.044 c 0,4.068 1.98,6.192 5.724,6.228 1.692,0 3.42,-0.468 4.788,-1.44 z m 10.224,-15.732 c -4.428,0 -7.344,2.376 -7.344,5.544 0,2.808 1.728,4.68 5.652,5.76 3.564,1.008 4.32,1.512 4.32,3.096 0,1.44 -1.332,2.304 -3.384,2.304 -1.944,0 -3.708,-0.756 -5.184,-1.872 l -2.304,2.592 c 1.764,1.584 4.32,2.7 7.596,2.7 4.356,0 8.028,-2.088 8.028,-6.048 0,-3.384 -2.196,-4.968 -6.084,-6.012 -3.24,-0.9 -3.996,-1.476 -3.996,-2.736 0,-1.152 1.044,-1.908 2.88,-1.908 1.692,0 3.204,0.54 4.788,1.548 l 1.8,-2.7 c -1.8,-1.404 -4.032,-2.268 -6.768,-2.268 z M 79.8,87.2 l -36.2,22.5 36.2,22.9 -3.7,4.6 -37.7,-23.6 v -7.9 L 76.5,82.1 m 189.3,22.7 v 7.8 l -37.7,23.6 -3.7,-4.9 36.1,-22.6 -36.1,-22.7 3.2,-4.9"
     fill="#4a4a4a"
     id="path6511"
     style="fill-rule:evenodd" />
</svg>
