<svg width="50mm" height="25mm" viewBox="0 8 50 25" version="1.1" id="svg20707" xml:space="preserve" xmlns="http://www.w3.org/2000/svg"><defs id="defs20704"><clipPath id="clip0_2484_23295"><path fill="#fff" id="rect29472" d="M0 0h228v95H0z"/></clipPath></defs><g id="layer1"><path d="M10.232 24.11c-.59 0-.807-.26-.807-.675 0-.477.267-.723.962-.723h.92v.274c0 .73-.45 1.123-1.075 1.123zm-1.6-.597c0 .568.33 1.18 1.361 1.18.597 0 1.011-.233 1.3-.598l.097.506h.646v-2.724c0-1.165-.695-1.369-1.523-1.369-.625 0-1.446.182-1.643 1.123h.793c.099-.35.337-.554.843-.554.414 0 .807.147.807.807v.288h-.87c-1.06 0-1.812.35-1.812 1.34zM6.524 24.6h.745v-2.5c0-.582.358-.842.814-.842.154 0 .316.007.477.035v-.723a1.134 1.134 0 0 0-.393-.056c-.414 0-.737.246-.898.59l-.092-.485h-.653Zm26.397 0h.744v-2.5c0-.582.358-.842.814-.842.155 0 .316.007.478.035v-.723a1.134 1.134 0 0 0-.393-.056c-.414 0-.737.246-.899.59l-.091-.485h-.653zM18.93 21.259v-.653h-.814V19.47l-.765.12v1.017h-.576v.653h.576v2.535c0 .568.21.912 1.046.912.182 0 .456-.035.625-.084v-.569c-.176.05-.337.056-.457.056-.35 0-.449-.168-.449-.533v-2.317Zm22.459 0v-.653h-.822V19.47l-.765.12v1.017h-.576v.653h.576v2.535c0 .568.21.912 1.046.912.182 0 .456-.035.625-.084v-.569c-.176.05-.337.056-.457.056-.35 0-.449-.168-.449-.533v-2.317Zm-11.093 2.822c-.716 0-1.18-.498-1.18-1.488 0-.948.478-1.481 1.187-1.481.716 0 1.138.526 1.138 1.523 0 .969-.436 1.446-1.145 1.446zm13.311 0c-.716 0-1.18-.498-1.18-1.488 0-.948.478-1.481 1.187-1.481.716 0 1.137.526 1.137 1.523.007.969-.435 1.446-1.144 1.446zm-8.13.52h.73v-2.303c0-.66.288-1.123.976-1.123.646 0 .843.274.843.948v2.47h.744v-2.681c0-.92-.386-1.397-1.257-1.397-.596 0-1.039.218-1.306.597l-.09-.506h-.633v3.995zm-22.479 0h.723v-2.303c0-.66.288-1.123.976-1.123.646 0 .843.274.843.948v2.47h.744v-2.681c0-.92-.386-1.397-1.257-1.397-.597 0-1.039.218-1.306.597l-.091-.506h-.632zm33.249 0h.723v-2.303c0-.66.288-1.123.976-1.123.645 0 .842.274.842.948v2.47h.744v-2.681c0-.92-.386-1.397-1.256-1.397-.597 0-1.04.218-1.306.597l-.092-.506h-.631ZM24.02 19.237v-.646h-4.247v.646h1.734v5.357h.8v-5.357zm.386 5.364h.723v-2.303c0-.66.281-1.123.976-1.123.646 0 .843.274.843.948v2.47h.744v-2.681c0-.92-.386-1.397-1.257-1.397-.597 0-1.039.218-1.306.597v-2.52h-.723ZM3.542 22.22H4.96v1.334c-.435.379-1.095.526-1.629.526-1.334 0-2.092-.863-2.092-2.38 0-1.607.814-2.499 2.078-2.499.751 0 1.313.267 1.846.772l.47-.533c-.477-.527-1.298-.913-2.232-.913-1.881 0-2.997 1.313-2.997 3.152 0 1.805.926 3.054 2.941 3.054 1.11 0 1.973-.484 2.401-.948V21.61H3.55v.61zm26.81-1.713c-1.32 0-2.014.913-2.014 2.113 0 1.243.688 2.064 1.923 2.064 1.229 0 1.994-.807 1.994-2.085 0-1.313-.709-2.092-1.902-2.092zm13.311 0c-1.327 0-2.015.913-2.015 2.113 0 1.243.688 2.064 1.924 2.064 1.228 0 1.994-.807 1.994-2.085 0-1.313-.71-2.092-1.903-2.092z" style="fill:#b3b3b3;stroke-width:.0702038" id="path27123"/></g><style id="style30964">.st1{fill:#02549f}.st0{fill:#fff}</style></svg>