<svg width="50mm" height="25mm" viewBox="0 0 50 25" version="1.1" id="svg20707" xml:space="preserve" xmlns="http://www.w3.org/2000/svg"><defs id="defs20704"><clipPath id="clip0_2484_23295"><path fill="#fff" id="rect29472" d="M0 0h228v95H0z"/></clipPath></defs><g id="layer1"><g id="g49770" transform="matrix(.95827 0 0 .95827 -3.445 1.966)" style="fill:#b3b3b3"><path d="m4.839 11.61-.627 3.33h2.35v3.613h1.293V11.61zm6.001 1.601a2.687 2.687 0 1 0 0 5.374 2.687 2.687 0 0 0 0-5.374zm0 4.087a1.398 1.398 0 1 1 0-2.796 1.398 1.398 0 0 1 0 2.796zm4.874-4.041a1.862 1.862 0 1 0 0 3.723 1.862 1.862 0 0 0 0-3.723zm0 2.738a.876.876 0 1 1 0-1.751.876.876 0 0 1 0 1.75z" id="path27942" style="stroke-width:.0783517;fill:#b3b3b3"/><path d="M14.964 17.146a3.148 3.148 0 1 0 0 6.296 3.148 3.148 0 0 0 0-6.296zm.02 4.883a1.745 1.745 0 1 1 0-3.49 1.745 1.745 0 0 1 0 3.49zm3.005-8.688h1.282v5.212h-1.282zm0-1.724h1.282v1.388h-1.282zm5.626 5.151a1.398 1.398 0 1 1-.085-1.827l.82-1.003a2.687 2.687 0 1 0 .038 3.891z" id="path27944" style="stroke-width:.0783517;fill:#b3b3b3"/><path d="M28.374 13.21v.454a2.673 2.673 0 0 0-1.489-.45 2.687 2.687 0 1 0 0 5.374 2.674 2.674 0 0 0 1.49-.45v.421h1.217v-5.35zm-1.489 4.09a1.398 1.398 0 1 1 0-2.795 1.398 1.398 0 0 1 0 2.796zm10.526-4.178h-4.534c-.042 0-1.043.009-1.769.737-.48.482-.722 1.154-.72 1.999.009 2.666 2.438 2.702 2.462 2.702l4.83-.002v-1.873h-4.403c-.124-.001-.748-.048-.75-.846-.002-.79.622-.837.747-.838h4.4v-1.879zm-6.498 2.734c-.007-2.172 1.884-2.208 1.965-2.209h4.27v.83h-3.875c-.021 0-.535.002-.906.372-.243.243-.366.576-.365.991.001.419.126.755.371.998.372.37.884.372.905.372h3.877v.824l-4.304.001c-.078 0-1.931-.04-1.938-2.179zm15.769-2.733h-1.878l-2.265 3.334-2.261-3.334h-2.14l-.002 5.434h1.876v-2.494l1.68 2.497 1.69-.001 1.687-2.497-.001 2.494h1.876v-5.434h-.262zm-.263.524v4.385h-.827l.002-3.685-2.49 3.687-1.133.001-2.483-3.692v3.689h-.827v-4.385H40l2.539 3.744 2.543-3.744zm7.898-.527h-4.534c-.043 0-1.043.008-1.77.736-.48.482-.721 1.154-.719 1.999.008 2.667 2.438 2.702 2.462 2.702l4.823-.003v-3.036h-1.827v1.164h-2.569c-.125-.001-.749-.048-.75-.846v-.003c0-.787.622-.834.746-.835h4.4V13.12zm-6.498 2.733c-.007-2.172 1.884-2.209 1.964-2.21h4.272v.83h-3.877c-.02 0-.534.003-.905.373-.242.242-.365.574-.365.987v.004c.001.419.126.755.37.998.369.365.873.371.905.371h3.093v-1.164h.779v1.988l-4.298.002c-.078 0-1.932-.04-1.938-2.179z" id="path27946" style="stroke-width:.0783517;fill:#b3b3b3"/></g></g><style id="style30964">.st1{fill:#02549f}.st0{fill:#fff}</style></svg>