<svg width="50mm" height="25mm" viewBox="0 0 50 25" version="1.1" id="svg20707" xml:space="preserve" xmlns="http://www.w3.org/2000/svg"><defs id="defs20704"><clipPath id="clip0_2484_23295"><path fill="#fff" id="rect29472" d="M0 0h228v95H0z"/></clipPath></defs><g id="layer1"><g id="g42601" transform="matrix(1.64866 0 0 1.64866 -5.162 -9.05)" style="fill:#fff"><path fill="#fff" d="M17.617 20.16a25.229 25.229 0 0 0 13.732-4.044c.353-.222.151-.585-.232-.433-5.273 2.167-8.69 2.964-13.5 2.964-4.81 0-8.227-.797-13.5-2.964-.383-.152-.585.201-.232.433a25.26 25.26 0 0 0 13.732 4.043m9.687-9.914c0 .907 1.119 1.17 1.693 1.31.283.07.857.212.868.575.02.393-.434.605-.888.605-.474 0-.776-.192-1.038-.534-.121-.152-.262-.192-.444-.131-.211.06-.443.181-.665.332-.131.091-.182.232-.111.404.363.867 1.33 1.139 2.168 1.139 1.32 0 2.47-.575 2.752-1.744.282-1.15-.655-1.573-1.502-1.815-.555-.161-.968-.293-.938-.666.03-.393.928-.645 1.543.071.151.181.312.202.494.131.191-.07.504-.212.605-.282.211-.131.252-.252.13-.474-.312-.565-1.078-.938-1.945-.938-1.644.02-2.722.877-2.722 2.017M9.064 7.864c.03.917.121 3.044.121 3.044H7.028a26.633 26.633 0 0 1 1.966-3.055c.05-.09.07.01.07.01m.101-1.744c-.353.02-.645.05-.917.373-.878 1.039-2.894 4.154-4.487 6.987-.11.202-.03.394.212.394h1.17c.19 0 .322-.04.453-.263.141-.242.484-.846.786-1.36h2.793l.04 1.31c.01.192.122.313.374.313h1.028c.171 0 .333-.081.323-.323-.03-.998-.283-5.898-.373-7.048-.02-.282-.162-.403-.484-.403-.313-.01-.666 0-.918.02m14.305 6.643c.978 0 1.402-.806 1.654-1.663.242-.857.342-1.664-.646-1.664s-1.401.807-1.643 1.664c-.262.867-.353 1.663.635 1.663zm-.11 1.2c-1.755 0-2.562-1.16-2.209-2.853.363-1.694 1.664-2.853 3.418-2.853 1.764 0 2.571 1.16 2.208 2.853-.353 1.694-1.653 2.853-3.418 2.853" id="path24135" style="fill:#fff;stroke-width:.100822"/><path fill="#fff" d="M20.111 13.237c.424-1.674.817-3.257 1.079-4.386.06-.272-.1-.453-.313-.453-.15 0-.594 0-.736.01-.242.01-.383.13-.443.332-.01.05-.03.101-.06.222-.01.05-.031.05-.051.01-.101-.201-.555-.655-1.341-.655-1.432 0-2.42 1.381-2.833 2.662-.262.806-.283 1.734.05 2.238.303.454.787.746 1.533.756.625.01 1.17-.202 1.441-.544.03-.04.06-.02.05.02-.362 1.25-1.128 1.593-1.723 1.593-.393 0-.676-.162-.817-.252-.222-.131-.292-.142-.494-.091-.222.06-.484.161-.696.302-.252.172-.201.343-.11.494.473.767 1.572.958 2.218.958 1.593 0 2.712-1.099 3.246-3.216zm-3.297-2.087c.313-1.099.847-1.664 1.573-1.643.928.03.736.937.534 1.633-.312 1.059-.796 1.623-1.552 1.563-.777-.071-.726-.968-.555-1.553m-.548-2.501c.101-.091.04-.242-.12-.242-.908 0-1.775 0-2.42.594-.01.01-.04.01-.03-.02.01-.05.04-.161.07-.292.04-.151-.05-.282-.222-.282-.272 0-.554 0-.887.01-.202 0-.313.08-.363.302-.101.454-.797 3.882-.998 4.91-.03.141.09.252.211.252h1.08c.19 0 .292-.09.322-.252.171-.816.393-1.915.464-2.299.11-.564.342-1.008.564-1.18.212-.16.504-.271 1.09-.302.261-.01.362-.09.503-.292a4.21 4.21 0 0 1 .736-.907" id="path24137" style="fill:#fff;stroke-width:.100822"/></g></g><style id="style30964">.st1{fill:#02549f}.st0{fill:#fff}</style></svg>